{
.appVersion = "1192";
DisplayStrings = (
"/ra_xa-ethiopic.liga",
"/lu-ethiopic",
" ",
"/_part.leg/laa-ethiopic",
"/oGlottal-ethiopic",
"/iGlottal-ethiopic",
"/waGlottal-ethiopic",
"/aaGlottal-ethiopic",
"/da-ethiopic",
"/la-ethiopic",
"/_part.legcross/lwa-ethiopic",
"/ti-ethiopic",
"/aGlottal-ethiopic",
"/za-ethiopic",
"/ye-ethiopic",
"/du-ethiopic",
"/ya-ethiopic",
"/yu-ethiopic",
"/yi-ethiopic",
"/yaa-ethiopic",
"/yee-ethiopic",
"/yo-ethiopic",
"/yoa-ethiopic",
"/di-ethiopic",
"/daa-ethiopic",
"/dee-ethiopic",
"/de-ethiopic",
"/do-ethiopic",
"/dwa-ethiopic",
"/dda-ethiopic",
"/ddu-ethiopic",
"/ddi-ethiopic",
"/ddaa-ethiopic",
"/ddee-ethiopic",
"/dde-ethiopic",
"/ddo-ethiopic",
"/ddwa-ethiopic",
"/ja-ethiopic",
"/ju-ethiopic",
"/ji-ethiopic",
"/jaa-ethiopic",
"/jee-ethiopic",
"/je-ethiopic",
"/jo-ethiopic",
"/jwa-ethiopic",
"/pha-ethiopic",
"/fe-ethiopic",
"/caa-ethiopic",
"/taa-ethiopic",
"/le-ethiopic",

glyphs = (
{
glyphname = A;
lastChange = "2019-03-09 00:04:35 +0000";
layers = (
{
layerId = "994FE389-9D54-4FAA-B055-C46A67020E78";
paths = (
{
closed = 1;
nodes = (
"165 0 LINE",
"239 203 LINE",
"509 203 LINE",
"578 0 LINE",
"680 0 LINE",
"431 682 LINE",
"327 682 LINE",
"70 0 LINE"
);
},
{
closed = 1;
nodes = (
"377 579 LINE",
"479 278 LINE",
"265 278 LINE"
);
}
);
width = 750;
}
);
note = A;
unicode = 0041;
},
{
glyphname = B;
lastChange = "2019-03-09 00:04:35 +0000";
layers = (
{
layerId = "994FE389-9D54-4FAA-B055-C46A67020E78";
paths = (
{
closed = 1;
nodes = (
"358 0 LINE SMOOTH",
"448 0 OFFCURVE",
"513 24 OFFCURVE",
"553 77 CURVE SMOOTH",
"581 115 OFFCURVE",
"596 153 OFFCURVE",
"596 198 CURVE SMOOTH",
"596 250 OFFCURVE",
"580 291 OFFCURVE",
"549 321 CURVE SMOOTH",
"535 335 OFFCURVE",
"507 352 OFFCURVE",
"472 366 CURVE",
"495 378 OFFCURVE",
"513 392 OFFCURVE",
"526 406 CURVE SMOOTH",
"551 433 OFFCURVE",
"563 468 OFFCURVE",
"563 511 CURVE SMOOTH",
"563 547 OFFCURVE",
"555 580 OFFCURVE",
"532 608 CURVE SMOOTH",
"496 653 OFFCURVE",
"442 679 OFFCURVE",
"363 679 CURVE SMOOTH",
"70 679 LINE",
"70 0 LINE"
);
},
{
closed = 1;
nodes = (
"161 318 LINE",
"343 318 LINE SMOOTH",
"382 318 OFFCURVE",
"414 313 OFFCURVE",
"437 304 CURVE SMOOTH",
"481 286 OFFCURVE",
"503 252 OFFCURVE",
"503 202 CURVE SMOOTH",
"503 173 OFFCURVE",
"496 147 OFFCURVE",
"479 127 CURVE SMOOTH",
"450 92 OFFCURVE",
"412 77 OFFCURVE",
"358 77 CURVE SMOOTH",
"161 77 LINE"
);
},
{
closed = 1;
nodes = (
"161 603 LINE",
"327 603 LINE SMOOTH",
"365 603 OFFCURVE",
"396 598 OFFCURVE",
"417 590 CURVE SMOOTH",
"453 576 OFFCURVE",
"471 545 OFFCURVE",
"471 500 CURVE SMOOTH",
"471 456 OFFCURVE",
"452 425 OFFCURVE",
"419 408 CURVE SMOOTH",
"398 397 OFFCURVE",
"367 392 OFFCURVE",
"329 392 CURVE SMOOTH",
"161 392 LINE"
);
}
);
width = 666;
}
);
note = B;
unicode = 0042;
},
{
glyphname = C;
lastChange = "2019-03-09 00:04:35 +0000";
layers = (
{
layerId = "994FE389-9D54-4FAA-B055-C46A67020E78";
paths = (
{
closed = 1;
nodes = (
"455 -7 OFFCURVE",
"526 22 OFFCURVE",
"579 77 CURVE SMOOTH",
"623 124 OFFCURVE",
"648 183 OFFCURVE",
"655 253 CURVE",
"569 253 LINE",
"560 209 OFFCURVE",
"546 174 OFFCURVE",
"527 147 CURVE SMOOTH",
"491 97 OFFCURVE",
"443 71 OFFCURVE",
"377 71 CURVE SMOOTH",
"306 71 OFFCURVE",
"253 96 OFFCURVE",
"216 144 CURVE SMOOTH",
"180 191 OFFCURVE",
"161 254 OFFCURVE",
"161 332 CURVE SMOOTH",
"161 426 OFFCURVE",
"182 496 OFFCURVE",
"222 542 CURVE SMOOTH",
"262 587 OFFCURVE",
"314 609 OFFCURVE",
"378 609 CURVE SMOOTH",
"433 609 OFFCURVE",
"473 597 OFFCURVE",
"503 573 CURVE SMOOTH",
"532 549 OFFCURVE",
"553 514 OFFCURVE",
"563 471 CURVE",
"650 471 LINE",
"644 527 OFFCURVE",
"620 577 OFFCURVE",
"573 622 CURVE SMOOTH",
"525 667 OFFCURVE",
"458 687 OFFCURVE",
"377 687 CURVE SMOOTH",
"283 687 OFFCURVE",
"208 658 OFFCURVE",
"147 586 CURVE SMOOTH",
"91 520 OFFCURVE",
"70 439 OFFCURVE",
"70 347 CURVE SMOOTH",
"70 218 OFFCURVE",
"105 124 OFFCURVE",
"173 63 CURVE SMOOTH",
"225 16 OFFCURVE",
"290 -7 OFFCURVE",
"366 -7 CURVE SMOOTH"
);
}
);
width = 725;
}
);
note = C;
unicode = 0043;
},
{
glyphname = D;
lastChange = "2019-03-09 00:04:35 +0000";
layers = (
{
layerId = "994FE389-9D54-4FAA-B055-C46A67020E78";
paths = (
{
closed = 1;
nodes = (
"346 1 LINE SMOOTH",
"461 1 OFFCURVE",
"543 53 OFFCURVE",
"592 156 CURVE SMOOTH",
"620 213 OFFCURVE",
"633 279 OFFCURVE",
"633 351 CURVE SMOOTH",
"633 449 OFFCURVE",
"609 523 OFFCURVE",
"562 581 CURVE SMOOTH",
"501 657 OFFCURVE",
"427 681 OFFCURVE",
"347 681 CURVE SMOOTH",
"70 681 LINE",
"70 1 LINE"
);
},
{
closed = 1;
nodes = (
"163 603 LINE",
"327 603 LINE SMOOTH",
"400 603 OFFCURVE",
"457 579 OFFCURVE",
"489 533 CURVE SMOOTH",
"521 486 OFFCURVE",
"539 420 OFFCURVE",
"539 336 CURVE SMOOTH",
"539 314 OFFCURVE",
"537 290 OFFCURVE",
"532 265 CURVE SMOOTH",
"524 220 OFFCURVE",
"510 186 OFFCURVE",
"492 159 CURVE SMOOTH",
"469 124 OFFCURVE",
"440 101 OFFCURVE",
"404 89 CURVE SMOOTH",
"385 83 OFFCURVE",
"357 78 OFFCURVE",
"328 78 CURVE SMOOTH",
"163 78 LINE"
);
}
);
width = 703;
}
);
note = D;
unicode = 0044;
},
{
glyphname = E;
lastChange = "2019-03-09 00:04:35 +0000";
layers = (
{
layerId = "994FE389-9D54-4FAA-B055-C46A67020E78";
paths = (
{
closed = 1;
nodes = (
"575 0 LINE",
"575 80 LINE",
"160 80 LINE",
"160 313 LINE",
"536 313 LINE",
"536 391 LINE",
"160 391 LINE",
"160 598 LINE",
"568 598 LINE",
"568 682 LINE",
"70 682 LINE",
"70 0 LINE"
);
}
);
width = 645;
}
);
note = E;
unicode = 0045;
},
{
glyphname = F;
lastChange = "2019-03-09 00:04:35 +0000";
layers = (
{
layerId = "994FE389-9D54-4FAA-B055-C46A67020E78";
paths = (
{
closed = 1;
nodes = (
"162 0 LINE",
"162 309 LINE",
"496 309 LINE",
"496 391 LINE",
"162 391 LINE",
"162 597 LINE",
"542 597 LINE",
"542 681 LINE",
"70 681 LINE",
"70 0 LINE"
);
}
);
width = 612;
}
);
note = F;
unicode = 0046;
},
{
glyphname = G;
lastChange = "2019-03-09 00:04:35 +0000";
layers = (
{
layerId = "994FE389-9D54-4FAA-B055-C46A67020E78";
paths = (
{
closed = 1;
nodes = (
"429 -11 OFFCURVE",
"478 -2 OFFCURVE",
"520 23 CURVE SMOOTH",
"541 36 OFFCURVE",
"569 59 OFFCURVE",
"600 92 CURVE",
"622 6 LINE",
"680 6 LINE",
"680 364 LINE",
"386 364 LINE",
"386 288 LINE",
"595 288 LINE",
"594 210 OFFCURVE",
"574 155 OFFCURVE",
"535 118 CURVE SMOOTH",
"496 82 OFFCURVE",
"445 66 OFFCURVE",
"385 66 CURVE SMOOTH",
"306 66 OFFCURVE",
"249 93 OFFCURVE",
"215 142 CURVE SMOOTH",
"180 192 OFFCURVE",
"162 256 OFFCURVE",
"162 336 CURVE SMOOTH",
"162 430 OFFCURVE",
"184 499 OFFCURVE",
"226 543 CURVE SMOOTH",
"269 588 OFFCURVE",
"324 613 OFFCURVE",
"382 613 CURVE SMOOTH",
"434 613 OFFCURVE",
"477 601 OFFCURVE",
"511 579 CURVE SMOOTH",
"546 557 OFFCURVE",
"568 521 OFFCURVE",
"580 472 CURVE",
"669 472 LINE",
"654 560 OFFCURVE",
"614 621 OFFCURVE",
"548 655 CURVE SMOOTH",
"501 679 OFFCURVE",
"450 692 OFFCURVE",
"385 692 CURVE SMOOTH",
"292 692 OFFCURVE",
"218 661 OFFCURVE",
"161 597 CURVE SMOOTH",
"101 530 OFFCURVE",
"70 443 OFFCURVE",
"70 331 CURVE SMOOTH",
"70 217 OFFCURVE",
"101 130 OFFCURVE",
"163 66 CURVE",
"220 15 OFFCURVE",
"288 -11 OFFCURVE",
"368 -11 CURVE SMOOTH"
);
}
);
width = 750;
}
);
note = G;
unicode = 0047;
},
{
glyphname = H;
lastChange = "2019-03-09 00:04:35 +0000";
layers = (
{
layerId = "994FE389-9D54-4FAA-B055-C46A67020E78";
paths = (
{
closed = 1;
nodes = (
"163 0 LINE",
"163 317 LINE",
"516 317 LINE",
"516 0 LINE",
"610 0 LINE",
"610 680 LINE",
"516 680 LINE",
"516 399 LINE",
"163 399 LINE",
"163 680 LINE",
"70 680 LINE",
"70 0 LINE"
);
}
);
width = 680;
}
);
note = H;
unicode = 0048;
},
{
glyphname = I;
lastChange = "2019-03-09 00:04:35 +0000";
layers = (
{
layerId = "994FE389-9D54-4FAA-B055-C46A67020E78";
paths = (
{
closed = 1;
nodes = (
"163 0 LINE",
"163 683 LINE",
"70 683 LINE",
"70 0 LINE"
);
}
);
width = 233;
}
);
note = I;
unicode = 0049;
},
{
glyphname = J;
lastChange = "2019-03-09 00:04:35 +0000";
layers = (
{
layerId = "994FE389-9D54-4FAA-B055-C46A67020E78";
paths = (
{
closed = 1;
nodes = (
"335 -8 OFFCURVE",
"395 16 OFFCURVE",
"430 77 CURVE SMOOTH",
"450 112 OFFCURVE",
"456 156 OFFCURVE",
"456 210 CURVE SMOOTH",
"456 682 LINE",
"366 682 LINE",
"366 234 LINE SMOOTH",
"366 177 OFFCURVE",
"360 137 OFFCURVE",
"352 118 CURVE SMOOTH",
"338 84 OFFCURVE",
"305 67 OFFCURVE",
"257 67 CURVE SMOOTH",
"222 67 OFFCURVE",
"197 77 OFFCURVE",
"180 96 CURVE SMOOTH",
"163 115 OFFCURVE",
"156 142 OFFCURVE",
"156 179 CURVE SMOOTH",
"156 227 LINE",
"70 227 LINE",
"70 179 LINE SMOOTH",
"70 109 OFFCURVE",
"89 61 OFFCURVE",
"124 33 CURVE SMOOTH",
"160 5 OFFCURVE",
"202 -8 OFFCURVE",
"252 -8 CURVE SMOOTH"
);
}
);
width = 526;
}
);
note = J;
unicode = 004A;
},
{
glyphname = K;
lastChange = "2019-03-09 00:04:35 +0000";
layers = (
{
layerId = "994FE389-9D54-4FAA-B055-C46A67020E78";
paths = (
{
closed = 1;
nodes = (
"160 0 LINE",
"160 237 LINE",
"268 342 LINE",
"508 0 LINE",
"628 0 LINE",
"337 406 LINE",
"620 681 LINE",
"493 681 LINE",
"160 349 LINE",
"160 681 LINE",
"70 681 LINE",
"70 0 LINE"
);
}
);
width = 698;
}
);
note = K;
unicode = 004B;
},
{
glyphname = L;
lastChange = "2019-03-09 00:04:35 +0000";
layers = (
{
layerId = "994FE389-9D54-4FAA-B055-C46A67020E78";
paths = (
{
closed = 1;
nodes = (
"506 0 LINE",
"506 82 LINE",
"162 82 LINE",
"162 679 LINE",
"70 679 LINE",
"70 0 LINE"
);
}
);
width = 576;
}
);
note = L;
unicode = 004C;
},
{
glyphname = M;
lastChange = "2019-03-09 00:04:35 +0000";
layers = (
{
layerId = "994FE389-9D54-4FAA-B055-C46A67020E78";
paths = (
{
closed = 1;
nodes = (
"158 1 LINE",
"158 402 LINE SMOOTH",
"158 418 OFFCURVE",
"158 444 OFFCURVE",
"157 478 CURVE SMOOTH",
"156 512 OFFCURVE",
"155 537 OFFCURVE",
"155 554 CURVE SMOOTH",
"155 576 LINE",
"352 1 LINE",
"443 1 LINE",
"638 576 LINE",
"638 472 LINE SMOOTH",
"638 439 OFFCURVE",
"637 416 OFFCURVE",
"637 402 CURVE SMOOTH",
"637 1 LINE",
"723 1 LINE",
"723 681 LINE",
"593 681 LINE",
"398 106 LINE",
"202 681 LINE",
"70 681 LINE",
"70 1 LINE"
);
}
);
width = 793;
}
);
note = M;
unicode = 004D;
},
{
glyphname = N;
lastChange = "2019-03-09 00:04:35 +0000";
layers = (
{
layerId = "994FE389-9D54-4FAA-B055-C46A67020E78";
paths = (
{
closed = 1;
nodes = (
"159 -2 LINE",
"159 551 LINE",
"509 -2 LINE",
"612 -2 LINE",
"612 682 LINE",
"525 682 LINE",
"525 128 LINE",
"180 682 LINE",
"70 682 LINE",
"70 -2 LINE"
);
}
);
width = 682;
}
);
note = N;
unicode = 004E;
},
{
glyphname = O;
lastChange = "2019-03-09 00:04:35 +0000";
layers = (
{
layerId = "994FE389-9D54-4FAA-B055-C46A67020E78";
paths = (
{
closed = 1;
nodes = (
"492 -10 OFFCURVE",
"576 29 OFFCURVE",
"634 104 CURVE SMOOTH",
"686 171 OFFCURVE",
"709 252 OFFCURVE",
"710 349 CURVE SMOOTH",
"711 423 OFFCURVE",
"688 515 OFFCURVE",
"645 572 CURVE SMOOTH",
"588 646 OFFCURVE",
"503 685 OFFCURVE",
"387 685 CURVE SMOOTH",
"279 685 OFFCURVE",
"193 644 OFFCURVE",
"135 562 CURVE SMOOTH",
"91 499 OFFCURVE",
"70 423 OFFCURVE",
"70 335 CURVE SMOOTH",
"70 236 OFFCURVE",
"95 156 OFFCURVE",
"147 90 CURVE",
"205 24 OFFCURVE",
"285 -10 OFFCURVE",
"385 -10 CURVE SMOOTH"
);
},
{
closed = 1;
nodes = (
"314 70 OFFCURVE",
"255 95 OFFCURVE",
"217 144 CURVE SMOOTH",
"179 194 OFFCURVE",
"162 254 OFFCURVE",
"162 328 CURVE SMOOTH",
"162 415 OFFCURVE",
"182 488 OFFCURVE",
"226 536 CURVE SMOOTH",
"269 583 OFFCURVE",
"328 606 OFFCURVE",
"393 606 CURVE SMOOTH",
"463 606 OFFCURVE",
"517 581 OFFCURVE",
"558 535 CURVE SMOOTH",
"599 488 OFFCURVE",
"618 426 OFFCURVE",
"618 348 CURVE SMOOTH",
"618 275 OFFCURVE",
"601 211 OFFCURVE",
"566 155 CURVE SMOOTH",
"531 97 OFFCURVE",
"474 70 OFFCURVE",
"396 70 CURVE SMOOTH"
);
}
);
width = 780;
}
);
note = O;
unicode = 004F;
},
{
glyphname = P;
lastChange = "2019-03-09 00:04:35 +0000";
layers = (
{
layerId = "994FE389-9D54-4FAA-B055-C46A67020E78";
paths = (
{
closed = 1;
nodes = (
"162 0 LINE",
"162 288 LINE",
"377 288 LINE SMOOTH",
"446 288 OFFCURVE",
"497 307 OFFCURVE",
"530 347 CURVE SMOOTH",
"562 386 OFFCURVE",
"580 433 OFFCURVE",
"580 486 CURVE SMOOTH",
"580 548 OFFCURVE",
"561 596 OFFCURVE",
"524 631 CURVE SMOOTH",
"487 666 OFFCURVE",
"438 682 OFFCURVE",
"377 682 CURVE SMOOTH",
"70 682 LINE",
"70 0 LINE"
);
},
{
closed = 1;
nodes = (
"162 603 LINE",
"346 603 LINE SMOOTH",
"382 603 OFFCURVE",
"410 597 OFFCURVE",
"431 588 CURVE SMOOTH",
"468 572 OFFCURVE",
"486 536 OFFCURVE",
"486 486 CURVE SMOOTH",
"486 441 OFFCURVE",
"472 410 OFFCURVE",
"448 392 CURVE SMOOTH",
"423 374 OFFCURVE",
"388 366 OFFCURVE",
"346 366 CURVE SMOOTH",
"162 366 LINE"
);
}
);
width = 650;
}
);
note = P;
unicode = 0050;
},
{
glyphname = Q;
lastChange = "2019-03-09 00:04:35 +0000";
layers = (
{
layerId = "994FE389-9D54-4FAA-B055-C46A67020E78";
paths = (
{
closed = 1;
nodes = (
"705 15 LINE",
"615 84 LINE",
"652 122 OFFCURVE",
"679 170 OFFCURVE",
"695 230 CURVE SMOOTH",
"705 268 OFFCURVE",
"709 307 OFFCURVE",
"709 352 CURVE SMOOTH",
"709 447 OFFCURVE",
"684 521 OFFCURVE",
"646 573 CURVE SMOOTH",
"589 651 OFFCURVE",
"504 686 OFFCURVE",
"387 686 CURVE SMOOTH",
"276 686 OFFCURVE",
"193 646 OFFCURVE",
"136 565 CURVE SMOOTH",
"92 501 OFFCURVE",
"70 426 OFFCURVE",
"70 337 CURVE SMOOTH",
"70 239 OFFCURVE",
"96 157 OFFCURVE",
"146 93 CURVE",
"204 26 OFFCURVE",
"285 -7 OFFCURVE",
"386 -7 CURVE SMOOTH",
"419 -7 OFFCURVE",
"451 -4 OFFCURVE",
"479 6 CURVE SMOOTH",
"506 15 OFFCURVE",
"534 24 OFFCURVE",
"558 37 CURVE",
"660 -40 LINE"
);
},
{
closed = 1;
nodes = (
"319 72 OFFCURVE",
"261 96 OFFCURVE",
"222 143 CURVE SMOOTH",
"183 190 OFFCURVE",
"162 252 OFFCURVE",
"163 331 CURVE SMOOTH",
"164 425 OFFCURVE",
"183 494 OFFCURVE",
"224 539 CURVE SMOOTH",
"266 585 OFFCURVE",
"322 607 OFFCURVE",
"393 607 CURVE SMOOTH",
"466 607 OFFCURVE",
"519 582 OFFCURVE",
"558 536 CURVE SMOOTH",
"598 490 OFFCURVE",
"619 427 OFFCURVE",
"619 350 CURVE SMOOTH",
"619 315 OFFCURVE",
"614 278 OFFCURVE",
"605 240 CURVE SMOOTH",
"595 201 OFFCURVE",
"576 166 OFFCURVE",
"549 136 CURVE",
"463 203 LINE",
"419 147 LINE",
"491 91 LINE",
"478 84 OFFCURVE",
"464 79 OFFCURVE",
"448 76 CURVE",
"433 74 OFFCURVE",
"414 72 OFFCURVE",
"396 72 CURVE SMOOTH"
);
}
);
width = 779;
}
);
note = Q;
unicode = 0051;
},
{
glyphname = R;
lastChange = "2019-03-09 00:04:35 +0000";
layers = (
{
layerId = "994FE389-9D54-4FAA-B055-C46A67020E78";
paths = (
{
closed = 1;
nodes = (
"163 0 LINE",
"163 293 LINE",
"373 293 LINE SMOOTH",
"410 293 OFFCURVE",
"437 288 OFFCURVE",
"457 280 CURVE SMOOTH",
"489 267 OFFCURVE",
"504 234 OFFCURVE",
"506 190 CURVE SMOOTH",
"511 76 LINE SMOOTH",
"513 31 OFFCURVE",
"515 30 OFFCURVE",
"516 23 CURVE",
"517 14 OFFCURVE",
"520 6 OFFCURVE",
"523 0 CURVE",
"636 0 LINE",
"636 16 LINE",
"621 22 OFFCURVE",
"611 34 OFFCURVE",
"606 56 CURVE",
"602 69 OFFCURVE",
"600 89 OFFCURVE",
"599 116 CURVE SMOOTH",
"596 206 LINE",
"596 245 OFFCURVE",
"589 275 OFFCURVE",
"575 293 CURVE",
"561 309 OFFCURVE",
"541 324 OFFCURVE",
"514 334 CURVE",
"545 350 OFFCURVE",
"568 371 OFFCURVE",
"584 396 CURVE SMOOTH",
"601 423 OFFCURVE",
"610 457 OFFCURVE",
"610 496 CURVE SMOOTH",
"610 575 OFFCURVE",
"577 628 OFFCURVE",
"514 659 CURVE SMOOTH",
"480 676 OFFCURVE",
"433 680 OFFCURVE",
"386 680 CURVE SMOOTH",
"70 680 LINE",
"70 0 LINE"
);
},
{
closed = 1;
nodes = (
"163 601 LINE",
"388 601 LINE SMOOTH",
"419 601 OFFCURVE",
"445 596 OFFCURVE",
"465 587 CURVE",
"501 573 OFFCURVE",
"516 537 OFFCURVE",
"516 487 CURVE SMOOTH",
"516 444 OFFCURVE",
"504 412 OFFCURVE",
"479 394 CURVE SMOOTH",
"455 376 OFFCURVE",
"419 369 OFFCURVE",
"376 369 CURVE SMOOTH",
"163 369 LINE"
);
}
);
width = 706;
}
);
note = R;
unicode = 0052;
},
{
glyphname = S;
lastChange = "2019-03-09 00:04:35 +0000";
layers = (
{
layerId = "994FE389-9D54-4FAA-B055-C46A67020E78";
paths = (
{
closed = 1;
nodes = (
"406 -9 OFFCURVE",
"468 7 OFFCURVE",
"522 37 CURVE SMOOTH",
"576 68 OFFCURVE",
"603 123 OFFCURVE",
"603 197 CURVE SMOOTH",
"603 257 OFFCURVE",
"582 302 OFFCURVE",
"539 333 CURVE SMOOTH",
"513 352 OFFCURVE",
"480 366 OFFCURVE",
"434 376 CURVE SMOOTH",
"341 397 LINE SMOOTH",
"278 411 OFFCURVE",
"237 424 OFFCURVE",
"220 433 CURVE SMOOTH",
"192 447 OFFCURVE",
"178 473 OFFCURVE",
"178 505 CURVE SMOOTH",
"178 536 OFFCURVE",
"189 561 OFFCURVE",
"213 583 CURVE SMOOTH",
"239 606 OFFCURVE",
"275 617 OFFCURVE",
"329 617 CURVE SMOOTH",
"394 617 OFFCURVE",
"441 598 OFFCURVE",
"469 566 CURVE",
"484 547 OFFCURVE",
"493 519 OFFCURVE",
"498 483 CURVE",
"583 483 LINE",
"583 557 OFFCURVE",
"559 612 OFFCURVE",
"510 645 CURVE",
"460 676 OFFCURVE",
"402 696 OFFCURVE",
"332 696 CURVE SMOOTH",
"255 696 OFFCURVE",
"196 676 OFFCURVE",
"155 638 CURVE SMOOTH",
"112 598 OFFCURVE",
"92 549 OFFCURVE",
"92 489 CURVE SMOOTH",
"92 435 OFFCURVE",
"114 392 OFFCURVE",
"157 366 CURVE",
"181 350 OFFCURVE",
"222 333 OFFCURVE",
"281 320 CURVE SMOOTH",
"372 300 LINE SMOOTH",
"415 291 OFFCURVE",
"447 283 OFFCURVE",
"482 259 CURVE SMOOTH",
"501 247 OFFCURVE",
"515 220 OFFCURVE",
"515 183 CURVE SMOOTH",
"515 134 OFFCURVE",
"487 102 OFFCURVE",
"434 83 CURVE SMOOTH",
"406 73 OFFCURVE",
"374 67 OFFCURVE",
"341 67 CURVE SMOOTH",
"264 67 OFFCURVE",
"211 88 OFFCURVE",
"182 133 CURVE SMOOTH",
"166 158 OFFCURVE",
"158 188 OFFCURVE",
"156 226 CURVE",
"70 226 LINE",
"70 155 OFFCURVE",
"92 96 OFFCURVE",
"140 55 CURVE SMOOTH",
"187 14 OFFCURVE",
"252 -9 OFFCURVE",
"334 -9 CURVE SMOOTH"
);
}
);
width = 673;
}
);
note = S;
unicode = 0053;
},
{
glyphname = T;
lastChange = "2019-03-09 00:04:35 +0000";
layers = (
{
layerId = "994FE389-9D54-4FAA-B055-C46A67020E78";
paths = (
{
closed = 1;
nodes = (
"391 1 LINE",
"391 600 LINE",
"621 600 LINE",
"621 681 LINE",
"70 681 LINE",
"70 600 LINE",
"300 600 LINE",
"300 1 LINE"
);
}
);
width = 691;
}
);
note = T;
unicode = 0054;
},
{
glyphname = U;
lastChange = "2019-03-09 00:04:35 +0000";
layers = (
{
layerId = "994FE389-9D54-4FAA-B055-C46A67020E78";
paths = (
{
closed = 1;
nodes = (
"428 -5 OFFCURVE",
"502 34 OFFCURVE",
"540 110 CURVE SMOOTH",
"561 152 OFFCURVE",
"571 212 OFFCURVE",
"571 291 CURVE SMOOTH",
"571 648 LINE",
"484 648 LINE",
"484 255 LINE SMOOTH",
"484 208 OFFCURVE",
"476 172 OFFCURVE",
"462 146 CURVE SMOOTH",
"435 96 OFFCURVE",
"386 70 OFFCURVE",
"314 70 CURVE SMOOTH",
"253 70 OFFCURVE",
"208 93 OFFCURVE",
"183 140 CURVE SMOOTH",
"166 170 OFFCURVE",
"157 208 OFFCURVE",
"157 255 CURVE SMOOTH",
"157 648 LINE",
"70 648 LINE",
"70 291 LINE SMOOTH",
"70 236 OFFCURVE",
"70 174 OFFCURVE",
"101 110 CURVE SMOOTH",
"138 33 OFFCURVE",
"214 -5 OFFCURVE",
"320 -5 CURVE SMOOTH"
);
}
);
width = 641;
}
);
note = U;
unicode = 0055;
},
{
glyphname = V;
lastChange = "2019-03-09 00:04:35 +0000";
layers = (
{
layerId = "994FE389-9D54-4FAA-B055-C46A67020E78";
paths = (
{
closed = 1;
nodes = (
"413 0 LINE",
"662 680 LINE",
"559 680 LINE",
"365 102 LINE",
"171 680 LINE",
"70 680 LINE",
"317 0 LINE"
);
}
);
width = 732;
}
);
note = V;
unicode = 0056;
},
{
glyphname = W;
lastChange = "2019-03-09 00:04:35 +0000";
layers = (
{
layerId = "994FE389-9D54-4FAA-B055-C46A67020E78";
paths = (
{
closed = 1;
nodes = (
"346 0 LINE",
"504 566 LINE",
"662 0 LINE",
"760 0 LINE",
"940 684 LINE",
"838 684 LINE",
"709 128 LINE",
"555 684 LINE",
"453 684 LINE",
"300 128 LINE",
"170 684 LINE",
"70 684 LINE",
"250 0 LINE"
);
}
);
width = 1010;
}
);
note = W;
unicode = 0057;
},
{
glyphname = X;
lastChange = "2019-03-09 00:04:35 +0000";
layers = (
{
layerId = "994FE389-9D54-4FAA-B055-C46A67020E78";
paths = (
{
closed = 1;
nodes = (
"182 0 LINE",
"373 283 LINE",
"557 0 LINE",
"673 0 LINE",
"431 351 LINE",
"661 686 LINE",
"551 686 LINE",
"377 424 LINE",
"201 686 LINE",
"85 686 LINE",
"317 351 LINE",
"70 0 LINE"
);
}
);
width = 743;
}
);
note = X;
unicode = 0058;
},
{
glyphname = Y;
lastChange = "2019-03-09 00:04:35 +0000";
layers = (
{
layerId = "994FE389-9D54-4FAA-B055-C46A67020E78";
paths = (
{
closed = 1;
nodes = (
"402 0 LINE",
"402 262 LINE",
"648 649 LINE",
"544 649 LINE",
"359 337 LINE",
"173 649 LINE",
"70 649 LINE",
"314 262 LINE",
"314 0 LINE"
);
}
);
width = 718;
}
);
note = Y;
unicode = 0059;
},
{
glyphname = Z;
lastChange = "2019-03-09 00:04:35 +0000";
layers = (
{
layerId = "994FE389-9D54-4FAA-B055-C46A67020E78";
paths = (
{
closed = 1;
nodes = (
"606 1 LINE",
"606 83 LINE",
"186 83 LINE",
"606 602 LINE",
"606 681 LINE",
"100 681 LINE",
"100 600 LINE",
"487 600 LINE",
"70 78 LINE",
"70 1 LINE"
);
}
);
width = 676;
}
);
note = Z;
unicode = 005A;
},
{
glyphname = a;
lastChange = "2019-03-09 00:04:35 +0000";
layers = (
{
layerId = "994FE389-9D54-4FAA-B055-C46A67020E78";
paths = (
{
closed = 1;
nodes = (
"273 -11 OFFCURVE",
"308 -1 OFFCURVE",
"344 17 CURVE SMOOTH",
"359 25 OFFCURVE",
"404 53 OFFCURVE",
"419 76 CURVE",
"422 56 OFFCURVE",
"428 40 OFFCURVE",
"435 29 CURVE SMOOTH",
"449 8 OFFCURVE",
"470 -3 OFFCURVE",
"500 -3 CURVE SMOOTH",
"513 -3 OFFCURVE",
"522 -3 OFFCURVE",
"529 -2 CURVE SMOOTH",
"536 -1 OFFCURVE",
"549 1 OFFCURVE",
"561 6 CURVE",
"561 70 LINE",
"545 67 LINE SMOOTH",
"540 66 OFFCURVE",
"537 66 OFFCURVE",
"533 66 CURVE SMOOTH",
"520 66 OFFCURVE",
"512 70 OFFCURVE",
"507 75 CURVE SMOOTH",
"501 81 OFFCURVE",
"502 87 OFFCURVE",
"502 96 CURVE SMOOTH",
"502 395 LINE SMOOTH",
"502 446 OFFCURVE",
"485 483 OFFCURVE",
"446 505 CURVE SMOOTH",
"408 526 OFFCURVE",
"359 541 OFFCURVE",
"298 541 CURVE SMOOTH",
"243 541 OFFCURVE",
"198 526 OFFCURVE",
"158 502 CURVE SMOOTH",
"118 478 OFFCURVE",
"97 433 OFFCURVE",
"95 369 CURVE",
"177 369 LINE",
"180 394 OFFCURVE",
"187 415 OFFCURVE",
"198 429 CURVE SMOOTH",
"217 454 OFFCURVE",
"248 466 OFFCURVE",
"296 466 CURVE SMOOTH",
"335 466 OFFCURVE",
"365 459 OFFCURVE",
"387 446 CURVE",
"408 435 OFFCURVE",
"418 410 OFFCURVE",
"418 382 CURVE SMOOTH",
"418 368 OFFCURVE",
"415 356 OFFCURVE",
"411 348 CURVE",
"407 331 OFFCURVE",
"393 324 OFFCURVE",
"373 321 CURVE SMOOTH",
"233 303 LINE SMOOTH",
"193 298 OFFCURVE",
"152 292 OFFCURVE",
"114 256 CURVE SMOOTH",
"86 230 OFFCURVE",
"70 196 OFFCURVE",
"70 142 CURVE SMOOTH",
"70 100 OFFCURVE",
"84 62 OFFCURVE",
"115 36 CURVE",
"148 6 OFFCURVE",
"185 -11 OFFCURVE",
"234 -11 CURVE SMOOTH"
);
},
{
closed = 1;
nodes = (
"229 64 OFFCURVE",
"207 70 OFFCURVE",
"188 86 CURVE SMOOTH",
"169 101 OFFCURVE",
"159 120 OFFCURVE",
"159 145 CURVE SMOOTH",
"159 179 OFFCURVE",
"175 203 OFFCURVE",
"201 216 CURVE",
"217 225 OFFCURVE",
"241 232 OFFCURVE",
"271 237 CURVE SMOOTH",
"327 246 LINE",
"341 247 OFFCURVE",
"358 251 OFFCURVE",
"375 255 CURVE",
"392 258 OFFCURVE",
"407 265 OFFCURVE",
"415 273 CURVE",
"415 203 LINE SMOOTH",
"415 147 OFFCURVE",
"391 111 OFFCURVE",
"343 85 CURVE SMOOTH",
"316 70 OFFCURVE",
"285 64 OFFCURVE",
"253 64 CURVE SMOOTH"
);
}
);
width = 631;
}
);
note = a;
unicode = 0061;
},
{
glyphname = b;
lastChange = "2019-03-09 00:04:35 +0000";
layers = (
{
layerId = "994FE389-9D54-4FAA-B055-C46A67020E78";
paths = (
{
closed = 1;
nodes = (
"381 -16 OFFCURVE",
"436 10 OFFCURVE",
"476 67 CURVE SMOOTH",
"514 123 OFFCURVE",
"536 190 OFFCURVE",
"536 274 CURVE SMOOTH",
"536 366 OFFCURVE",
"516 433 OFFCURVE",
"476 475 CURVE SMOOTH",
"433 520 OFFCURVE",
"380 542 OFFCURVE",
"316 542 CURVE SMOOTH",
"285 542 OFFCURVE",
"255 535 OFFCURVE",
"227 522 CURVE SMOOTH",
"200 509 OFFCURVE",
"176 491 OFFCURVE",
"158 465 CURVE",
"158 727 LINE",
"70 727 LINE",
"70 0 LINE",
"152 0 LINE",
"152 69 LINE",
"172 43 OFFCURVE",
"190 24 OFFCURVE",
"206 12 CURVE",
"235 -8 OFFCURVE",
"268 -16 OFFCURVE",
"309 -16 CURVE SMOOTH"
);
},
{
closed = 1;
nodes = (
"239 63 OFFCURVE",
"195 91 OFFCURVE",
"171 148 CURVE SMOOTH",
"158 179 OFFCURVE",
"152 219 OFFCURVE",
"152 270 CURVE SMOOTH",
"152 338 OFFCURVE",
"169 387 OFFCURVE",
"198 418 CURVE SMOOTH",
"228 450 OFFCURVE",
"265 464 OFFCURVE",
"306 464 CURVE SMOOTH",
"353 464 OFFCURVE",
"387 446 OFFCURVE",
"412 408 CURVE SMOOTH",
"436 372 OFFCURVE",
"446 326 OFFCURVE",
"446 270 CURVE SMOOTH",
"446 207 OFFCURVE",
"435 156 OFFCURVE",
"412 117 CURVE SMOOTH",
"389 79 OFFCURVE",
"352 63 OFFCURVE",
"304 63 CURVE SMOOTH"
);
}
);
width = 606;
}
);
leftKerningGroup = b;
note = b;
rightKerningGroup = o;
unicode = 0062;
},
{
glyphname = c;
lastChange = "2019-03-09 00:04:35 +0000";
layers = (
{
layerId = "994FE389-9D54-4FAA-B055-C46A67020E78";
paths = (
{
closed = 1;
nodes = (
"355 -9 OFFCURVE",
"404 6 OFFCURVE",
"442 38 CURVE SMOOTH",
"481 71 OFFCURVE",
"506 120 OFFCURVE",
"515 190 CURVE",
"430 190 LINE",
"422 152 OFFCURVE",
"406 121 OFFCURVE",
"386 99 CURVE SMOOTH",
"365 76 OFFCURVE",
"335 66 OFFCURVE",
"300 66 CURVE SMOOTH",
"258 66 OFFCURVE",
"217 81 OFFCURVE",
"195 118 CURVE SMOOTH",
"175 151 OFFCURVE",
"162 197 OFFCURVE",
"162 250 CURVE SMOOTH",
"162 302 OFFCURVE",
"171 346 OFFCURVE",
"186 381 CURVE SMOOTH",
"211 436 OFFCURVE",
"250 463 OFFCURVE",
"305 463 CURVE SMOOTH",
"345 463 OFFCURVE",
"375 451 OFFCURVE",
"395 430 CURVE SMOOTH",
"414 410 OFFCURVE",
"425 383 OFFCURVE",
"430 351 CURVE",
"515 351 LINE",
"508 421 OFFCURVE",
"484 469 OFFCURVE",
"448 499 CURVE SMOOTH",
"415 528 OFFCURVE",
"365 540 OFFCURVE",
"305 540 CURVE SMOOTH",
"239 540 OFFCURVE",
"181 517 OFFCURVE",
"135 466 CURVE SMOOTH",
"92 418 OFFCURVE",
"70 346 OFFCURVE",
"70 251 CURVE SMOOTH",
"70 176 OFFCURVE",
"89 114 OFFCURVE",
"130 66 CURVE SMOOTH",
"171 17 OFFCURVE",
"226 -9 OFFCURVE",
"294 -9 CURVE SMOOTH"
);
}
);
width = 585;
}
);
leftKerningGroup = o;
note = c;
rightKerningGroup = o;
unicode = 0063;
},
{
glyphname = d;
lastChange = "2019-03-09 00:04:35 +0000";
layers = (
{
layerId = "994FE389-9D54-4FAA-B055-C46A67020E78";
paths = (
{
closed = 1;
nodes = (
"325 -17 OFFCURVE",
"357 -12 OFFCURVE",
"385 5 CURVE",
"413 20 OFFCURVE",
"436 42 OFFCURVE",
"459 76 CURVE",
"459 0 LINE",
"537 0 LINE",
"537 726 LINE",
"452 726 LINE",
"452 460 LINE",
"436 479 OFFCURVE",
"416 500 OFFCURVE",
"398 513 CURVE SMOOTH",
"374 531 OFFCURVE",
"334 536 OFFCURVE",
"296 536 CURVE SMOOTH",
"225 536 OFFCURVE",
"170 510 OFFCURVE",
"130 454 CURVE SMOOTH",
"89 396 OFFCURVE",
"70 332 OFFCURVE",
"70 255 CURVE SMOOTH",
"70 173 OFFCURVE",
"94 106 OFFCURVE",
"135 57 CURVE SMOOTH",
"177 7 OFFCURVE",
"229 -17 OFFCURVE",
"287 -17 CURVE SMOOTH"
);
},
{
closed = 1;
nodes = (
"262 60 OFFCURVE",
"223 79 OFFCURVE",
"201 117 CURVE SMOOTH",
"178 157 OFFCURVE",
"163 203 OFFCURVE",
"163 259 CURVE SMOOTH",
"163 324 OFFCURVE",
"178 376 OFFCURVE",
"204 409 CURVE SMOOTH",
"233 446 OFFCURVE",
"270 460 OFFCURVE",
"315 460 CURVE SMOOTH",
"354 460 OFFCURVE",
"386 444 OFFCURVE",
"414 413 CURVE SMOOTH",
"443 381 OFFCURVE",
"456 332 OFFCURVE",
"456 265 CURVE SMOOTH",
"456 200 OFFCURVE",
"441 148 OFFCURVE",
"416 114 CURVE SMOOTH",
"390 77 OFFCURVE",
"356 60 OFFCURVE",
"315 60 CURVE SMOOTH"
);
}
);
width = 607;
}
);
leftKerningGroup = o;
note = d;
rightKerningGroup = d;
unicode = 0064;
},
{
glyphname = e;
lastChange = "2019-03-09 00:04:35 +0000";
layers = (
{
layerId = "994FE389-9D54-4FAA-B055-C46A67020E78";
paths = (
{
closed = 1;
nodes = (
"326 -9 OFFCURVE",
"349 -7 OFFCURVE",
"372 -2 CURVE SMOOTH",
"410 7 OFFCURVE",
"442 24 OFFCURVE",
"469 50 CURVE",
"484 66 OFFCURVE",
"499 84 OFFCURVE",
"511 106 CURVE SMOOTH",
"524 130 OFFCURVE",
"531 152 OFFCURVE",
"533 172 CURVE",
"448 172 LINE",
"442 148 OFFCURVE",
"431 127 OFFCURVE",
"416 110 CURVE SMOOTH",
"389 80 OFFCURVE",
"352 66 OFFCURVE",
"307 66 CURVE SMOOTH",
"259 66 OFFCURVE",
"222 82 OFFCURVE",
"200 113 CURVE SMOOTH",
"175 147 OFFCURVE",
"163 187 OFFCURVE",
"162 240 CURVE",
"540 240 LINE",
"540 291 OFFCURVE",
"538 329 OFFCURVE",
"532 353 CURVE",
"527 387 OFFCURVE",
"517 418 OFFCURVE",
"499 444 CURVE SMOOTH",
"480 472 OFFCURVE",
"455 495 OFFCURVE",
"420 511 CURVE SMOOTH",
"386 527 OFFCURVE",
"349 536 OFFCURVE",
"313 536 CURVE SMOOTH",
"240 536 OFFCURVE",
"182 511 OFFCURVE",
"137 459 CURVE SMOOTH",
"92 408 OFFCURVE",
"70 339 OFFCURVE",
"70 257 CURVE SMOOTH",
"70 173 OFFCURVE",
"92 106 OFFCURVE",
"136 61 CURVE SMOOTH",
"181 14 OFFCURVE",
"236 -9 OFFCURVE",
"300 -9 CURVE SMOOTH"
);
},
{
closed = 1;
nodes = (
"166 353 OFFCURVE",
"181 388 OFFCURVE",
"209 418 CURVE SMOOTH",
"236 447 OFFCURVE",
"268 460 OFFCURVE",
"308 460 CURVE SMOOTH",
"365 460 OFFCURVE",
"407 438 OFFCURVE",
"428 399 CURVE SMOOTH",
"439 378 OFFCURVE",
"448 347 OFFCURVE",
"452 309 CURVE",
"164 309 LINE"
);
}
);
width = 610;
}
);
leftKerningGroup = o;
note = e;
rightKerningGroup = o;
unicode = 0065;
},
{
glyphname = f;
lastChange = "2019-03-09 00:04:35 +0000";
layers = (
{
layerId = "994FE389-9D54-4FAA-B055-C46A67020E78";
paths = (
{
closed = 1;
nodes = (
"229 0 LINE",
"229 448 LINE",
"318 448 LINE",
"318 518 LINE",
"230 518 LINE",
"230 575 OFFCURVE",
"232 608 OFFCURVE",
"239 624 CURVE",
"247 639 OFFCURVE",
"259 646 OFFCURVE",
"286 646 CURVE SMOOTH",
"297 646 LINE SMOOTH",
"302 646 OFFCURVE",
"309 645 OFFCURVE",
"318 644 CURVE",
"318 724 LINE",
"309 725 OFFCURVE",
"303 724 OFFCURVE",
"297 726 CURVE",
"291 727 OFFCURVE",
"286 726 OFFCURVE",
"279 726 CURVE SMOOTH",
"221 726 OFFCURVE",
"182 710 OFFCURVE",
"162 680 CURVE SMOOTH",
"151 664 OFFCURVE",
"145 637 OFFCURVE",
"143 599 CURVE",
"143 518 LINE",
"70 518 LINE",
"70 448 LINE",
"143 448 LINE",
"143 0 LINE"
);
}
);
width = 388;
}
);
note = f;
unicode = 0066;
},
{
glyphname = g;
lastChange = "2019-03-09 00:04:35 +0000";
layers = (
{
layerId = "994FE389-9D54-4FAA-B055-C46A67020E78";
paths = (
{
closed = 1;
nodes = (
"385 -189 OFFCURVE",
"450 -154 OFFCURVE",
"486 -84 CURVE SMOOTH",
"514 -30 OFFCURVE",
"514 25 OFFCURVE",
"514 66 CURVE SMOOTH",
"514 527 LINE",
"436 527 LINE",
"436 465 LINE",
"418 485 OFFCURVE",
"404 504 OFFCURVE",
"388 514 CURVE SMOOTH",
"358 533 OFFCURVE",
"322 541 OFFCURVE",
"284 541 CURVE SMOOTH",
"225 541 OFFCURVE",
"174 518 OFFCURVE",
"134 471 CURVE SMOOTH",
"94 423 OFFCURVE",
"70 356 OFFCURVE",
"70 272 CURVE SMOOTH",
"70 181 OFFCURVE",
"91 120 OFFCURVE",
"134 78 CURVE SMOOTH",
"174 38 OFFCURVE",
"222 19 OFFCURVE",
"276 19 CURVE SMOOTH",
"316 19 OFFCURVE",
"348 26 OFFCURVE",
"370 39 CURVE SMOOTH",
"393 53 OFFCURVE",
"416 72 OFFCURVE",
"434 98 CURVE",
"435 26 OFFCURVE",
"428 -21 OFFCURVE",
"417 -48 CURVE SMOOTH",
"398 -94 OFFCURVE",
"354 -119 OFFCURVE",
"286 -119 CURVE SMOOTH",
"247 -119 OFFCURVE",
"216 -110 OFFCURVE",
"196 -88 CURVE",
"185 -77 OFFCURVE",
"178 -60 OFFCURVE",
"173 -35 CURVE",
"87 -35 LINE",
"90 -88 OFFCURVE",
"112 -129 OFFCURVE",
"148 -152 CURVE SMOOTH",
"185 -175 OFFCURVE",
"229 -189 OFFCURVE",
"286 -189 CURVE SMOOTH"
);
},
{
closed = 1;
nodes = (
"247 90 OFFCURVE",
"215 104 OFFCURVE",
"193 133 CURVE SMOOTH",
"171 163 OFFCURVE",
"156 204 OFFCURVE",
"156 266 CURVE SMOOTH",
"156 313 OFFCURVE",
"163 353 OFFCURVE",
"176 382 CURVE SMOOTH",
"200 436 OFFCURVE",
"239 468 OFFCURVE",
"298 468 CURVE SMOOTH",
"337 468 OFFCURVE",
"369 451 OFFCURVE",
"398 421 CURVE SMOOTH",
"426 392 OFFCURVE",
"436 345 OFFCURVE",
"436 283 CURVE SMOOTH",
"436 241 OFFCURVE",
"429 203 OFFCURVE",
"416 172 CURVE SMOOTH",
"393 115 OFFCURVE",
"347 90 OFFCURVE",
"286 90 CURVE SMOOTH"
);
}
);
width = 584;
}
);
leftKerningGroup = o;
note = g;
unicode = 0067;
},
{
glyphname = h;
lastChange = "2019-03-09 00:04:35 +0000";
layers = (
{
layerId = "994FE389-9D54-4FAA-B055-C46A67020E78";
paths = (
{
closed = 1;
nodes = (
"158 1 LINE",
"158 280 LINE SMOOTH",
"158 352 OFFCURVE",
"173 398 OFFCURVE",
"204 423 CURVE SMOOTH",
"234 446 OFFCURVE",
"265 461 OFFCURVE",
"303 461 CURVE SMOOTH",
"347 461 OFFCURVE",
"380 445 OFFCURVE",
"394 417 CURVE SMOOTH",
"404 398 OFFCURVE",
"409 372 OFFCURVE",
"409 334 CURVE SMOOTH",
"409 1 LINE",
"499 1 LINE",
"499 339 LINE SMOOTH",
"499 380 OFFCURVE",
"495 425 OFFCURVE",
"477 460 CURVE SMOOTH",
"448 516 OFFCURVE",
"397 540 OFFCURVE",
"322 540 CURVE SMOOTH",
"279 540 OFFCURVE",
"244 530 OFFCURVE",
"214 514 CURVE SMOOTH",
"198 505 OFFCURVE",
"179 483 OFFCURVE",
"158 456 CURVE",
"158 727 LINE",
"70 727 LINE",
"70 1 LINE"
);
}
);
width = 569;
}
);
note = h;
unicode = 0068;
},
{
glyphname = i;
lastChange = "2019-03-09 00:04:35 +0000";
layers = (
{
layerId = "994FE389-9D54-4FAA-B055-C46A67020E78";
paths = (
{
closed = 1;
nodes = (
"160 -1 LINE",
"160 526 LINE",
"70 526 LINE",
"70 -1 LINE"
);
},
{
closed = 1;
nodes = (
"160 626 LINE",
"160 727 LINE",
"70 727 LINE",
"70 626 LINE"
);
}
);
width = 230;
}
);
leftKerningGroup = b;
note = i;
rightKerningGroup = b;
unicode = 0069;
},
{
glyphname = j;
lastChange = "2019-03-09 00:04:35 +0000";
layers = (
{
layerId = "994FE389-9D54-4FAA-B055-C46A67020E78";
paths = (
{
closed = 1;
nodes = (
"161 -182 OFFCURVE",
"199 -165 OFFCURVE",
"219 -134 CURVE SMOOTH",
"231 -114 OFFCURVE",
"238 -89 OFFCURVE",
"238 -50 CURVE SMOOTH",
"238 535 LINE",
"151 535 LINE",
"151 -42 LINE SMOOTH",
"151 -72 OFFCURVE",
"148 -89 OFFCURVE",
"140 -94 CURVE",
"132 -100 OFFCURVE",
"109 -104 OFFCURVE",
"70 -104 CURVE",
"70 -179 LINE",
"80 -180 OFFCURVE",
"88 -181 OFFCURVE",
"92 -181 CURVE SMOOTH",
"98 -181 OFFCURVE",
"102 -182 OFFCURVE",
"106 -182 CURVE SMOOTH"
);
},
{
closed = 1;
nodes = (
"238 627 LINE",
"238 727 LINE",
"151 727 LINE",
"151 627 LINE"
);
}
);
width = 308;
}
);
note = j;
unicode = 006A;
},
{
glyphname = k;
lastChange = "2019-03-09 00:04:35 +0000";
layers = (
{
layerId = "994FE389-9D54-4FAA-B055-C46A67020E78";
paths = (
{
closed = 1;
nodes = (
"156 0 LINE",
"156 199 LINE",
"231 268 LINE",
"395 0 LINE",
"509 0 LINE",
"295 332 LINE",
"498 530 LINE",
"385 530 LINE",
"156 305 LINE",
"156 727 LINE",
"70 727 LINE",
"70 0 LINE"
);
}
);
width = 579;
}
);
note = k;
rightKerningGroup = k;
unicode = 006B;
},
{
glyphname = l;
lastChange = "2019-03-09 00:04:35 +0000";
layers = (
{
layerId = "994FE389-9D54-4FAA-B055-C46A67020E78";
paths = (
{
closed = 1;
nodes = (
"159 0 LINE",
"159 722 LINE",
"70 722 LINE",
"70 0 LINE"
);
}
);
width = 229;
}
);
leftKerningGroup = b;
note = l;
unicode = 006C;
},
{
glyphname = m;
lastChange = "2019-03-09 00:04:35 +0000";
layers = (
{
layerId = "994FE389-9D54-4FAA-B055-C46A67020E78";
paths = (
{
closed = 1;
nodes = (
"158 0 LINE",
"158 279 LINE SMOOTH",
"158 347 OFFCURVE",
"173 394 OFFCURVE",
"200 420 CURVE SMOOTH",
"227 446 OFFCURVE",
"257 459 OFFCURVE",
"291 459 CURVE SMOOTH",
"327 459 OFFCURVE",
"353 446 OFFCURVE",
"366 422 CURVE SMOOTH",
"375 406 OFFCURVE",
"379 379 OFFCURVE",
"379 344 CURVE SMOOTH",
"379 0 LINE",
"469 0 LINE",
"469 306 LINE SMOOTH",
"469 361 OFFCURVE",
"481 400 OFFCURVE",
"506 423 CURVE SMOOTH",
"532 446 OFFCURVE",
"561 458 OFFCURVE",
"596 458 CURVE SMOOTH",
"621 458 OFFCURVE",
"643 451 OFFCURVE",
"660 438 CURVE",
"677 426 OFFCURVE",
"686 401 OFFCURVE",
"686 366 CURVE SMOOTH",
"686 0 LINE",
"778 0 LINE",
"778 351 LINE SMOOTH",
"778 397 OFFCURVE",
"772 435 OFFCURVE",
"757 462 CURVE SMOOTH",
"729 514 OFFCURVE",
"683 538 OFFCURVE",
"613 538 CURVE SMOOTH",
"580 538 OFFCURVE",
"550 532 OFFCURVE",
"524 518 CURVE",
"497 505 OFFCURVE",
"474 484 OFFCURVE",
"454 456 CURVE",
"443 478 OFFCURVE",
"430 496 OFFCURVE",
"415 507 CURVE",
"390 528 OFFCURVE",
"355 538 OFFCURVE",
"314 538 CURVE SMOOTH",
"277 538 OFFCURVE",
"244 528 OFFCURVE",
"214 508 CURVE SMOOTH",
"198 497 OFFCURVE",
"181 481 OFFCURVE",
"157 452 CURVE",
"157 526 LINE",
"70 526 LINE",
"70 0 LINE"
);
}
);
width = 848;
}
);
note = m;
unicode = 006D;
},
{
glyphname = n;
lastChange = "2019-03-09 00:04:35 +0000";
layers = (
{
layerId = "994FE389-9D54-4FAA-B055-C46A67020E78";
paths = (
{
closed = 1;
nodes = (
"158 0 LINE",
"158 276 LINE SMOOTH",
"158 310 OFFCURVE",
"161 337 OFFCURVE",
"165 356 CURVE",
"170 374 OFFCURVE",
"179 392 OFFCURVE",
"194 409 CURVE SMOOTH",
"213 431 OFFCURVE",
"234 446 OFFCURVE",
"258 453 CURVE",
"271 456 OFFCURVE",
"288 459 OFFCURVE",
"309 459 CURVE SMOOTH",
"351 459 OFFCURVE",
"378 443 OFFCURVE",
"394 410 CURVE SMOOTH",
"404 390 OFFCURVE",
"409 365 OFFCURVE",
"409 332 CURVE SMOOTH",
"409 0 LINE",
"499 0 LINE",
"499 338 LINE SMOOTH",
"499 389 OFFCURVE",
"493 429 OFFCURVE",
"477 460 CURVE SMOOTH",
"450 513 OFFCURVE",
"401 538 OFFCURVE",
"326 538 CURVE SMOOTH",
"292 538 OFFCURVE",
"261 532 OFFCURVE",
"234 518 CURVE",
"205 505 OFFCURVE",
"179 483 OFFCURVE",
"154 452 CURVE",
"154 526 LINE",
"70 526 LINE",
"70 0 LINE"
);
}
);
width = 569;
}
);
note = n;
unicode = 006E;
},
{
glyphname = o;
lastChange = "2019-03-09 00:04:35 +0000";
layers = (
{
layerId = "994FE389-9D54-4FAA-B055-C46A67020E78";
paths = (
{
closed = 1;
nodes = (
"392 -18 OFFCURVE",
"457 10 OFFCURVE",
"499 67 CURVE SMOOTH",
"539 120 OFFCURVE",
"560 193 OFFCURVE",
"560 276 CURVE SMOOTH",
"560 366 OFFCURVE",
"534 433 OFFCURVE",
"490 475 CURVE SMOOTH",
"444 519 OFFCURVE",
"385 543 OFFCURVE",
"318 543 CURVE SMOOTH",
"245 543 OFFCURVE",
"182 517 OFFCURVE",
"137 465 CURVE SMOOTH",
"91 412 OFFCURVE",
"70 337 OFFCURVE",
"70 253 CURVE SMOOTH",
"70 170 OFFCURVE",
"91 105 OFFCURVE",
"133 56 CURVE SMOOTH",
"176 6 OFFCURVE",
"233 -18 OFFCURVE",
"306 -18 CURVE SMOOTH"
);
},
{
closed = 1;
nodes = (
"261 58 OFFCURVE",
"222 77 OFFCURVE",
"197 115 CURVE SMOOTH",
"172 152 OFFCURVE",
"161 198 OFFCURVE",
"161 255 CURVE SMOOTH",
"161 313 OFFCURVE",
"172 363 OFFCURVE",
"197 404 CURVE SMOOTH",
"222 445 OFFCURVE",
"262 466 OFFCURVE",
"315 466 CURVE SMOOTH",
"376 466 OFFCURVE",
"419 441 OFFCURVE",
"444 393 CURVE SMOOTH",
"461 362 OFFCURVE",
"468 322 OFFCURVE",
"468 273 CURVE SMOOTH",
"468 218 OFFCURVE",
"457 169 OFFCURVE",
"435 125 CURVE SMOOTH",
"413 80 OFFCURVE",
"372 58 OFFCURVE",
"314 58 CURVE SMOOTH"
);
}
);
width = 630;
}
);
leftKerningGroup = o;
note = o;
unicode = 006F;
},
{
glyphname = p;
lastChange = "2019-03-09 00:04:35 +0000";
layers = (
{
layerId = "994FE389-9D54-4FAA-B055-C46A67020E78";
paths = (
{
closed = 1;
nodes = (
"156 -182 LINE",
"156 77 LINE",
"175 56 OFFCURVE",
"191 38 OFFCURVE",
"207 30 CURVE SMOOTH",
"233 16 OFFCURVE",
"265 4 OFFCURVE",
"303 4 CURVE SMOOTH",
"351 4 OFFCURVE",
"395 20 OFFCURVE",
"431 49 CURVE SMOOTH",
"489 96 OFFCURVE",
"517 176 OFFCURVE",
"517 286 CURVE SMOOTH",
"517 369 OFFCURVE",
"497 432 OFFCURVE",
"457 476 CURVE SMOOTH",
"417 521 OFFCURVE",
"368 542 OFFCURVE",
"311 542 CURVE SMOOTH",
"271 542 OFFCURVE",
"238 533 OFFCURVE",
"209 515 CURVE SMOOTH",
"188 502 OFFCURVE",
"171 483 OFFCURVE",
"153 461 CURVE",
"153 528 LINE",
"70 528 LINE",
"70 -182 LINE"
);
},
{
closed = 1;
nodes = (
"233 78 OFFCURVE",
"190 106 OFFCURVE",
"169 157 CURVE SMOOTH",
"158 185 OFFCURVE",
"152 219 OFFCURVE",
"152 258 CURVE SMOOTH",
"152 306 OFFCURVE",
"158 347 OFFCURVE",
"169 378 CURVE SMOOTH",
"190 437 OFFCURVE",
"233 467 OFFCURVE",
"291 467 CURVE SMOOTH",
"350 467 OFFCURVE",
"390 439 OFFCURVE",
"413 383 CURVE SMOOTH",
"425 354 OFFCURVE",
"431 318 OFFCURVE",
"431 278 CURVE SMOOTH",
"431 213 OFFCURVE",
"417 163 OFFCURVE",
"391 129 CURVE SMOOTH",
"365 96 OFFCURVE",
"331 78 OFFCURVE",
"291 78 CURVE SMOOTH"
);
}
);
width = 587;
}
);
leftKerningGroup = b;
note = p;
rightKerningGroup = o;
unicode = 0070;
},
{
glyphname = q;
lastChange = "2019-03-09 00:04:35 +0000";
layers = (
{
layerId = "994FE389-9D54-4FAA-B055-C46A67020E78";
paths = (
{
closed = 1;
nodes = (
"521 -182 LINE",
"521 531 LINE",
"440 531 LINE",
"440 461 LINE",
"425 483 OFFCURVE",
"409 499 OFFCURVE",
"394 511 CURVE SMOOTH",
"365 533 OFFCURVE",
"329 543 OFFCURVE",
"287 543 CURVE SMOOTH",
"223 543 OFFCURVE",
"170 516 OFFCURVE",
"131 465 CURVE SMOOTH",
"92 413 OFFCURVE",
"70 346 OFFCURVE",
"70 263 CURVE SMOOTH",
"70 176 OFFCURVE",
"92 112 OFFCURVE",
"135 69 CURVE SMOOTH",
"178 26 OFFCURVE",
"226 6 OFFCURVE",
"281 6 CURVE SMOOTH",
"319 6 OFFCURVE",
"350 13 OFFCURVE",
"375 26 CURVE",
"401 38 OFFCURVE",
"420 57 OFFCURVE",
"435 80 CURVE",
"435 -182 LINE"
);
},
{
closed = 1;
nodes = (
"239 79 OFFCURVE",
"199 106 OFFCURVE",
"178 159 CURVE SMOOTH",
"166 189 OFFCURVE",
"160 226 OFFCURVE",
"160 269 CURVE SMOOTH",
"160 336 OFFCURVE",
"175 386 OFFCURVE",
"200 418 CURVE SMOOTH",
"226 452 OFFCURVE",
"258 466 OFFCURVE",
"295 466 CURVE SMOOTH",
"354 466 OFFCURVE",
"395 442 OFFCURVE",
"417 391 CURVE SMOOTH",
"430 362 OFFCURVE",
"439 325 OFFCURVE",
"439 281 CURVE SMOOTH",
"439 234 OFFCURVE",
"434 199 OFFCURVE",
"419 164 CURVE SMOOTH",
"395 107 OFFCURVE",
"355 79 OFFCURVE",
"295 79 CURVE SMOOTH"
);
}
);
width = 591;
}
);
leftKerningGroup = o;
note = q;
unicode = 0071;
},
{
glyphname = r;
lastChange = "2019-03-09 00:04:35 +0000";
layers = (
{
layerId = "994FE389-9D54-4FAA-B055-C46A67020E78";
paths = (
{
closed = 1;
nodes = (
"158 0 LINE",
"158 305 LINE SMOOTH",
"158 342 OFFCURVE",
"170 376 OFFCURVE",
"194 404 CURVE SMOOTH",
"219 432 OFFCURVE",
"253 448 OFFCURVE",
"298 448 CURVE",
"312 447 LINE",
"316 447 OFFCURVE",
"321 446 OFFCURVE",
"327 446 CURVE",
"327 539 LINE",
"317 540 OFFCURVE",
"311 540 OFFCURVE",
"306 541 CURVE",
"302 542 OFFCURVE",
"300 541 OFFCURVE",
"298 541 CURVE SMOOTH",
"263 541 OFFCURVE",
"231 528 OFFCURVE",
"204 503 CURVE SMOOTH",
"185 485 OFFCURVE",
"161 456 OFFCURVE",
"153 437 CURVE",
"153 529 LINE",
"70 529 LINE",
"70 0 LINE"
);
}
);
width = 397;
}
);
note = r;
unicode = 0072;
},
{
glyphname = s;
lastChange = "2019-03-09 00:04:35 +0000";
layers = (
{
layerId = "994FE389-9D54-4FAA-B055-C46A67020E78";
paths = (
{
closed = 1;
nodes = (
"356 -9 OFFCURVE",
"408 8 OFFCURVE",
"444 40 CURVE SMOOTH",
"481 73 OFFCURVE",
"495 115 OFFCURVE",
"495 160 CURVE SMOOTH",
"495 208 OFFCURVE",
"479 242 OFFCURVE",
"446 265 CURVE",
"424 279 OFFCURVE",
"383 290 OFFCURVE",
"319 307 CURVE SMOOTH",
"263 322 LINE SMOOTH",
"237 329 OFFCURVE",
"229 331 OFFCURVE",
"207 344 CURVE",
"184 358 OFFCURVE",
"173 376 OFFCURVE",
"173 396 CURVE SMOOTH",
"173 417 OFFCURVE",
"181 435 OFFCURVE",
"198 447 CURVE SMOOTH",
"216 460 OFFCURVE",
"239 466 OFFCURVE",
"273 466 CURVE SMOOTH",
"321 466 OFFCURVE",
"356 455 OFFCURVE",
"377 432 CURVE",
"388 416 OFFCURVE",
"396 397 OFFCURVE",
"398 379 CURVE",
"479 379 LINE",
"480 411 OFFCURVE",
"469 443 OFFCURVE",
"447 474 CURVE SMOOTH",
"414 519 OFFCURVE",
"357 540 OFFCURVE",
"279 540 CURVE SMOOTH",
"218 540 OFFCURVE",
"172 525 OFFCURVE",
"137 495 CURVE SMOOTH",
"102 466 OFFCURVE",
"85 425 OFFCURVE",
"85 377 CURVE SMOOTH",
"85 335 OFFCURVE",
"104 303 OFFCURVE",
"139 279 CURVE SMOOTH",
"160 265 OFFCURVE",
"198 252 OFFCURVE",
"238 242 CURVE SMOOTH",
"308 225 LINE SMOOTH",
"353 214 OFFCURVE",
"364 208 OFFCURVE",
"381 201 CURVE",
"401 189 OFFCURVE",
"409 172 OFFCURVE",
"409 150 CURVE SMOOTH",
"409 121 OFFCURVE",
"398 100 OFFCURVE",
"374 86 CURVE SMOOTH",
"349 71 OFFCURVE",
"320 64 OFFCURVE",
"289 64 CURVE SMOOTH",
"234 64 OFFCURVE",
"198 78 OFFCURVE",
"175 106 CURVE SMOOTH",
"162 122 OFFCURVE",
"156 144 OFFCURVE",
"153 173 CURVE",
"70 173 LINE",
"72 121 OFFCURVE",
"89 78 OFFCURVE",
"122 43 CURVE SMOOTH",
"153 9 OFFCURVE",
"208 -9 OFFCURVE",
"285 -9 CURVE SMOOTH"
);
}
);
width = 565;
}
);
note = s;
rightKerningGroup = o;
unicode = 0073;
},
{
glyphname = t;
lastChange = "2019-03-09 00:04:35 +0000";
layers = (
{
layerId = "994FE389-9D54-4FAA-B055-C46A67020E78";
paths = (
{
closed = 1;
nodes = (
"263 -14 OFFCURVE",
"275 -13 OFFCURVE",
"289 -12 CURVE SMOOTH",
"300 -11 OFFCURVE",
"310 -7 OFFCURVE",
"318 -4 CURVE",
"318 66 LINE",
"302 66 LINE SMOOTH",
"297 66 OFFCURVE",
"292 65 OFFCURVE",
"289 65 CURVE SMOOTH",
"271 65 OFFCURVE",
"259 66 OFFCURVE",
"252 69 CURVE",
"239 76 OFFCURVE",
"235 89 OFFCURVE",
"235 108 CURVE SMOOTH",
"235 458 LINE",
"318 458 LINE",
"318 531 LINE",
"235 531 LINE",
"235 682 LINE",
"144 682 LINE",
"144 531 LINE",
"70 531 LINE",
"70 458 LINE",
"144 458 LINE",
"144 103 LINE SMOOTH",
"144 67 OFFCURVE",
"150 41 OFFCURVE",
"165 19 CURVE",
"179 -4 OFFCURVE",
"209 -14 OFFCURVE",
"250 -14 CURVE SMOOTH"
);
}
);
width = 388;
}
);
note = t;
unicode = 0074;
},
{
glyphname = u;
lastChange = "2019-03-09 00:04:35 +0000";
layers = (
{
layerId = "994FE389-9D54-4FAA-B055-C46A67020E78";
paths = (
{
closed = 1;
nodes = (
"296 -14 OFFCURVE",
"336 -1 OFFCURVE",
"372 27 CURVE SMOOTH",
"390 42 OFFCURVE",
"401 60 OFFCURVE",
"413 78 CURVE",
"413 1 LINE",
"497 1 LINE",
"497 531 LINE",
"408 531 LINE",
"408 270 LINE SMOOTH",
"408 218 OFFCURVE",
"402 177 OFFCURVE",
"389 149 CURVE SMOOTH",
"364 95 OFFCURVE",
"325 66 OFFCURVE",
"263 66 CURVE SMOOTH",
"219 66 OFFCURVE",
"192 80 OFFCURVE",
"175 113 CURVE SMOOTH",
"167 129 OFFCURVE",
"162 151 OFFCURVE",
"162 179 CURVE SMOOTH",
"162 531 LINE",
"70 531 LINE",
"70 171 LINE SMOOTH",
"70 126 OFFCURVE",
"77 88 OFFCURVE",
"93 61 CURVE SMOOTH",
"121 11 OFFCURVE",
"173 -14 OFFCURVE",
"247 -14 CURVE SMOOTH"
);
}
);
width = 567;
}
);
note = u;
unicode = 0075;
},
{
glyphname = v;
lastChange = "2019-03-09 00:04:35 +0000";
layers = (
{
layerId = "994FE389-9D54-4FAA-B055-C46A67020E78";
paths = (
{
closed = 1;
nodes = (
"360 -1 LINE",
"560 531 LINE",
"463 531 LINE",
"314 98 LINE",
"173 531 LINE",
"70 531 LINE",
"265 -1 LINE"
);
}
);
width = 630;
}
);
note = v;
unicode = 0076;
},
{
glyphname = w;
lastChange = "2019-03-09 00:04:35 +0000";
layers = (
{
layerId = "994FE389-9D54-4FAA-B055-C46A67020E78";
paths = (
{
closed = 1;
nodes = (
"315 0 LINE",
"418 409 LINE",
"527 0 LINE",
"619 0 LINE",
"772 529 LINE",
"684 529 LINE",
"576 116 LINE",
"472 529 LINE",
"371 529 LINE",
"268 113 LINE",
"167 529 LINE",
"70 529 LINE",
"223 0 LINE"
);
}
);
width = 842;
}
);
note = w;
unicode = 0077;
},
{
glyphname = x;
lastChange = "2019-03-09 00:04:35 +0000";
layers = (
{
layerId = "994FE389-9D54-4FAA-B055-C46A67020E78";
paths = (
{
closed = 1;
nodes = (
"184 1 LINE",
"311 201 LINE",
"443 1 LINE",
"559 1 LINE",
"371 274 LINE",
"550 531 LINE",
"441 533 LINE",
"318 346 LINE",
"196 533 LINE",
"80 533 LINE",
"258 274 LINE",
"70 1 LINE"
);
}
);
width = 629;
}
);
note = x;
unicode = 0078;
},
{
glyphname = y;
lastChange = "2019-03-09 00:04:35 +0000";
layers = (
{
layerId = "994FE389-9D54-4FAA-B055-C46A67020E78";
paths = (
{
closed = 1;
nodes = (
"218 -189 OFFCURVE",
"253 -175 OFFCURVE",
"273 -146 CURVE SMOOTH",
"293 -117 OFFCURVE",
"329 -38 OFFCURVE",
"378 92 CURVE SMOOTH",
"379 95 OFFCURVE",
"433 237 OFFCURVE",
"457 306 CURVE SMOOTH",
"478 367 OFFCURVE",
"526 498 OFFCURVE",
"537 531 CURVE",
"442 531 LINE",
"305 116 LINE",
"167 531 LINE",
"70 531 LINE",
"259 6 LINE",
"254 -6 OFFCURVE",
"254 -9 OFFCURVE",
"238 -47 CURVE SMOOTH",
"230 -67 OFFCURVE",
"222 -84 OFFCURVE",
"220 -86 CURVE",
"215 -94 OFFCURVE",
"209 -100 OFFCURVE",
"201 -105 CURVE",
"194 -110 OFFCURVE",
"182 -114 OFFCURVE",
"166 -114 CURVE SMOOTH",
"162 -114 OFFCURVE",
"156 -113 OFFCURVE",
"149 -112 CURVE SMOOTH",
"142 -111 OFFCURVE",
"132 -108 OFFCURVE",
"117 -104 CURVE",
"117 -182 LINE",
"140 -187 LINE",
"147 -188 OFFCURVE",
"157 -189 OFFCURVE",
"168 -189 CURVE SMOOTH"
);
}
);
width = 607;
}
);
note = y;
unicode = 0079;
},
{
glyphname = z;
lastChange = "2019-03-09 00:04:35 +0000";
layers = (
{
layerId = "994FE389-9D54-4FAA-B055-C46A67020E78";
paths = (
{
closed = 1;
nodes = (
"516 -1 LINE",
"516 79 LINE",
"193 79 LINE",
"507 458 LINE",
"507 531 LINE",
"94 531 LINE",
"94 451 LINE",
"386 451 LINE",
"70 69 LINE",
"70 -1 LINE"
);
}
);
width = 586;
}
);
note = z;
unicode = 007A;
},
{
glyphname = A_W.liga;
lastChange = "2019-03-09 00:04:35 +0000";
layers = (
{
layerId = "994FE389-9D54-4FAA-B055-C46A67020E78";
paths = (
{
closed = 1;
nodes = (
"854 0 LINE",
"1013 566 LINE",
"1171 0 LINE",
"1268 0 LINE",
"1448 684 LINE",
"1346 684 LINE",
"1217 128 LINE",
"1064 684 LINE",
"962 684 LINE",
"809 128 LINE",
"679 684 LINE",
"579 684 LINE",
"758 0 LINE"
);
},
{
closed = 1;
nodes = (
"164 0 LINE",
"238 203 LINE",
"508 203 LINE",
"577 0 LINE",
"679 0 LINE",
"431 682 LINE",
"326 682 LINE",
"70 0 LINE"
);
},
{
closed = 1;
nodes = (
"376 579 LINE",
"478 278 LINE",
"264 278 LINE"
);
}
);
width = 1518;
}
);
},
{
glyphname = W_A.liga;
lastChange = "2019-03-09 00:04:35 +0000";
layers = (
{
layerId = "994FE389-9D54-4FAA-B055-C46A67020E78";
paths = (
{
closed = 1;
nodes = (
"345 0 LINE",
"504 566 LINE",
"662 0 LINE",
"759 0 LINE",
"939 684 LINE",
"837 684 LINE",
"708 128 LINE",
"555 684 LINE",
"453 684 LINE",
"300 128 LINE",
"170 684 LINE",
"70 684 LINE",
"249 0 LINE"
);
},
{
closed = 1;
nodes = (
"943 0 LINE",
"1016 203 LINE",
"1286 203 LINE",
"1356 0 LINE",
"1457 0 LINE",
"1209 682 LINE",
"1105 682 LINE",
"848 0 LINE"
);
},
{
closed = 1;
nodes = (
"1155 579 LINE",
"1256 278 LINE",
"1043 278 LINE"
);
}
);
width = 1527;
}
);
},
{
glyphname = f_i.liga;
lastChange = "2019-03-09 18:50:08 +0000";
layers = (
{
components = (
{
name = f;
transform = "{1, 0, 0, 1, -10, 0}";
}
);
layerId = "994FE389-9D54-4FAA-B055-C46A67020E78";
paths = (
{
closed = 1;
nodes = (
"440 -1 LINE",
"440 526 LINE",
"350 526 LINE",
"350 -1 LINE"
);
},
{
closed = 1;
nodes = (
"440 626 LINE",
"440 727 LINE",
"350 727 LINE",
"350 626 LINE"
);
}
);
width = 510;
}
);
},
{
glyphname = f_l.liga;
lastChange = "2019-03-09 18:51:31 +0000";
layers = (
{
components = (
{
name = f;
transform = "{1, 0, 0, 1, -10, 0}";
}
);
layerId = "994FE389-9D54-4FAA-B055-C46A67020E78";
paths = (
{
closed = 1;
nodes = (
"437 0 LINE",
"437 722 LINE",
"348 722 LINE",
"348 0 LINE"
);
}
);
width = 507;
}
);
},
{
glyphname = "ra_xa-ethiopic.liga";
lastChange = "2019-03-09 00:04:35 +0000";
layers = (
{
layerId = "994FE389-9D54-4FAA-B055-C46A67020E78";
paths = (
{
closed = 1;
nodes = (
"800 0 LINE",
"800 439 LINE SMOOTH",
"800 531 OFFCURVE",
"800 531 OFFCURVE",
"697 531 CURVE SMOOTH",
"468 531 LINE",
"468 727 LINE",
"377 727 LINE",
"377 654 LINE",
"246 654 LINE",
"246 571 LINE",
"377 571 LINE",
"377 505 LINE SMOOTH",
"377 477 OFFCURVE",
"394 458 OFFCURVE",
"423 458 CURVE SMOOTH",
"651 458 LINE SMOOTH",
"710 458 OFFCURVE",
"710 458 OFFCURVE",
"710 278 CURVE SMOOTH",
"710 0 LINE"
);
},
{
closed = 1;
nodes = (
"498 79 LINE",
"249 78 LINE SMOOTH",
"172 78 OFFCURVE",
"156 85 OFFCURVE",
"156 212 CURVE SMOOTH",
"156 312 OFFCURVE",
"159 478 OFFCURVE",
"159 531 CURVE",
"70 531 LINE",
"70 134 LINE SMOOTH",
"70 50 OFFCURVE",
"110 0 OFFCURVE",
"162 0 CURVE SMOOTH",
"497 -1 LINE"
);
}
);
width = 870;
}
);
note = uni1280;
},
{
glyphname = "ra_xu-ethiopic.liga";
lastChange = "2019-03-09 00:04:35 +0000";
layers = (
{
layerId = "994FE389-9D54-4FAA-B055-C46A67020E78";
paths = (
{
closed = 1;
nodes = (
"755 0 LINE",
"755 246 LINE",
"854 246 LINE",
"854 346 LINE",
"755 346 LINE",
"755 439 LINE SMOOTH",
"755 531 OFFCURVE",
"755 531 OFFCURVE",
"652 531 CURVE SMOOTH",
"422 531 LINE",
"422 727 LINE",
"332 727 LINE",
"332 654 LINE",
"201 654 LINE",
"201 571 LINE",
"332 571 LINE",
"332 505 LINE SMOOTH",
"332 477 OFFCURVE",
"349 458 OFFCURVE",
"378 458 CURVE SMOOTH",
"606 458 LINE SMOOTH",
"664 458 OFFCURVE",
"664 458 OFFCURVE",
"664 278 CURVE SMOOTH",
"664 0 LINE"
);
},
{
closed = 1;
nodes = (
"498 79 LINE",
"249 78 LINE SMOOTH",
"172 78 OFFCURVE",
"156 85 OFFCURVE",
"156 212 CURVE SMOOTH",
"156 312 OFFCURVE",
"159 478 OFFCURVE",
"159 531 CURVE",
"70 531 LINE",
"70 134 LINE SMOOTH",
"70 50 OFFCURVE",
"111 0 OFFCURVE",
"162 0 CURVE SMOOTH",
"497 -1 LINE"
);
}
);
width = 924;
}
);
note = uni1281;
},
{
glyphname = "ra_xi-ethiopic.liga";
lastChange = "2019-03-09 00:04:35 +0000";
layers = (
{
layerId = "994FE389-9D54-4FAA-B055-C46A67020E78";
paths = (
{
closed = 1;
nodes = (
"865 0 LINE",
"865 100 LINE",
"765 100 LINE",
"765 439 LINE SMOOTH",
"765 531 OFFCURVE",
"765 531 OFFCURVE",
"661 531 CURVE SMOOTH",
"432 531 LINE",
"432 727 LINE",
"341 727 LINE",
"341 654 LINE",
"210 654 LINE",
"210 571 LINE",
"341 571 LINE",
"341 505 LINE SMOOTH",
"341 477 OFFCURVE",
"358 458 OFFCURVE",
"387 458 CURVE SMOOTH",
"616 458 LINE SMOOTH",
"674 458 OFFCURVE",
"674 458 OFFCURVE",
"674 278 CURVE SMOOTH",
"674 0 LINE"
);
},
{
closed = 1;
nodes = (
"498 79 LINE",
"249 78 LINE SMOOTH",
"173 78 OFFCURVE",
"156 85 OFFCURVE",
"156 212 CURVE SMOOTH",
"156 312 OFFCURVE",
"159 478 OFFCURVE",
"159 531 CURVE",
"70 531 LINE",
"70 134 LINE SMOOTH",
"70 50 OFFCURVE",
"111 0 OFFCURVE",
"163 0 CURVE SMOOTH",
"497 -1 LINE"
);
}
);
width = 935;
}
);
note = uni1282;
},
{
glyphname = "ra_xee-ethiopic.liga";
lastChange = "2019-03-09 00:04:35 +0000";
layers = (
{
layerId = "994FE389-9D54-4FAA-B055-C46A67020E78";
paths = (
{
closed = 1;
nodes = (
"851 0 LINE SMOOTH",
"897 0 OFFCURVE",
"929 16 OFFCURVE",
"947 46 CURVE SMOOTH",
"957 63 OFFCURVE",
"962 82 OFFCURVE",
"962 103 CURVE SMOOTH",
"962 131 OFFCURVE",
"954 155 OFFCURVE",
"935 170 CURVE SMOOTH",
"913 188 OFFCURVE",
"889 200 OFFCURVE",
"852 200 CURVE SMOOTH",
"841 200 LINE",
"841 439 LINE SMOOTH",
"841 531 OFFCURVE",
"841 531 OFFCURVE",
"738 531 CURVE SMOOTH",
"509 531 LINE",
"509 727 LINE",
"418 727 LINE",
"418 654 LINE",
"287 654 LINE",
"287 571 LINE",
"418 571 LINE",
"418 505 LINE SMOOTH",
"418 477 OFFCURVE",
"435 458 OFFCURVE",
"464 458 CURVE SMOOTH",
"692 458 LINE SMOOTH",
"750 458 OFFCURVE",
"750 458 OFFCURVE",
"750 278 CURVE SMOOTH",
"750 0 LINE"
);
},
{
closed = 1;
nodes = (
"498 79 LINE",
"249 78 LINE SMOOTH",
"172 78 OFFCURVE",
"156 85 OFFCURVE",
"156 212 CURVE SMOOTH",
"156 312 OFFCURVE",
"159 478 OFFCURVE",
"159 531 CURVE",
"70 531 LINE",
"70 134 LINE SMOOTH",
"70 50 OFFCURVE",
"110 0 OFFCURVE",
"162 0 CURVE SMOOTH",
"497 -1 LINE"
);
},
{
closed = 1;
nodes = (
"841 176 LINE",
"859 173 OFFCURVE",
"873 167 OFFCURVE",
"883 157 CURVE SMOOTH",
"896 144 OFFCURVE",
"901 124 OFFCURVE",
"901 99 CURVE SMOOTH",
"901 92 OFFCURVE",
"900 86 OFFCURVE",
"899 78 CURVE",
"895 65 OFFCURVE",
"890 55 OFFCURVE",
"884 46 CURVE",
"876 36 OFFCURVE",
"864 29 OFFCURVE",
"850 26 CURVE",
"847 25 OFFCURVE",
"844 25 OFFCURVE",
"841 24 CURVE"
);
}
);
width = 1032;
}
);
note = uni1284;
},
{
glyphname = "ra_xe-ethiopic.liga";
lastChange = "2019-03-09 00:04:35 +0000";
layers = (
{
layerId = "994FE389-9D54-4FAA-B055-C46A67020E78";
paths = (
{
closed = 1;
nodes = (
"822 0 LINE",
"822 439 LINE SMOOTH",
"822 531 OFFCURVE",
"822 531 OFFCURVE",
"719 531 CURVE SMOOTH",
"490 531 LINE",
"490 727 LINE",
"399 727 LINE",
"399 638 LINE",
"272 638 LINE",
"272 635 LINE",
"269 635 LINE",
"269 482 LINE",
"334 482 LINE",
"334 568 LINE SMOOTH",
"334 581 OFFCURVE",
"345 591 OFFCURVE",
"358 591 CURVE SMOOTH",
"399 591 LINE",
"399 458 LINE",
"673 458 LINE SMOOTH",
"731 458 OFFCURVE",
"731 458 OFFCURVE",
"731 278 CURVE SMOOTH",
"731 0 LINE"
);
},
{
closed = 1;
nodes = (
"498 79 LINE",
"249 78 LINE SMOOTH",
"172 78 OFFCURVE",
"156 85 OFFCURVE",
"156 212 CURVE SMOOTH",
"156 312 OFFCURVE",
"159 478 OFFCURVE",
"159 531 CURVE",
"70 531 LINE",
"70 134 LINE SMOOTH",
"70 50 OFFCURVE",
"111 0 OFFCURVE",
"162 0 CURVE SMOOTH",
"497 -1 LINE"
);
}
);
width = 892;
}
);
note = uni1285;
},
{
glyphname = "ra_xwa-ethiopic.liga";
lastChange = "2019-03-09 00:04:35 +0000";
layers = (
{
layerId = "994FE389-9D54-4FAA-B055-C46A67020E78";
paths = (
{
closed = 1;
nodes = (
"731 0 LINE",
"731 215 LINE",
"749 215 LINE SMOOTH",
"794 215 OFFCURVE",
"826 228 OFFCURVE",
"844 253 CURVE SMOOTH",
"854 266 OFFCURVE",
"860 283 OFFCURVE",
"860 300 CURVE SMOOTH",
"860 323 OFFCURVE",
"851 343 OFFCURVE",
"832 356 CURVE SMOOTH",
"810 371 OFFCURVE",
"786 380 OFFCURVE",
"750 380 CURVE SMOOTH",
"731 380 LINE",
"731 439 LINE SMOOTH",
"731 531 OFFCURVE",
"731 531 OFFCURVE",
"628 531 CURVE SMOOTH",
"517 531 LINE",
"517 727 LINE",
"426 727 LINE",
"426 605 LINE",
"344 605 LINE",
"344 531 LINE",
"426 531 LINE",
"426 458 LINE",
"582 458 LINE SMOOTH",
"640 458 OFFCURVE",
"640 458 OFFCURVE",
"640 278 CURVE SMOOTH",
"640 0 LINE"
);
},
{
closed = 1;
nodes = (
"498 79 LINE",
"249 78 LINE SMOOTH",
"172 78 OFFCURVE",
"156 85 OFFCURVE",
"156 212 CURVE SMOOTH",
"156 312 OFFCURVE",
"159 478 OFFCURVE",
"159 531 CURVE",
"70 531 LINE",
"70 134 LINE SMOOTH",
"70 50 OFFCURVE",
"110 0 OFFCURVE",
"162 0 CURVE SMOOTH",
"497 -1 LINE"
);
},
{
closed = 1;
nodes = (
"731 361 LINE",
"753 360 OFFCURVE",
"770 354 OFFCURVE",
"780 345 CURVE SMOOTH",
"793 334 OFFCURVE",
"799 316 OFFCURVE",
"799 296 CURVE SMOOTH",
"799 291 OFFCURVE",
"798 286 OFFCURVE",
"796 279 CURVE",
"792 268 OFFCURVE",
"788 260 OFFCURVE",
"781 253 CURVE",
"773 244 OFFCURVE",
"761 239 OFFCURVE",
"747 236 CURVE SMOOTH",
"742 235 OFFCURVE",
"737 234 OFFCURVE",
"731 234 CURVE"
);
}
);
width = 930;
}
);
},
{
glyphname = "ra_xwi-ethiopic.liga";
lastChange = "2019-03-09 00:04:35 +0000";
layers = (
{
layerId = "994FE389-9D54-4FAA-B055-C46A67020E78";
paths = (
{
closed = 1;
nodes = (
"730 0 LINE",
"730 273 LINE",
"771 273 LINE",
"771 229 LINE",
"932 229 LINE",
"932 276 LINE",
"820 276 LINE",
"820 391 LINE",
"778 391 LINE",
"778 323 LINE",
"730 323 LINE",
"730 439 LINE SMOOTH",
"730 531 OFFCURVE",
"730 531 OFFCURVE",
"626 531 CURVE SMOOTH",
"515 531 LINE",
"515 727 LINE",
"424 727 LINE",
"424 605 LINE",
"342 605 LINE",
"342 531 LINE",
"424 531 LINE",
"424 458 LINE",
"580 458 LINE SMOOTH",
"639 458 OFFCURVE",
"639 458 OFFCURVE",
"639 278 CURVE SMOOTH",
"639 0 LINE"
);
},
{
closed = 1;
nodes = (
"498 79 LINE",
"249 78 LINE SMOOTH",
"172 78 OFFCURVE",
"156 85 OFFCURVE",
"156 212 CURVE SMOOTH",
"156 312 OFFCURVE",
"159 478 OFFCURVE",
"159 531 CURVE",
"70 531 LINE",
"70 134 LINE SMOOTH",
"70 50 OFFCURVE",
"110 0 OFFCURVE",
"162 0 CURVE SMOOTH",
"497 -1 LINE"
);
}
);
width = 1002;
}
);
},
{
glyphname = "ra_xwaa-ethiopic.liga";
lastChange = "2019-03-09 00:04:35 +0000";
layers = (
{
layerId = "994FE389-9D54-4FAA-B055-C46A67020E78";
paths = (
{
closed = 1;
nodes = (
"988 -182 LINE",
"988 0 LINE",
"843 0 LINE",
"843 439 LINE SMOOTH",
"843 531 OFFCURVE",
"843 531 OFFCURVE",
"739 531 CURVE SMOOTH",
"510 531 LINE",
"510 727 LINE",
"419 727 LINE",
"419 649 LINE",
"302 649 LINE",
"302 555 LINE",
"419 555 LINE",
"419 505 LINE SMOOTH",
"419 477 OFFCURVE",
"437 458 OFFCURVE",
"466 458 CURVE SMOOTH",
"694 458 LINE SMOOTH",
"752 458 OFFCURVE",
"752 458 OFFCURVE",
"752 278 CURVE SMOOTH",
"752 0 LINE",
"631 0 LINE",
"631 -56 LINE",
"891 -56 LINE",
"891 -182 LINE"
);
},
{
closed = 1;
nodes = (
"498 79 LINE",
"249 78 LINE SMOOTH",
"173 78 OFFCURVE",
"157 85 OFFCURVE",
"157 212 CURVE SMOOTH",
"157 312 OFFCURVE",
"159 478 OFFCURVE",
"159 531 CURVE",
"70 531 LINE",
"70 134 LINE SMOOTH",
"70 50 OFFCURVE",
"111 0 OFFCURVE",
"163 0 CURVE SMOOTH",
"498 -1 LINE"
);
}
);
width = 1058;
}
);
},
{
glyphname = "ra_xwee-ethiopic.liga";
lastChange = "2019-03-09 00:04:35 +0000";
layers = (
{
layerId = "994FE389-9D54-4FAA-B055-C46A67020E78";
paths = (
{
closed = 1;
nodes = (
"937 -1 LINE",
"937 6 LINE",
"945 3 OFFCURVE",
"954 0 OFFCURVE",
"963 0 CURVE SMOOTH",
"1017 0 OFFCURVE",
"1060 45 OFFCURVE",
"1060 96 CURVE SMOOTH",
"1060 151 OFFCURVE",
"1018 196 OFFCURVE",
"963 196 CURVE SMOOTH",
"954 196 OFFCURVE",
"945 195 OFFCURVE",
"937 192 CURVE",
"937 439 LINE SMOOTH",
"937 531 OFFCURVE",
"937 531 OFFCURVE",
"834 531 CURVE SMOOTH",
"605 531 LINE",
"605 727 LINE",
"514 727 LINE",
"514 649 LINE",
"396 649 LINE",
"396 555 LINE",
"514 555 LINE",
"514 505 LINE SMOOTH",
"514 477 OFFCURVE",
"531 458 OFFCURVE",
"560 458 CURVE SMOOTH",
"788 458 LINE SMOOTH",
"846 458 OFFCURVE",
"846 458 OFFCURVE",
"846 278 CURVE SMOOTH",
"846 56 LINE",
"695 56 LINE",
"695 -1 LINE"
);
},
{
closed = 1;
nodes = (
"498 79 LINE",
"249 78 LINE SMOOTH",
"173 78 OFFCURVE",
"156 85 OFFCURVE",
"156 212 CURVE SMOOTH",
"156 312 OFFCURVE",
"159 478 OFFCURVE",
"159 531 CURVE",
"70 531 LINE",
"70 134 LINE SMOOTH",
"70 50 OFFCURVE",
"111 0 OFFCURVE",
"163 0 CURVE SMOOTH",
"497 -1 LINE"
);
},
{
closed = 1;
nodes = (
"953 54 OFFCURVE",
"945 56 OFFCURVE",
"937 62 CURVE",
"937 134 LINE",
"945 139 OFFCURVE",
"953 142 OFFCURVE",
"963 142 CURVE SMOOTH",
"987 142 OFFCURVE",
"1007 122 OFFCURVE",
"1007 99 CURVE SMOOTH",
"1007 73 OFFCURVE",
"987 54 OFFCURVE",
"963 54 CURVE SMOOTH"
);
}
);
width = 1130;
}
);
},
{
glyphname = "ra_xwe-ethiopic.liga";
lastChange = "2019-03-09 00:04:35 +0000";
layers = (
{
layerId = "994FE389-9D54-4FAA-B055-C46A67020E78";
paths = (
{
closed = 1;
nodes = (
"1038 -182 LINE",
"1038 0 LINE",
"892 0 LINE",
"892 273 LINE",
"969 273 LINE",
"969 229 LINE",
"1130 229 LINE",
"1130 276 LINE",
"1018 276 LINE",
"1018 391 LINE",
"976 391 LINE",
"976 323 LINE",
"892 323 LINE",
"892 439 LINE SMOOTH",
"892 531 OFFCURVE",
"892 531 OFFCURVE",
"789 531 CURVE SMOOTH",
"559 531 LINE",
"559 727 LINE",
"469 727 LINE",
"469 649 LINE",
"351 649 LINE",
"351 555 LINE",
"469 555 LINE",
"469 505 LINE SMOOTH",
"469 477 OFFCURVE",
"486 458 OFFCURVE",
"515 458 CURVE SMOOTH",
"743 458 LINE SMOOTH",
"801 458 OFFCURVE",
"801 458 OFFCURVE",
"801 278 CURVE SMOOTH",
"801 0 LINE",
"680 0 LINE",
"680 -56 LINE",
"940 -56 LINE",
"940 -182 LINE"
);
},
{
closed = 1;
nodes = (
"499 79 LINE",
"249 78 LINE SMOOTH",
"173 78 OFFCURVE",
"157 85 OFFCURVE",
"157 212 CURVE SMOOTH",
"157 312 OFFCURVE",
"159 478 OFFCURVE",
"159 531 CURVE",
"70 531 LINE",
"70 134 LINE SMOOTH",
"70 50 OFFCURVE",
"111 0 OFFCURVE",
"163 0 CURVE SMOOTH",
"498 -1 LINE"
);
}
);
width = 1200;
}
);
},
{
glyphname = "ra_na-ethiopic.liga";
lastChange = "2019-03-09 00:04:35 +0000";
layers = (
{
layerId = "994FE389-9D54-4FAA-B055-C46A67020E78";
paths = (
{
closed = 1;
nodes = (
"720 0 LINE",
"720 439 LINE SMOOTH",
"720 531 OFFCURVE",
"720 531 OFFCURVE",
"617 531 CURVE SMOOTH",
"388 531 LINE",
"388 727 LINE",
"297 727 LINE",
"297 505 LINE SMOOTH",
"297 477 OFFCURVE",
"314 458 OFFCURVE",
"343 458 CURVE SMOOTH",
"571 458 LINE SMOOTH",
"630 458 OFFCURVE",
"630 458 OFFCURVE",
"630 278 CURVE SMOOTH",
"630 0 LINE"
);
},
{
closed = 1;
nodes = (
"498 79 LINE",
"249 78 LINE SMOOTH",
"172 78 OFFCURVE",
"156 85 OFFCURVE",
"156 212 CURVE SMOOTH",
"156 312 OFFCURVE",
"159 478 OFFCURVE",
"159 531 CURVE",
"70 531 LINE",
"70 134 LINE SMOOTH",
"70 50 OFFCURVE",
"110 0 OFFCURVE",
"162 0 CURVE SMOOTH",
"497 -1 LINE"
);
}
);
width = 790;
}
);
},
{
glyphname = "ra_nu-ethiopic.liga";
lastChange = "2019-03-09 00:04:35 +0000";
layers = (
{
layerId = "994FE389-9D54-4FAA-B055-C46A67020E78";
paths = (
{
closed = 1;
nodes = (
"721 0 LINE",
"721 244 LINE",
"825 244 LINE",
"825 348 LINE",
"721 348 LINE",
"721 439 LINE SMOOTH",
"721 531 OFFCURVE",
"721 531 OFFCURVE",
"617 531 CURVE SMOOTH",
"388 531 LINE",
"388 727 LINE",
"297 727 LINE",
"297 505 LINE SMOOTH",
"297 477 OFFCURVE",
"314 458 OFFCURVE",
"343 458 CURVE SMOOTH",
"571 458 LINE SMOOTH",
"630 458 OFFCURVE",
"630 458 OFFCURVE",
"630 278 CURVE SMOOTH",
"630 0 LINE"
);
},
{
closed = 1;
nodes = (
"498 79 LINE",
"249 78 LINE SMOOTH",
"172 78 OFFCURVE",
"156 85 OFFCURVE",
"156 212 CURVE SMOOTH",
"156 312 OFFCURVE",
"159 478 OFFCURVE",
"159 531 CURVE",
"70 531 LINE",
"70 134 LINE SMOOTH",
"70 50 OFFCURVE",
"111 0 OFFCURVE",
"162 0 CURVE SMOOTH",
"497 -1 LINE"
);
}
);
width = 895;
}
);
},
{
glyphname = "ra_ni-ethiopic.liga";
lastChange = "2019-03-09 00:04:35 +0000";
layers = (
{
layerId = "994FE389-9D54-4FAA-B055-C46A67020E78";
paths = (
{
closed = 1;
nodes = (
"884 0 LINE",
"884 86 LINE",
"763 86 LINE",
"763 439 LINE SMOOTH",
"763 531 OFFCURVE",
"763 531 OFFCURVE",
"659 531 CURVE SMOOTH",
"430 531 LINE",
"430 727 LINE",
"339 727 LINE",
"339 505 LINE SMOOTH",
"339 477 OFFCURVE",
"356 458 OFFCURVE",
"386 458 CURVE SMOOTH",
"614 458 LINE SMOOTH",
"672 458 OFFCURVE",
"672 458 OFFCURVE",
"672 278 CURVE SMOOTH",
"672 0 LINE"
);
},
{
closed = 1;
nodes = (
"498 79 LINE",
"249 78 LINE SMOOTH",
"173 78 OFFCURVE",
"156 85 OFFCURVE",
"156 212 CURVE SMOOTH",
"156 312 OFFCURVE",
"159 478 OFFCURVE",
"159 531 CURVE",
"70 531 LINE",
"70 134 LINE SMOOTH",
"70 50 OFFCURVE",
"111 0 OFFCURVE",
"163 0 CURVE SMOOTH",
"497 -1 LINE"
);
}
);
width = 954;
}
);
},
{
glyphname = "ra_nee-ethiopic.liga";
lastChange = "2019-03-09 00:04:35 +0000";
layers = (
{
layerId = "994FE389-9D54-4FAA-B055-C46A67020E78";
paths = (
{
closed = 1;
nodes = (
"839 0 LINE SMOOTH",
"884 0 OFFCURVE",
"916 17 OFFCURVE",
"934 50 CURVE SMOOTH",
"944 67 OFFCURVE",
"950 89 OFFCURVE",
"950 112 CURVE SMOOTH",
"950 142 OFFCURVE",
"942 167 OFFCURVE",
"923 185 CURVE SMOOTH",
"901 205 OFFCURVE",
"876 217 OFFCURVE",
"840 217 CURVE SMOOTH",
"810 217 LINE",
"810 439 LINE SMOOTH",
"810 531 OFFCURVE",
"810 531 OFFCURVE",
"706 531 CURVE SMOOTH",
"477 531 LINE",
"477 727 LINE",
"386 727 LINE",
"386 505 LINE SMOOTH",
"386 477 OFFCURVE",
"404 458 OFFCURVE",
"433 458 CURVE SMOOTH",
"661 458 LINE SMOOTH",
"719 458 OFFCURVE",
"719 458 OFFCURVE",
"719 278 CURVE SMOOTH",
"719 0 LINE"
);
},
{
closed = 1;
nodes = (
"498 79 LINE",
"249 78 LINE SMOOTH",
"173 78 OFFCURVE",
"156 85 OFFCURVE",
"156 212 CURVE SMOOTH",
"156 312 OFFCURVE",
"159 478 OFFCURVE",
"159 531 CURVE",
"70 531 LINE",
"70 134 LINE SMOOTH",
"70 50 OFFCURVE",
"111 0 OFFCURVE",
"163 0 CURVE SMOOTH",
"497 -1 LINE"
);
},
{
closed = 1;
nodes = (
"810 193 LINE",
"838 192 OFFCURVE",
"858 185 OFFCURVE",
"871 171 CURVE SMOOTH",
"884 156 OFFCURVE",
"889 134 OFFCURVE",
"889 107 CURVE SMOOTH",
"889 100 OFFCURVE",
"888 93 OFFCURVE",
"886 85 CURVE",
"883 70 OFFCURVE",
"878 59 OFFCURVE",
"872 50 CURVE SMOOTH",
"864 38 OFFCURVE",
"852 32 OFFCURVE",
"837 28 CURVE SMOOTH",
"829 26 OFFCURVE",
"821 24 OFFCURVE",
"810 24 CURVE"
);
}
);
width = 1020;
}
);
note = uni1294;
},
{
glyphname = "ra_ne-ethiopic.liga";
lastChange = "2019-03-09 17:09:15 +0000";
layers = (
{
layerId = "994FE389-9D54-4FAA-B055-C46A67020E78";
paths = (
{
closed = 1;
nodes = (
"787 -12 LINE",
"787 211 LINE SMOOTH",
"787 236 OFFCURVE",
"785 253 OFFCURVE",
"747 253 CURVE SMOOTH",
"644 253 LINE",
"797 445 LINE SMOOTH",
"810 461 OFFCURVE",
"799 531 OFFCURVE",
"753 531 CURVE SMOOTH",
"407 531 LINE",
"407 450 LINE",
"707 450 LINE",
"564 266 LINE SMOOTH",
"520 210 OFFCURVE",
"526 191 OFFCURVE",
"554 191 CURVE SMOOTH",
"697 191 LINE",
"697 -12 LINE"
);
},
{
closed = 1;
nodes = (
"498 79 LINE",
"249 78 LINE SMOOTH",
"173 78 OFFCURVE",
"157 85 OFFCURVE",
"157 212 CURVE SMOOTH",
"157 312 OFFCURVE",
"159 478 OFFCURVE",
"159 531 CURVE",
"70 531 LINE",
"70 134 LINE SMOOTH",
"70 50 OFFCURVE",
"111 0 OFFCURVE",
"163 0 CURVE SMOOTH",
"497 -1 LINE"
);
}
);
width = 872;
}
);
note = uni1295;
},
{
glyphname = "ra_nya-ethiopic.liga";
lastChange = "2019-03-09 00:04:35 +0000";
layers = (
{
layerId = "994FE389-9D54-4FAA-B055-C46A67020E78";
paths = (
{
closed = 1;
nodes = (
"840 0 LINE",
"840 439 LINE SMOOTH",
"840 531 OFFCURVE",
"840 531 OFFCURVE",
"736 531 CURVE SMOOTH",
"507 531 LINE",
"507 682 LINE",
"630 682 LINE",
"630 727 LINE",
"313 727 LINE",
"313 682 LINE",
"416 682 LINE",
"416 505 LINE SMOOTH",
"416 477 OFFCURVE",
"433 458 OFFCURVE",
"462 458 CURVE SMOOTH",
"690 458 LINE SMOOTH",
"749 458 OFFCURVE",
"749 458 OFFCURVE",
"749 278 CURVE SMOOTH",
"749 0 LINE"
);
},
{
closed = 1;
nodes = (
"499 79 LINE",
"250 78 LINE SMOOTH",
"173 78 OFFCURVE",
"157 85 OFFCURVE",
"157 212 CURVE SMOOTH",
"157 312 OFFCURVE",
"160 478 OFFCURVE",
"160 531 CURVE",
"70 531 LINE",
"70 134 LINE SMOOTH",
"70 50 OFFCURVE",
"111 0 OFFCURVE",
"163 0 CURVE SMOOTH",
"498 -1 LINE"
);
}
);
width = 910;
}
);
note = uni1298;
},
{
glyphname = "ra_nyu-ethiopic.liga";
lastChange = "2019-03-09 00:04:35 +0000";
layers = (
{
layerId = "994FE389-9D54-4FAA-B055-C46A67020E78";
paths = (
{
closed = 1;
nodes = (
"857 0 LINE",
"857 246 LINE",
"956 246 LINE",
"956 346 LINE",
"857 346 LINE",
"857 439 LINE SMOOTH",
"857 531 OFFCURVE",
"857 531 OFFCURVE",
"753 531 CURVE SMOOTH",
"524 531 LINE",
"524 682 LINE",
"647 682 LINE",
"647 727 LINE",
"331 727 LINE",
"331 682 LINE",
"433 682 LINE",
"433 505 LINE SMOOTH",
"433 477 OFFCURVE",
"451 458 OFFCURVE",
"480 458 CURVE SMOOTH",
"708 458 LINE SMOOTH",
"766 458 OFFCURVE",
"766 458 OFFCURVE",
"766 278 CURVE SMOOTH",
"766 0 LINE"
);
},
{
closed = 1;
nodes = (
"498 79 LINE",
"249 78 LINE SMOOTH",
"172 78 OFFCURVE",
"156 85 OFFCURVE",
"156 212 CURVE SMOOTH",
"156 312 OFFCURVE",
"159 478 OFFCURVE",
"159 531 CURVE",
"70 531 LINE",
"70 134 LINE SMOOTH",
"70 50 OFFCURVE",
"111 0 OFFCURVE",
"162 0 CURVE SMOOTH",
"497 -1 LINE"
);
}
);
width = 1026;
}
);
note = uni1299;
},
{
glyphname = "ra_nyi-ethiopic.liga";
lastChange = "2019-03-09 00:04:35 +0000";
layers = (
{
layerId = "994FE389-9D54-4FAA-B055-C46A67020E78";
paths = (
{
closed = 1;
nodes = (
"1006 0 LINE",
"1006 100 LINE",
"907 100 LINE",
"907 439 LINE SMOOTH",
"907 531 OFFCURVE",
"907 531 OFFCURVE",
"803 531 CURVE SMOOTH",
"574 531 LINE",
"574 682 LINE",
"714 682 LINE",
"714 727 LINE",
"381 727 LINE",
"381 682 LINE",
"483 682 LINE",
"483 505 LINE SMOOTH",
"483 477 OFFCURVE",
"501 458 OFFCURVE",
"530 458 CURVE SMOOTH",
"758 458 LINE SMOOTH",
"816 458 OFFCURVE",
"816 458 OFFCURVE",
"816 278 CURVE SMOOTH",
"816 0 LINE"
);
},
{
closed = 1;
nodes = (
"498 79 LINE",
"249 78 LINE SMOOTH",
"172 78 OFFCURVE",
"156 85 OFFCURVE",
"156 212 CURVE SMOOTH",
"156 312 OFFCURVE",
"159 478 OFFCURVE",
"159 531 CURVE",
"70 531 LINE",
"70 134 LINE SMOOTH",
"70 50 OFFCURVE",
"111 0 OFFCURVE",
"162 0 CURVE SMOOTH",
"497 -1 LINE"
);
}
);
width = 1076;
}
);
note = uni129A;
},
{
glyphname = "ra_nyee-ethiopic.liga";
lastChange = "2019-03-09 00:04:35 +0000";
layers = (
{
layerId = "994FE389-9D54-4FAA-B055-C46A67020E78";
paths = (
{
closed = 1;
nodes = (
"894 0 LINE SMOOTH",
"940 0 OFFCURVE",
"971 16 OFFCURVE",
"990 46 CURVE",
"1000 64 OFFCURVE",
"1005 85 OFFCURVE",
"1005 106 CURVE SMOOTH",
"1005 134 OFFCURVE",
"997 158 OFFCURVE",
"978 175 CURVE",
"956 193 OFFCURVE",
"931 205 OFFCURVE",
"895 205 CURVE SMOOTH",
"849 205 LINE",
"849 439 LINE SMOOTH",
"849 531 OFFCURVE",
"849 531 OFFCURVE",
"745 531 CURVE SMOOTH",
"516 531 LINE",
"516 682 LINE",
"684 682 LINE",
"684 727 LINE",
"322 727 LINE",
"322 682 LINE",
"425 682 LINE",
"425 505 LINE SMOOTH",
"425 477 OFFCURVE",
"442 458 OFFCURVE",
"471 458 CURVE SMOOTH",
"700 458 LINE SMOOTH",
"758 458 OFFCURVE",
"758 458 OFFCURVE",
"758 278 CURVE SMOOTH",
"758 0 LINE"
);
},
{
closed = 1;
nodes = (
"499 79 LINE",
"250 78 LINE SMOOTH",
"173 78 OFFCURVE",
"157 85 OFFCURVE",
"157 212 CURVE SMOOTH",
"157 312 OFFCURVE",
"160 478 OFFCURVE",
"160 531 CURVE",
"70 531 LINE",
"70 134 LINE SMOOTH",
"70 50 OFFCURVE",
"111 0 OFFCURVE",
"163 0 CURVE SMOOTH",
"498 -1 LINE"
);
},
{
closed = 1;
nodes = (
"849 182 LINE",
"862 182 LINE SMOOTH",
"891 182 OFFCURVE",
"913 175 OFFCURVE",
"926 161 CURVE SMOOTH",
"939 147 OFFCURVE",
"944 126 OFFCURVE",
"944 101 CURVE SMOOTH",
"944 95 OFFCURVE",
"943 87 OFFCURVE",
"941 80 CURVE",
"938 66 OFFCURVE",
"933 56 OFFCURVE",
"927 47 CURVE",
"919 36 OFFCURVE",
"907 30 OFFCURVE",
"892 26 CURVE",
"884 25 OFFCURVE",
"875 23 OFFCURVE",
"863 23 CURVE SMOOTH",
"849 23 LINE"
);
}
);
width = 1075;
}
);
note = uni129C;
},
{
glyphname = "ra_ga-ethiopic.liga";
lastChange = "2019-03-09 00:04:35 +0000";
layers = (
{
layerId = "994FE389-9D54-4FAA-B055-C46A67020E78";
paths = (
{
closed = 1;
nodes = (
"720 0 LINE",
"720 397 LINE SMOOTH",
"720 481 OFFCURVE",
"679 531 OFFCURVE",
"627 531 CURVE SMOOTH",
"292 532 LINE",
"291 452 LINE",
"540 453 LINE SMOOTH",
"617 453 OFFCURVE",
"633 447 OFFCURVE",
"633 319 CURVE SMOOTH",
"633 219 OFFCURVE",
"630 53 OFFCURVE",
"630 0 CURVE"
);
},
{
closed = 1;
nodes = (
"498 79 LINE",
"249 78 LINE SMOOTH",
"172 78 OFFCURVE",
"156 85 OFFCURVE",
"156 212 CURVE SMOOTH",
"156 312 OFFCURVE",
"159 478 OFFCURVE",
"159 531 CURVE",
"70 531 LINE",
"70 134 LINE SMOOTH",
"70 50 OFFCURVE",
"110 0 OFFCURVE",
"162 0 CURVE SMOOTH",
"497 -1 LINE"
);
}
);
width = 790;
}
);
},
{
glyphname = "ra_gu-ethiopic.liga";
lastChange = "2019-03-09 00:04:35 +0000";
layers = (
{
layerId = "994FE389-9D54-4FAA-B055-C46A67020E78";
paths = (
{
closed = 1;
nodes = (
"720 0 LINE",
"720 249 LINE",
"823 249 LINE",
"823 354 LINE",
"720 354 LINE",
"720 397 LINE SMOOTH",
"720 481 OFFCURVE",
"679 531 OFFCURVE",
"627 531 CURVE SMOOTH",
"293 532 LINE",
"292 452 LINE",
"541 453 LINE SMOOTH",
"617 453 OFFCURVE",
"633 446 OFFCURVE",
"633 319 CURVE SMOOTH",
"633 219 OFFCURVE",
"631 53 OFFCURVE",
"631 0 CURVE"
);
},
{
closed = 1;
nodes = (
"498 79 LINE",
"249 78 LINE SMOOTH",
"173 78 OFFCURVE",
"156 85 OFFCURVE",
"156 212 CURVE SMOOTH",
"156 312 OFFCURVE",
"159 478 OFFCURVE",
"159 531 CURVE",
"70 531 LINE",
"70 134 LINE SMOOTH",
"70 50 OFFCURVE",
"111 0 OFFCURVE",
"163 0 CURVE SMOOTH",
"497 -1 LINE"
);
}
);
width = 893;
}
);
},
{
glyphname = "ra_gi-ethiopic.liga";
lastChange = "2019-03-09 00:04:35 +0000";
layers = (
{
layerId = "994FE389-9D54-4FAA-B055-C46A67020E78";
paths = (
{
closed = 1;
nodes = (
"859 0 LINE",
"859 65 LINE",
"749 65 LINE",
"749 397 LINE SMOOTH",
"749 481 OFFCURVE",
"709 531 OFFCURVE",
"657 531 CURVE SMOOTH",
"322 532 LINE",
"321 452 LINE",
"570 453 LINE SMOOTH",
"647 453 OFFCURVE",
"663 447 OFFCURVE",
"663 319 CURVE SMOOTH",
"663 219 OFFCURVE",
"660 53 OFFCURVE",
"660 0 CURVE"
);
},
{
closed = 1;
nodes = (
"499 79 LINE",
"249 78 LINE SMOOTH",
"173 78 OFFCURVE",
"157 85 OFFCURVE",
"157 212 CURVE SMOOTH",
"157 312 OFFCURVE",
"159 478 OFFCURVE",
"159 531 CURVE",
"70 531 LINE",
"70 134 LINE SMOOTH",
"70 50 OFFCURVE",
"111 0 OFFCURVE",
"163 0 CURVE SMOOTH",
"498 -1 LINE"
);
}
);
width = 929;
}
);
note = uni130A;
},
{
glyphname = "ra_gaa-ethiopic.liga";
lastChange = "2019-03-09 00:04:35 +0000";
layers = (
{
components = (
{
name = "gaa-ethiopic";
transform = "{1, 0, 0, 1, 349, 0}";
}
);
layerId = "994FE389-9D54-4FAA-B055-C46A67020E78";
paths = (
{
closed = 1;
nodes = (
"498 79 LINE",
"249 78 LINE SMOOTH",
"173 78 OFFCURVE",
"156 85 OFFCURVE",
"156 212 CURVE SMOOTH",
"156 312 OFFCURVE",
"159 478 OFFCURVE",
"159 531 CURVE",
"70 531 LINE",
"70 134 LINE SMOOTH",
"70 50 OFFCURVE",
"111 0 OFFCURVE",
"163 0 CURVE SMOOTH",
"497 -1 LINE"
);
}
);
width = 907;
}
);
note = uni130B;
},
{
glyphname = "ra_gee-ethiopic.liga";
lastChange = "2019-03-09 00:04:35 +0000";
layers = (
{
layerId = "994FE389-9D54-4FAA-B055-C46A67020E78";
paths = (
{
closed = 1;
nodes = (
"778 -4 LINE SMOOTH",
"810 -4 OFFCURVE",
"832 9 OFFCURVE",
"850 29 CURVE SMOOTH",
"866 47 OFFCURVE",
"874 75 OFFCURVE",
"874 106 CURVE SMOOTH",
"874 129 OFFCURVE",
"869 151 OFFCURVE",
"861 170 CURVE SMOOTH",
"846 204 OFFCURVE",
"817 222 OFFCURVE",
"778 222 CURVE SMOOTH",
"749 222 LINE",
"749 393 LINE SMOOTH",
"749 476 OFFCURVE",
"708 526 OFFCURVE",
"656 526 CURVE SMOOTH",
"322 527 LINE",
"321 447 LINE",
"570 448 LINE SMOOTH",
"646 448 OFFCURVE",
"663 442 OFFCURVE",
"663 315 CURVE SMOOTH",
"663 215 OFFCURVE",
"660 48 OFFCURVE",
"660 -4 CURVE"
);
},
{
closed = 1;
nodes = (
"498 79 LINE",
"249 78 LINE SMOOTH",
"173 78 OFFCURVE",
"156 85 OFFCURVE",
"156 212 CURVE SMOOTH",
"156 312 OFFCURVE",
"159 478 OFFCURVE",
"159 531 CURVE",
"70 531 LINE",
"70 134 LINE SMOOTH",
"70 50 OFFCURVE",
"111 0 OFFCURVE",
"163 0 CURVE SMOOTH",
"497 -1 LINE"
);
},
{
closed = 1;
nodes = (
"749 197 LINE",
"752 197 LINE SMOOTH",
"762 197 OFFCURVE",
"770 196 OFFCURVE",
"776 193 CURVE SMOOTH",
"789 187 OFFCURVE",
"800 183 OFFCURVE",
"806 169 CURVE",
"811 159 OFFCURVE",
"816 149 OFFCURVE",
"819 134 CURVE",
"821 126 OFFCURVE",
"822 117 OFFCURVE",
"822 110 CURVE SMOOTH",
"822 83 OFFCURVE",
"816 59 OFFCURVE",
"806 44 CURVE SMOOTH",
"796 28 OFFCURVE",
"776 22 OFFCURVE",
"751 22 CURVE SMOOTH",
"749 22 LINE"
);
}
);
width = 944;
}
);
note = uni130C;
},
{
glyphname = "ra_ge-ethiopic.liga";
lastChange = "2019-03-09 00:04:35 +0000";
layers = (
{
layerId = "994FE389-9D54-4FAA-B055-C46A67020E78";
paths = (
{
closed = 1;
nodes = (
"744 0 LINE",
"744 397 LINE SMOOTH",
"744 481 OFFCURVE",
"703 531 OFFCURVE",
"651 531 CURVE SMOOTH",
"317 532 LINE",
"316 452 LINE",
"317 452 LINE",
"317 420 LINE SMOOTH",
"317 388 OFFCURVE",
"331 366 OFFCURVE",
"351 348 CURVE SMOOTH",
"369 332 OFFCURVE",
"396 325 OFFCURVE",
"427 325 CURVE SMOOTH",
"451 325 OFFCURVE",
"472 329 OFFCURVE",
"491 337 CURVE SMOOTH",
"525 352 OFFCURVE",
"543 381 OFFCURVE",
"543 420 CURVE SMOOTH",
"543 453 LINE",
"565 453 LINE SMOOTH",
"641 453 OFFCURVE",
"658 446 OFFCURVE",
"658 319 CURVE SMOOTH",
"658 219 OFFCURVE",
"655 53 OFFCURVE",
"655 0 CURVE"
);
},
{
closed = 1;
nodes = (
"498 79 LINE",
"249 78 LINE SMOOTH",
"172 78 OFFCURVE",
"156 85 OFFCURVE",
"156 212 CURVE SMOOTH",
"156 312 OFFCURVE",
"159 478 OFFCURVE",
"159 531 CURVE",
"70 531 LINE",
"70 134 LINE SMOOTH",
"70 50 OFFCURVE",
"111 0 OFFCURVE",
"162 0 CURVE SMOOTH",
"497 -1 LINE"
);
},
{
closed = 1;
nodes = (
"404 376 OFFCURVE",
"381 382 OFFCURVE",
"365 392 CURVE SMOOTH",
"350 402 OFFCURVE",
"343 423 OFFCURVE",
"343 447 CURVE SMOOTH",
"343 452 LINE",
"519 453 LINE",
"519 446 LINE SMOOTH",
"519 436 OFFCURVE",
"517 428 OFFCURVE",
"514 422 CURVE",
"509 409 OFFCURVE",
"504 398 OFFCURVE",
"491 392 CURVE SMOOTH",
"481 387 OFFCURVE",
"471 383 OFFCURVE",
"455 379 CURVE SMOOTH",
"447 377 OFFCURVE",
"439 376 OFFCURVE",
"431 376 CURVE SMOOTH"
);
}
);
width = 814;
}
);
note = uni130D;
},
{
glyphname = "ra_go-ethiopic.liga";
lastChange = "2019-03-09 00:04:35 +0000";
layers = (
{
layerId = "994FE389-9D54-4FAA-B055-C46A67020E78";
paths = (
{
closed = 1;
nodes = (
"783 0 LINE",
"783 397 LINE SMOOTH",
"783 492 OFFCURVE",
"742 531 OFFCURVE",
"690 531 CURVE SMOOTH",
"563 531 LINE",
"563 727 LINE",
"494 727 LINE",
"494 532 LINE",
"356 532 LINE",
"355 452 LINE",
"604 453 LINE SMOOTH",
"680 453 OFFCURVE",
"697 446 OFFCURVE",
"697 319 CURVE SMOOTH",
"697 219 OFFCURVE",
"694 53 OFFCURVE",
"694 0 CURVE"
);
},
{
closed = 1;
nodes = (
"498 79 LINE",
"249 78 LINE SMOOTH",
"173 78 OFFCURVE",
"157 85 OFFCURVE",
"157 212 CURVE SMOOTH",
"157 312 OFFCURVE",
"159 478 OFFCURVE",
"159 531 CURVE",
"70 531 LINE",
"70 134 LINE SMOOTH",
"70 50 OFFCURVE",
"111 0 OFFCURVE",
"163 0 CURVE SMOOTH",
"498 -1 LINE"
);
}
);
width = 853;
}
);
},
{
glyphname = "ra_goa-ethiopic.liga";
lastChange = "2019-03-09 00:04:35 +0000";
layers = (
{
layerId = "994FE389-9D54-4FAA-B055-C46A67020E78";
paths = (
{
closed = 1;
nodes = (
"779 30 LINE",
"779 0 LINE",
"868 0 LINE",
"868 397 LINE SMOOTH",
"868 492 OFFCURVE",
"827 531 OFFCURVE",
"775 531 CURVE SMOOTH",
"678 531 LINE",
"678 727 LINE",
"609 727 LINE",
"609 531 LINE",
"441 532 LINE",
"440 452 LINE",
"689 453 LINE SMOOTH",
"765 453 OFFCURVE",
"782 446 OFFCURVE",
"782 319 CURVE SMOOTH",
"782 234 OFFCURVE",
"780 103 OFFCURVE",
"779 32 CURVE",
"582 -15 LINE",
"589 -111 LINE"
);
},
{
closed = 1;
nodes = (
"498 79 LINE",
"249 78 LINE SMOOTH",
"173 78 OFFCURVE",
"156 85 OFFCURVE",
"156 212 CURVE SMOOTH",
"156 312 OFFCURVE",
"159 478 OFFCURVE",
"159 531 CURVE",
"70 531 LINE",
"70 134 LINE SMOOTH",
"70 50 OFFCURVE",
"111 0 OFFCURVE",
"163 0 CURVE SMOOTH",
"497 -1 LINE"
);
}
);
width = 938;
}
);
},
{
glyphname = "ra_gwa-ethiopic.liga";
lastChange = "2019-03-09 00:04:35 +0000";
layers = (
{
layerId = "994FE389-9D54-4FAA-B055-C46A67020E78";
paths = (
{
closed = 1;
nodes = (
"749 0 LINE",
"749 137 LINE",
"783 137 LINE SMOOTH",
"815 137 OFFCURVE",
"837 151 OFFCURVE",
"855 171 CURVE SMOOTH",
"871 189 OFFCURVE",
"878 216 OFFCURVE",
"878 247 CURVE SMOOTH",
"878 271 OFFCURVE",
"874 293 OFFCURVE",
"866 312 CURVE SMOOTH",
"851 346 OFFCURVE",
"822 364 OFFCURVE",
"783 364 CURVE SMOOTH",
"749 364 LINE",
"749 397 LINE SMOOTH",
"749 481 OFFCURVE",
"708 531 OFFCURVE",
"657 531 CURVE SMOOTH",
"322 532 LINE",
"321 452 LINE",
"570 453 LINE SMOOTH",
"647 453 OFFCURVE",
"663 447 OFFCURVE",
"663 319 CURVE SMOOTH",
"663 219 OFFCURVE",
"660 53 OFFCURVE",
"660 0 CURVE"
);
},
{
closed = 1;
nodes = (
"498 79 LINE",
"249 78 LINE SMOOTH",
"173 78 OFFCURVE",
"157 85 OFFCURVE",
"157 212 CURVE SMOOTH",
"157 312 OFFCURVE",
"159 478 OFFCURVE",
"159 531 CURVE",
"70 531 LINE",
"70 134 LINE SMOOTH",
"70 50 OFFCURVE",
"111 0 OFFCURVE",
"163 0 CURVE SMOOTH",
"498 -1 LINE"
);
},
{
closed = 1;
nodes = (
"749 339 LINE",
"757 339 LINE SMOOTH",
"767 339 OFFCURVE",
"775 337 OFFCURVE",
"781 335 CURVE",
"794 329 OFFCURVE",
"805 325 OFFCURVE",
"811 311 CURVE",
"816 301 OFFCURVE",
"820 291 OFFCURVE",
"824 276 CURVE",
"826 267 OFFCURVE",
"827 259 OFFCURVE",
"827 252 CURVE SMOOTH",
"827 225 OFFCURVE",
"821 201 OFFCURVE",
"811 186 CURVE SMOOTH",
"801 170 OFFCURVE",
"780 164 OFFCURVE",
"756 164 CURVE SMOOTH",
"749 164 LINE"
);
}
);
width = 948;
}
);
note = uni1310;
},
{
glyphname = "ra_gwi-ethiopic.liga";
lastChange = "2019-03-09 00:04:35 +0000";
layers = (
{
layerId = "994FE389-9D54-4FAA-B055-C46A67020E78";
paths = (
{
closed = 1;
nodes = (
"751 0 LINE",
"751 273 LINE",
"796 273 LINE",
"796 229 LINE",
"957 229 LINE",
"957 276 LINE",
"844 276 LINE",
"844 391 LINE",
"802 391 LINE",
"802 323 LINE",
"751 323 LINE",
"751 397 LINE SMOOTH",
"751 481 OFFCURVE",
"711 531 OFFCURVE",
"659 531 CURVE SMOOTH",
"324 532 LINE",
"323 452 LINE",
"572 453 LINE SMOOTH",
"649 453 OFFCURVE",
"665 446 OFFCURVE",
"665 319 CURVE SMOOTH",
"665 219 OFFCURVE",
"662 53 OFFCURVE",
"662 0 CURVE"
);
},
{
closed = 1;
nodes = (
"498 79 LINE",
"249 78 LINE SMOOTH",
"172 78 OFFCURVE",
"156 85 OFFCURVE",
"156 212 CURVE SMOOTH",
"156 312 OFFCURVE",
"159 478 OFFCURVE",
"159 531 CURVE",
"70 531 LINE",
"70 134 LINE SMOOTH",
"70 50 OFFCURVE",
"111 0 OFFCURVE",
"162 0 CURVE SMOOTH",
"497 -1 LINE"
);
}
);
width = 1027;
}
);
},
{
glyphname = "ra_gwaa-ethiopic.liga";
lastChange = "2019-03-09 00:04:35 +0000";
layers = (
{
layerId = "994FE389-9D54-4FAA-B055-C46A67020E78";
paths = (
{
closed = 1;
nodes = (
"911 -182 LINE",
"911 146 LINE",
"840 146 LINE",
"840 397 LINE SMOOTH",
"840 481 OFFCURVE",
"799 531 OFFCURVE",
"747 531 CURVE SMOOTH",
"413 532 LINE",
"412 452 LINE",
"661 453 LINE SMOOTH",
"737 453 OFFCURVE",
"754 446 OFFCURVE",
"754 319 CURVE SMOOTH",
"754 234 OFFCURVE",
"752 180 OFFCURVE",
"751 134 CURVE",
"588 126 LINE",
"654 55 LINE",
"751 109 LINE",
"817 109 LINE",
"817 -182 LINE"
);
},
{
closed = 1;
nodes = (
"498 79 LINE",
"249 78 LINE SMOOTH",
"173 78 OFFCURVE",
"157 85 OFFCURVE",
"157 212 CURVE SMOOTH",
"157 312 OFFCURVE",
"159 478 OFFCURVE",
"159 531 CURVE",
"70 531 LINE",
"70 134 LINE SMOOTH",
"70 50 OFFCURVE",
"111 0 OFFCURVE",
"163 0 CURVE SMOOTH",
"497 -1 LINE"
);
}
);
width = 981;
}
);
note = uni1313;
},
{
glyphname = "ra_gwee-ethiopic.liga";
lastChange = "2019-03-09 00:04:35 +0000";
layers = (
{
layerId = "994FE389-9D54-4FAA-B055-C46A67020E78";
paths = (
{
closed = 1;
nodes = (
"805 26 LINE",
"805 0 LINE",
"837 0 LINE",
"837 -1 LINE",
"934 -1 LINE SMOOTH",
"980 -1 OFFCURVE",
"1011 14 OFFCURVE",
"1030 41 CURVE",
"1040 57 OFFCURVE",
"1045 76 OFFCURVE",
"1045 95 CURVE SMOOTH",
"1045 121 OFFCURVE",
"1037 143 OFFCURVE",
"1018 157 CURVE",
"996 175 OFFCURVE",
"971 186 OFFCURVE",
"935 186 CURVE SMOOTH",
"894 186 LINE",
"894 397 LINE SMOOTH",
"894 492 OFFCURVE",
"853 531 OFFCURVE",
"801 531 CURVE SMOOTH",
"674 531 LINE",
"674 727 LINE",
"605 727 LINE",
"605 532 LINE",
"467 532 LINE",
"466 452 LINE",
"715 453 LINE SMOOTH",
"791 453 OFFCURVE",
"808 446 OFFCURVE",
"808 319 CURVE SMOOTH",
"808 234 OFFCURVE",
"806 101 OFFCURVE",
"805 31 CURVE",
"614 -15 LINE",
"621 -111 LINE"
);
},
{
closed = 1;
nodes = (
"498 79 LINE",
"249 78 LINE SMOOTH",
"172 78 OFFCURVE",
"156 85 OFFCURVE",
"156 212 CURVE SMOOTH",
"156 312 OFFCURVE",
"159 478 OFFCURVE",
"159 531 CURVE",
"70 531 LINE",
"70 134 LINE SMOOTH",
"70 50 OFFCURVE",
"111 0 OFFCURVE",
"162 0 CURVE SMOOTH",
"497 -1 LINE"
);
},
{
closed = 1;
nodes = (
"894 164 LINE",
"902 164 LINE SMOOTH",
"931 164 OFFCURVE",
"953 157 OFFCURVE",
"966 146 CURVE",
"979 133 OFFCURVE",
"984 114 OFFCURVE",
"984 91 CURVE SMOOTH",
"984 85 OFFCURVE",
"983 78 OFFCURVE",
"981 72 CURVE",
"978 59 OFFCURVE",
"973 50 OFFCURVE",
"967 42 CURVE SMOOTH",
"959 32 OFFCURVE",
"947 26 OFFCURVE",
"932 23 CURVE",
"924 21 OFFCURVE",
"915 19 OFFCURVE",
"903 19 CURVE SMOOTH",
"894 19 LINE"
);
}
);
width = 1115;
}
);
},
{
glyphname = "ra_gwe-ethiopic.liga";
lastChange = "2019-03-09 00:04:35 +0000";
layers = (
{
layerId = "994FE389-9D54-4FAA-B055-C46A67020E78";
paths = (
{
closed = 1;
nodes = (
"749 0 LINE",
"749 278 LINE",
"779 278 LINE",
"779 172 LINE",
"892 172 LINE",
"892 226 LINE",
"833 226 LINE",
"833 343 LINE",
"749 343 LINE",
"749 397 LINE SMOOTH",
"749 481 OFFCURVE",
"708 531 OFFCURVE",
"657 531 CURVE SMOOTH",
"322 532 LINE",
"321 452 LINE",
"570 453 LINE SMOOTH",
"647 453 OFFCURVE",
"663 447 OFFCURVE",
"663 319 CURVE SMOOTH",
"663 219 OFFCURVE",
"660 53 OFFCURVE",
"660 0 CURVE"
);
},
{
closed = 1;
nodes = (
"498 79 LINE",
"249 78 LINE SMOOTH",
"173 78 OFFCURVE",
"157 85 OFFCURVE",
"157 212 CURVE SMOOTH",
"157 312 OFFCURVE",
"159 478 OFFCURVE",
"159 531 CURVE",
"70 531 LINE",
"70 134 LINE SMOOTH",
"70 50 OFFCURVE",
"111 0 OFFCURVE",
"163 0 CURVE SMOOTH",
"498 -1 LINE"
);
}
);
width = 962;
}
);
},
{
glyphname = "ra_gga-ethiopic.liga";
lastChange = "2019-03-09 00:04:35 +0000";
layers = (
{
layerId = "994FE389-9D54-4FAA-B055-C46A67020E78";
paths = (
{
closed = 1;
nodes = (
"749 0 LINE",
"749 397 LINE SMOOTH",
"749 492 OFFCURVE",
"708 531 OFFCURVE",
"656 531 CURVE SMOOTH",
"510 531 LINE",
"510 682 LINE",
"608 682 LINE",
"608 727 LINE",
"370 727 LINE",
"370 682 LINE",
"466 682 LINE",
"466 532 LINE",
"322 532 LINE",
"321 452 LINE",
"570 453 LINE SMOOTH",
"646 453 OFFCURVE",
"663 446 OFFCURVE",
"663 319 CURVE SMOOTH",
"663 219 OFFCURVE",
"660 53 OFFCURVE",
"660 0 CURVE"
);
},
{
closed = 1;
nodes = (
"498 79 LINE",
"249 78 LINE SMOOTH",
"173 78 OFFCURVE",
"156 85 OFFCURVE",
"156 212 CURVE SMOOTH",
"156 312 OFFCURVE",
"159 478 OFFCURVE",
"159 531 CURVE",
"70 531 LINE",
"70 134 LINE SMOOTH",
"70 50 OFFCURVE",
"111 0 OFFCURVE",
"163 0 CURVE SMOOTH",
"497 -1 LINE"
);
}
);
width = 819;
}
);
},
{
glyphname = "ra_ggu-ethiopic.liga";
lastChange = "2019-03-09 00:04:35 +0000";
layers = (
{
layerId = "994FE389-9D54-4FAA-B055-C46A67020E78";
paths = (
{
closed = 1;
nodes = (
"749 0 LINE",
"749 397 LINE SMOOTH",
"749 492 OFFCURVE",
"708 531 OFFCURVE",
"656 531 CURVE SMOOTH",
"510 531 LINE",
"510 688 LINE",
"632 688 LINE",
"632 727 LINE",
"374 727 LINE",
"374 688 LINE",
"471 688 LINE",
"471 532 LINE",
"322 532 LINE",
"321 452 LINE",
"570 453 LINE SMOOTH",
"646 453 OFFCURVE",
"663 446 OFFCURVE",
"663 319 CURVE SMOOTH",
"663 219 OFFCURVE",
"660 53 OFFCURVE",
"660 0 CURVE"
);
},
{
closed = 1;
nodes = (
"498 79 LINE",
"249 78 LINE SMOOTH",
"173 78 OFFCURVE",
"156 85 OFFCURVE",
"156 212 CURVE SMOOTH",
"156 312 OFFCURVE",
"159 478 OFFCURVE",
"159 531 CURVE",
"70 531 LINE",
"70 134 LINE SMOOTH",
"70 50 OFFCURVE",
"111 0 OFFCURVE",
"163 0 CURVE SMOOTH",
"497 -1 LINE"
);
}
);
width = 819;
}
);
},
{
glyphname = "ra_ggi-ethiopic.liga";
lastChange = "2019-03-09 00:04:35 +0000";
layers = (
{
layerId = "994FE389-9D54-4FAA-B055-C46A67020E78";
paths = (
{
closed = 1;
nodes = (
"880 0 LINE",
"880 55 LINE",
"749 55 LINE",
"749 397 LINE SMOOTH",
"749 492 OFFCURVE",
"708 531 OFFCURVE",
"656 531 CURVE SMOOTH",
"523 531 LINE",
"523 682 LINE",
"622 682 LINE",
"622 727 LINE",
"380 727 LINE",
"380 682 LINE",
"477 682 LINE",
"477 532 LINE",
"322 532 LINE",
"321 452 LINE",
"570 453 LINE SMOOTH",
"646 453 OFFCURVE",
"663 446 OFFCURVE",
"663 319 CURVE SMOOTH",
"663 219 OFFCURVE",
"660 53 OFFCURVE",
"660 0 CURVE"
);
},
{
closed = 1;
nodes = (
"498 79 LINE",
"249 78 LINE SMOOTH",
"173 78 OFFCURVE",
"156 85 OFFCURVE",
"156 212 CURVE SMOOTH",
"156 312 OFFCURVE",
"159 478 OFFCURVE",
"159 531 CURVE",
"70 531 LINE",
"70 134 LINE SMOOTH",
"70 50 OFFCURVE",
"111 0 OFFCURVE",
"163 0 CURVE SMOOTH",
"497 -1 LINE"
);
}
);
width = 950;
}
);
},
{
glyphname = "ra_ggaa-ethiopic.liga";
lastChange = "2019-03-09 00:04:35 +0000";
layers = (
{
components = (
{
name = "ggaa-ethiopic";
transform = "{1, 0, 0, 1, 330, 0}";
}
);
layerId = "994FE389-9D54-4FAA-B055-C46A67020E78";
paths = (
{
closed = 1;
nodes = (
"499 79 LINE",
"249 78 LINE SMOOTH",
"173 78 OFFCURVE",
"157 85 OFFCURVE",
"157 212 CURVE SMOOTH",
"157 312 OFFCURVE",
"159 478 OFFCURVE",
"159 531 CURVE",
"70 531 LINE",
"70 134 LINE SMOOTH",
"70 50 OFFCURVE",
"111 0 OFFCURVE",
"163 0 CURVE SMOOTH",
"498 -1 LINE"
);
}
);
width = 862;
}
);
},
{
glyphname = "ra_ggee-ethiopic.liga";
lastChange = "2019-03-09 00:04:35 +0000";
layers = (
{
layerId = "994FE389-9D54-4FAA-B055-C46A67020E78";
paths = (
{
closed = 1;
nodes = (
"778 -4 LINE SMOOTH",
"810 -4 OFFCURVE",
"832 9 OFFCURVE",
"850 29 CURVE SMOOTH",
"866 47 OFFCURVE",
"874 75 OFFCURVE",
"874 106 CURVE SMOOTH",
"874 129 OFFCURVE",
"869 151 OFFCURVE",
"861 170 CURVE SMOOTH",
"846 204 OFFCURVE",
"817 222 OFFCURVE",
"778 222 CURVE SMOOTH",
"749 222 LINE",
"749 393 LINE SMOOTH",
"749 487 OFFCURVE",
"708 526 OFFCURVE",
"656 526 CURVE SMOOTH",
"505 526 LINE",
"505 682 LINE",
"622 682 LINE",
"622 727 LINE",
"380 727 LINE",
"380 682 LINE",
"465 682 LINE",
"465 527 LINE",
"322 527 LINE",
"321 447 LINE",
"570 448 LINE SMOOTH",
"646 448 OFFCURVE",
"663 442 OFFCURVE",
"663 315 CURVE SMOOTH",
"663 215 OFFCURVE",
"660 48 OFFCURVE",
"660 -4 CURVE"
);
},
{
closed = 1;
nodes = (
"498 79 LINE",
"249 78 LINE SMOOTH",
"173 78 OFFCURVE",
"156 85 OFFCURVE",
"156 212 CURVE SMOOTH",
"156 312 OFFCURVE",
"159 478 OFFCURVE",
"159 531 CURVE",
"70 531 LINE",
"70 134 LINE SMOOTH",
"70 50 OFFCURVE",
"111 0 OFFCURVE",
"163 0 CURVE SMOOTH",
"497 -1 LINE"
);
},
{
closed = 1;
nodes = (
"749 197 LINE",
"752 197 LINE SMOOTH",
"762 197 OFFCURVE",
"770 196 OFFCURVE",
"776 193 CURVE SMOOTH",
"789 187 OFFCURVE",
"800 183 OFFCURVE",
"806 169 CURVE",
"811 159 OFFCURVE",
"815 149 OFFCURVE",
"819 134 CURVE SMOOTH",
"821 126 OFFCURVE",
"822 117 OFFCURVE",
"822 110 CURVE SMOOTH",
"822 83 OFFCURVE",
"816 59 OFFCURVE",
"806 44 CURVE SMOOTH",
"796 28 OFFCURVE",
"775 22 OFFCURVE",
"751 22 CURVE SMOOTH",
"749 22 LINE"
);
}
);
width = 944;
}
);
},
{
glyphname = "ra_gge-ethiopic.liga";
lastChange = "2019-03-09 00:04:35 +0000";
layers = (
{
layerId = "994FE389-9D54-4FAA-B055-C46A67020E78";
paths = (
{
closed = 1;
nodes = (
"754 0 LINE",
"754 397 LINE SMOOTH",
"754 492 OFFCURVE",
"713 531 OFFCURVE",
"661 531 CURVE SMOOTH",
"582 531 LINE",
"582 682 LINE",
"696 682 LINE",
"696 727 LINE",
"380 727 LINE",
"380 682 LINE",
"532 682 LINE",
"532 531 LINE",
"326 532 LINE",
"325 452 LINE",
"326 452 LINE",
"326 420 LINE SMOOTH",
"326 388 OFFCURVE",
"340 366 OFFCURVE",
"360 348 CURVE SMOOTH",
"378 332 OFFCURVE",
"405 325 OFFCURVE",
"436 325 CURVE SMOOTH",
"460 325 OFFCURVE",
"482 329 OFFCURVE",
"501 337 CURVE SMOOTH",
"535 352 OFFCURVE",
"553 381 OFFCURVE",
"553 420 CURVE SMOOTH",
"553 453 LINE",
"575 453 LINE SMOOTH",
"651 453 OFFCURVE",
"667 446 OFFCURVE",
"667 319 CURVE SMOOTH",
"667 219 OFFCURVE",
"665 53 OFFCURVE",
"665 0 CURVE"
);
},
{
closed = 1;
nodes = (
"498 79 LINE",
"249 78 LINE SMOOTH",
"173 78 OFFCURVE",
"156 85 OFFCURVE",
"156 212 CURVE SMOOTH",
"156 312 OFFCURVE",
"159 478 OFFCURVE",
"159 531 CURVE",
"70 531 LINE",
"70 134 LINE SMOOTH",
"70 50 OFFCURVE",
"111 0 OFFCURVE",
"163 0 CURVE SMOOTH",
"497 -1 LINE"
);
},
{
closed = 1;
nodes = (
"414 376 OFFCURVE",
"390 382 OFFCURVE",
"375 392 CURVE SMOOTH",
"359 402 OFFCURVE",
"353 423 OFFCURVE",
"353 447 CURVE SMOOTH",
"353 452 LINE",
"528 453 LINE",
"528 446 LINE SMOOTH",
"528 436 OFFCURVE",
"526 428 OFFCURVE",
"524 422 CURVE",
"518 409 OFFCURVE",
"514 398 OFFCURVE",
"500 392 CURVE",
"490 387 OFFCURVE",
"480 383 OFFCURVE",
"465 379 CURVE",
"456 377 OFFCURVE",
"448 376 OFFCURVE",
"441 376 CURVE SMOOTH"
);
}
);
width = 824;
}
);
},
{
glyphname = "ra_ggo-ethiopic.liga";
lastChange = "2019-03-09 00:04:35 +0000";
layers = (
{
layerId = "994FE389-9D54-4FAA-B055-C46A67020E78";
paths = (
{
closed = 1;
nodes = (
"754 0 LINE",
"754 397 LINE SMOOTH",
"754 492 OFFCURVE",
"713 531 OFFCURVE",
"661 531 CURVE SMOOTH",
"616 531 LINE",
"616 606 LINE SMOOTH",
"616 638 OFFCURVE",
"607 663 OFFCURVE",
"589 679 CURVE",
"717 679 LINE",
"717 727 LINE",
"383 727 LINE",
"383 679 LINE",
"465 679 LINE",
"463 677 LINE",
"447 659 OFFCURVE",
"436 637 OFFCURVE",
"436 606 CURVE SMOOTH",
"436 532 LINE",
"326 532 LINE",
"325 452 LINE",
"574 453 LINE SMOOTH",
"651 453 OFFCURVE",
"667 446 OFFCURVE",
"667 319 CURVE SMOOTH",
"667 219 OFFCURVE",
"664 53 OFFCURVE",
"664 0 CURVE"
);
},
{
closed = 1;
nodes = (
"498 79 LINE",
"249 78 LINE SMOOTH",
"173 78 OFFCURVE",
"156 85 OFFCURVE",
"156 212 CURVE SMOOTH",
"156 312 OFFCURVE",
"159 478 OFFCURVE",
"159 531 CURVE",
"70 531 LINE",
"70 134 LINE SMOOTH",
"70 50 OFFCURVE",
"111 0 OFFCURVE",
"163 0 CURVE SMOOTH",
"497 -1 LINE"
);
},
{
closed = 1;
nodes = (
"457 532 LINE",
"457 578 LINE SMOOTH",
"457 603 OFFCURVE",
"462 624 OFFCURVE",
"474 634 CURVE SMOOTH",
"486 644 OFFCURVE",
"505 649 OFFCURVE",
"527 649 CURVE SMOOTH",
"533 649 OFFCURVE",
"540 648 OFFCURVE",
"546 646 CURVE",
"558 643 OFFCURVE",
"566 638 OFFCURVE",
"574 634 CURVE",
"585 627 OFFCURVE",
"590 616 OFFCURVE",
"594 604 CURVE",
"595 597 OFFCURVE",
"596 589 OFFCURVE",
"596 579 CURVE SMOOTH",
"596 531 LINE"
);
}
);
width = 824;
}
);
},
{
glyphname = "ra_ggwaa-ethiopic.liga";
lastChange = "2019-03-09 00:04:35 +0000";
layers = (
{
layerId = "994FE389-9D54-4FAA-B055-C46A67020E78";
paths = (
{
closed = 1;
nodes = (
"983 -182 LINE",
"983 -7 LINE",
"982 -7 LINE",
"982 6 LINE",
"913 6 LINE",
"913 397 LINE SMOOTH",
"913 492 OFFCURVE",
"872 531 OFFCURVE",
"820 531 CURVE SMOOTH",
"674 531 LINE",
"674 682 LINE",
"772 682 LINE",
"772 727 LINE",
"534 727 LINE",
"534 682 LINE",
"630 682 LINE",
"630 532 LINE",
"485 532 LINE",
"485 452 LINE",
"734 453 LINE SMOOTH",
"810 453 OFFCURVE",
"826 446 OFFCURVE",
"826 319 CURVE SMOOTH",
"826 223 OFFCURVE",
"824 65 OFFCURVE",
"824 6 CURVE",
"652 6 LINE",
"652 -18 LINE",
"902 -18 LINE",
"902 -182 LINE"
);
},
{
closed = 1;
nodes = (
"498 79 LINE",
"249 78 LINE SMOOTH",
"173 78 OFFCURVE",
"156 85 OFFCURVE",
"156 212 CURVE SMOOTH",
"156 312 OFFCURVE",
"159 478 OFFCURVE",
"159 531 CURVE",
"70 531 LINE",
"70 134 LINE SMOOTH",
"70 50 OFFCURVE",
"111 0 OFFCURVE",
"163 0 CURVE SMOOTH",
"497 -1 LINE"
);
}
);
width = 1053;
}
);
},
{
glyphname = "ru_xa-ethiopic.liga";
lastChange = "2019-03-09 00:04:35 +0000";
layers = (
{
layerId = "994FE389-9D54-4FAA-B055-C46A67020E78";
paths = (
{
closed = 1;
nodes = (
"792 0 LINE",
"792 439 LINE SMOOTH",
"792 531 OFFCURVE",
"792 531 OFFCURVE",
"688 531 CURVE SMOOTH",
"459 531 LINE",
"459 727 LINE",
"368 727 LINE",
"368 654 LINE",
"237 654 LINE",
"237 571 LINE",
"368 571 LINE",
"368 505 LINE SMOOTH",
"368 477 OFFCURVE",
"386 458 OFFCURVE",
"415 458 CURVE SMOOTH",
"643 458 LINE SMOOTH",
"701 458 OFFCURVE",
"701 458 OFFCURVE",
"701 278 CURVE SMOOTH",
"701 0 LINE"
);
},
{
closed = 1;
nodes = (
"400 -175 LINE",
"400 -1 LINE",
"497 -1 LINE",
"498 79 LINE",
"249 78 LINE SMOOTH",
"173 78 OFFCURVE",
"156 85 OFFCURVE",
"156 212 CURVE SMOOTH",
"156 312 OFFCURVE",
"159 478 OFFCURVE",
"159 531 CURVE",
"70 531 LINE",
"70 134 LINE SMOOTH",
"70 39 OFFCURVE",
"111 0 OFFCURVE",
"163 0 CURVE SMOOTH",
"321 0 LINE",
"321 -175 LINE"
);
}
);
width = 862;
}
);
note = uni1280;
},
{
glyphname = "ru_xu-ethiopic.liga";
lastChange = "2019-03-09 00:04:35 +0000";
layers = (
{
layerId = "994FE389-9D54-4FAA-B055-C46A67020E78";
paths = (
{
closed = 1;
nodes = (
"747 0 LINE",
"747 246 LINE",
"846 246 LINE",
"846 346 LINE",
"747 346 LINE",
"747 439 LINE SMOOTH",
"747 531 OFFCURVE",
"747 531 OFFCURVE",
"643 531 CURVE SMOOTH",
"414 531 LINE",
"414 727 LINE",
"323 727 LINE",
"323 654 LINE",
"192 654 LINE",
"192 571 LINE",
"323 571 LINE",
"323 505 LINE SMOOTH",
"323 477 OFFCURVE",
"340 458 OFFCURVE",
"369 458 CURVE SMOOTH",
"598 458 LINE SMOOTH",
"656 458 OFFCURVE",
"656 458 OFFCURVE",
"656 278 CURVE SMOOTH",
"656 0 LINE"
);
},
{
closed = 1;
nodes = (
"400 -175 LINE",
"400 -1 LINE",
"498 -1 LINE",
"498 79 LINE",
"249 78 LINE SMOOTH",
"173 78 OFFCURVE",
"157 85 OFFCURVE",
"157 212 CURVE SMOOTH",
"157 312 OFFCURVE",
"159 478 OFFCURVE",
"159 531 CURVE",
"70 531 LINE",
"70 134 LINE SMOOTH",
"70 39 OFFCURVE",
"111 0 OFFCURVE",
"163 0 CURVE SMOOTH",
"321 0 LINE",
"321 -175 LINE"
);
}
);
width = 916;
}
);
note = uni1281;
},
{
glyphname = "ru_xi-ethiopic.liga";
lastChange = "2019-03-09 00:04:35 +0000";
layers = (
{
layerId = "994FE389-9D54-4FAA-B055-C46A67020E78";
paths = (
{
closed = 1;
nodes = (
"865 0 LINE",
"865 100 LINE",
"765 100 LINE",
"765 439 LINE SMOOTH",
"765 531 OFFCURVE",
"765 531 OFFCURVE",
"661 531 CURVE SMOOTH",
"432 531 LINE",
"432 727 LINE",
"341 727 LINE",
"341 654 LINE",
"210 654 LINE",
"210 571 LINE",
"341 571 LINE",
"341 505 LINE SMOOTH",
"341 477 OFFCURVE",
"358 458 OFFCURVE",
"387 458 CURVE SMOOTH",
"616 458 LINE SMOOTH",
"674 458 OFFCURVE",
"674 458 OFFCURVE",
"674 278 CURVE SMOOTH",
"674 0 LINE"
);
},
{
closed = 1;
nodes = (
"400 -175 LINE",
"400 -1 LINE",
"497 -1 LINE",
"498 79 LINE",
"249 78 LINE SMOOTH",
"173 78 OFFCURVE",
"156 85 OFFCURVE",
"156 212 CURVE SMOOTH",
"156 312 OFFCURVE",
"159 478 OFFCURVE",
"159 531 CURVE",
"70 531 LINE",
"70 134 LINE SMOOTH",
"70 39 OFFCURVE",
"111 0 OFFCURVE",
"163 0 CURVE SMOOTH",
"321 0 LINE",
"321 -175 LINE"
);
}
);
width = 935;
}
);
note = uni1282;
},
{
glyphname = "ru_xee-ethiopic.liga";
lastChange = "2019-03-09 00:04:35 +0000";
layers = (
{
layerId = "994FE389-9D54-4FAA-B055-C46A67020E78";
paths = (
{
closed = 1;
nodes = (
"838 0 LINE SMOOTH",
"883 0 OFFCURVE",
"915 16 OFFCURVE",
"933 46 CURVE SMOOTH",
"943 63 OFFCURVE",
"949 82 OFFCURVE",
"949 103 CURVE SMOOTH",
"949 131 OFFCURVE",
"941 155 OFFCURVE",
"922 170 CURVE SMOOTH",
"900 188 OFFCURVE",
"875 200 OFFCURVE",
"839 200 CURVE SMOOTH",
"828 200 LINE",
"828 439 LINE SMOOTH",
"828 531 OFFCURVE",
"828 531 OFFCURVE",
"724 531 CURVE SMOOTH",
"495 531 LINE",
"495 727 LINE",
"404 727 LINE",
"404 654 LINE",
"273 654 LINE",
"273 571 LINE",
"404 571 LINE",
"404 505 LINE SMOOTH",
"404 477 OFFCURVE",
"422 458 OFFCURVE",
"451 458 CURVE SMOOTH",
"679 458 LINE SMOOTH",
"737 458 OFFCURVE",
"737 458 OFFCURVE",
"737 278 CURVE SMOOTH",
"737 0 LINE"
);
},
{
closed = 1;
nodes = (
"400 -175 LINE",
"400 -1 LINE",
"497 -1 LINE",
"498 79 LINE",
"249 78 LINE SMOOTH",
"173 78 OFFCURVE",
"156 85 OFFCURVE",
"156 212 CURVE SMOOTH",
"156 312 OFFCURVE",
"159 478 OFFCURVE",
"159 531 CURVE",
"70 531 LINE",
"70 134 LINE SMOOTH",
"70 39 OFFCURVE",
"111 0 OFFCURVE",
"163 0 CURVE SMOOTH",
"321 0 LINE",
"321 -175 LINE"
);
},
{
closed = 1;
nodes = (
"828 175 LINE",
"846 173 OFFCURVE",
"861 166 OFFCURVE",
"870 157 CURVE SMOOTH",
"883 144 OFFCURVE",
"888 124 OFFCURVE",
"888 99 CURVE SMOOTH",
"888 92 OFFCURVE",
"887 86 OFFCURVE",
"885 78 CURVE SMOOTH",
"882 65 OFFCURVE",
"877 55 OFFCURVE",
"871 46 CURVE",
"863 36 OFFCURVE",
"851 29 OFFCURVE",
"836 26 CURVE",
"828 24 LINE"
);
}
);
width = 1019;
}
);
note = uni1284;
},
{
glyphname = "ru_xe-ethiopic.liga";
lastChange = "2019-03-09 00:04:35 +0000";
layers = (
{
layerId = "994FE389-9D54-4FAA-B055-C46A67020E78";
paths = (
{
closed = 1;
nodes = (
"814 0 LINE",
"814 439 LINE SMOOTH",
"814 531 OFFCURVE",
"814 531 OFFCURVE",
"710 531 CURVE SMOOTH",
"481 531 LINE",
"481 727 LINE",
"390 727 LINE",
"390 638 LINE",
"264 638 LINE",
"264 635 LINE",
"260 635 LINE",
"260 482 LINE",
"326 482 LINE",
"326 568 LINE SMOOTH",
"326 581 OFFCURVE",
"337 591 OFFCURVE",
"349 591 CURVE SMOOTH",
"390 591 LINE",
"390 458 LINE",
"665 458 LINE SMOOTH",
"723 458 OFFCURVE",
"723 458 OFFCURVE",
"723 278 CURVE SMOOTH",
"723 0 LINE"
);
},
{
closed = 1;
nodes = (
"400 -175 LINE",
"400 -1 LINE",
"497 -1 LINE",
"498 79 LINE",
"249 78 LINE SMOOTH",
"173 78 OFFCURVE",
"157 85 OFFCURVE",
"157 212 CURVE SMOOTH",
"157 312 OFFCURVE",
"159 478 OFFCURVE",
"159 531 CURVE",
"70 531 LINE",
"70 134 LINE SMOOTH",
"70 39 OFFCURVE",
"111 0 OFFCURVE",
"163 0 CURVE SMOOTH",
"321 0 LINE",
"321 -175 LINE"
);
}
);
width = 884;
}
);
note = uni1285;
},
{
glyphname = "ru_xwa-ethiopic.liga";
lastChange = "2019-03-09 00:04:35 +0000";
layers = (
{
layerId = "994FE389-9D54-4FAA-B055-C46A67020E78";
paths = (
{
closed = 1;
nodes = (
"731 0 LINE",
"731 215 LINE",
"749 215 LINE SMOOTH",
"794 215 OFFCURVE",
"826 228 OFFCURVE",
"844 253 CURVE SMOOTH",
"854 266 OFFCURVE",
"860 283 OFFCURVE",
"860 300 CURVE SMOOTH",
"860 323 OFFCURVE",
"851 343 OFFCURVE",
"832 356 CURVE SMOOTH",
"810 371 OFFCURVE",
"786 380 OFFCURVE",
"750 380 CURVE SMOOTH",
"731 380 LINE",
"731 439 LINE SMOOTH",
"731 531 OFFCURVE",
"731 531 OFFCURVE",
"628 531 CURVE SMOOTH",
"517 531 LINE",
"517 727 LINE",
"426 727 LINE",
"426 605 LINE",
"344 605 LINE",
"344 531 LINE",
"426 531 LINE",
"426 458 LINE",
"582 458 LINE SMOOTH",
"640 458 OFFCURVE",
"640 458 OFFCURVE",
"640 278 CURVE SMOOTH",
"640 0 LINE"
);
},
{
closed = 1;
nodes = (
"400 -175 LINE",
"400 -1 LINE",
"497 -1 LINE",
"498 79 LINE",
"249 78 LINE SMOOTH",
"172 78 OFFCURVE",
"156 85 OFFCURVE",
"156 212 CURVE SMOOTH",
"156 312 OFFCURVE",
"159 478 OFFCURVE",
"159 531 CURVE",
"70 531 LINE",
"70 134 LINE SMOOTH",
"70 39 OFFCURVE",
"110 0 OFFCURVE",
"162 0 CURVE SMOOTH",
"320 0 LINE",
"320 -175 LINE"
);
},
{
closed = 1;
nodes = (
"731 361 LINE",
"753 360 OFFCURVE",
"770 354 OFFCURVE",
"780 345 CURVE SMOOTH",
"793 334 OFFCURVE",
"799 316 OFFCURVE",
"799 296 CURVE SMOOTH",
"799 291 OFFCURVE",
"798 286 OFFCURVE",
"796 279 CURVE",
"792 268 OFFCURVE",
"788 260 OFFCURVE",
"781 253 CURVE",
"773 244 OFFCURVE",
"761 239 OFFCURVE",
"747 236 CURVE SMOOTH",
"742 235 OFFCURVE",
"737 234 OFFCURVE",
"731 234 CURVE"
);
}
);
width = 930;
}
);
},
{
glyphname = "ru_xwi-ethiopic.liga";
lastChange = "2019-03-09 00:04:35 +0000";
layers = (
{
layerId = "994FE389-9D54-4FAA-B055-C46A67020E78";
paths = (
{
closed = 1;
nodes = (
"721 0 LINE",
"721 273 LINE",
"763 273 LINE",
"763 229 LINE",
"924 229 LINE",
"924 276 LINE",
"811 276 LINE",
"811 391 LINE",
"769 391 LINE",
"769 323 LINE",
"721 323 LINE",
"721 439 LINE SMOOTH",
"721 531 OFFCURVE",
"721 531 OFFCURVE",
"617 531 CURVE SMOOTH",
"506 531 LINE",
"506 727 LINE",
"416 727 LINE",
"416 605 LINE",
"334 605 LINE",
"334 531 LINE",
"416 531 LINE",
"416 458 LINE",
"572 458 LINE SMOOTH",
"630 458 OFFCURVE",
"630 458 OFFCURVE",
"630 278 CURVE SMOOTH",
"630 0 LINE"
);
},
{
closed = 1;
nodes = (
"400 -175 LINE",
"400 -1 LINE",
"497 -1 LINE",
"498 79 LINE",
"249 78 LINE SMOOTH",
"173 78 OFFCURVE",
"156 85 OFFCURVE",
"156 212 CURVE SMOOTH",
"156 312 OFFCURVE",
"159 478 OFFCURVE",
"159 531 CURVE",
"70 531 LINE",
"70 134 LINE SMOOTH",
"70 39 OFFCURVE",
"111 0 OFFCURVE",
"163 0 CURVE SMOOTH",
"321 0 LINE",
"321 -175 LINE"
);
}
);
width = 994;
}
);
},
{
glyphname = "ru_xwaa-ethiopic.liga";
lastChange = "2019-03-09 00:04:35 +0000";
layers = (
{
layerId = "994FE389-9D54-4FAA-B055-C46A67020E78";
paths = (
{
closed = 1;
nodes = (
"988 -182 LINE",
"988 0 LINE",
"843 0 LINE",
"843 439 LINE SMOOTH",
"843 531 OFFCURVE",
"843 531 OFFCURVE",
"739 531 CURVE SMOOTH",
"510 531 LINE",
"510 727 LINE",
"419 727 LINE",
"419 649 LINE",
"302 649 LINE",
"302 555 LINE",
"419 555 LINE",
"419 505 LINE SMOOTH",
"419 477 OFFCURVE",
"437 458 OFFCURVE",
"466 458 CURVE SMOOTH",
"694 458 LINE SMOOTH",
"752 458 OFFCURVE",
"752 458 OFFCURVE",
"752 278 CURVE SMOOTH",
"752 0 LINE",
"631 0 LINE",
"631 -56 LINE",
"891 -56 LINE",
"891 -182 LINE"
);
},
{
closed = 1;
nodes = (
"400 -175 LINE",
"400 -1 LINE",
"498 -1 LINE",
"498 79 LINE",
"249 78 LINE SMOOTH",
"173 78 OFFCURVE",
"157 85 OFFCURVE",
"157 212 CURVE SMOOTH",
"157 312 OFFCURVE",
"159 478 OFFCURVE",
"159 531 CURVE",
"70 531 LINE",
"70 134 LINE SMOOTH",
"70 39 OFFCURVE",
"111 0 OFFCURVE",
"163 0 CURVE SMOOTH",
"321 0 LINE",
"321 -175 LINE"
);
}
);
width = 1058;
}
);
},
{
glyphname = "ru_xwee-ethiopic.liga";
lastChange = "2019-03-09 00:04:35 +0000";
layers = (
{
layerId = "994FE389-9D54-4FAA-B055-C46A67020E78";
paths = (
{
closed = 1;
nodes = (
"928 -1 LINE",
"928 6 LINE",
"936 3 OFFCURVE",
"944 0 OFFCURVE",
"953 0 CURVE SMOOTH",
"1008 0 OFFCURVE",
"1050 45 OFFCURVE",
"1050 96 CURVE SMOOTH",
"1050 151 OFFCURVE",
"1009 196 OFFCURVE",
"953 196 CURVE SMOOTH",
"944 196 OFFCURVE",
"936 195 OFFCURVE",
"928 192 CURVE",
"928 439 LINE SMOOTH",
"928 531 OFFCURVE",
"928 531 OFFCURVE",
"824 531 CURVE SMOOTH",
"595 531 LINE",
"595 727 LINE",
"504 727 LINE",
"504 649 LINE",
"387 649 LINE",
"387 555 LINE",
"504 555 LINE",
"504 505 LINE SMOOTH",
"504 477 OFFCURVE",
"521 458 OFFCURVE",
"550 458 CURVE SMOOTH",
"779 458 LINE SMOOTH",
"837 458 OFFCURVE",
"837 458 OFFCURVE",
"837 278 CURVE SMOOTH",
"837 56 LINE",
"685 56 LINE",
"685 -1 LINE"
);
},
{
closed = 1;
nodes = (
"400 -175 LINE",
"400 -1 LINE",
"497 -1 LINE",
"498 79 LINE",
"249 78 LINE SMOOTH",
"172 78 OFFCURVE",
"156 85 OFFCURVE",
"156 212 CURVE SMOOTH",
"156 312 OFFCURVE",
"159 478 OFFCURVE",
"159 531 CURVE",
"70 531 LINE",
"70 134 LINE SMOOTH",
"70 39 OFFCURVE",
"110 0 OFFCURVE",
"162 0 CURVE SMOOTH",
"320 0 LINE",
"320 -175 LINE"
);
},
{
closed = 1;
nodes = (
"943 54 OFFCURVE",
"935 56 OFFCURVE",
"928 62 CURVE",
"928 134 LINE",
"935 139 OFFCURVE",
"943 142 OFFCURVE",
"953 142 CURVE SMOOTH",
"978 142 OFFCURVE",
"998 122 OFFCURVE",
"998 99 CURVE SMOOTH",
"998 73 OFFCURVE",
"978 54 OFFCURVE",
"953 54 CURVE SMOOTH"
);
}
);
width = 1120;
}
);
},
{
glyphname = "ru_xwe-ethiopic.liga";
lastChange = "2019-03-09 00:04:35 +0000";
layers = (
{
layerId = "994FE389-9D54-4FAA-B055-C46A67020E78";
paths = (
{
closed = 1;
nodes = (
"1028 -182 LINE",
"1028 0 LINE",
"883 0 LINE",
"883 273 LINE",
"960 273 LINE",
"960 229 LINE",
"1121 229 LINE",
"1121 276 LINE",
"1008 276 LINE",
"1008 391 LINE",
"966 391 LINE",
"966 323 LINE",
"883 323 LINE",
"883 439 LINE SMOOTH",
"883 531 OFFCURVE",
"883 531 OFFCURVE",
"779 531 CURVE SMOOTH",
"550 531 LINE",
"550 727 LINE",
"459 727 LINE",
"459 649 LINE",
"342 649 LINE",
"342 555 LINE",
"459 555 LINE",
"459 505 LINE SMOOTH",
"459 477 OFFCURVE",
"476 458 OFFCURVE",
"505 458 CURVE SMOOTH",
"734 458 LINE SMOOTH",
"792 458 OFFCURVE",
"792 458 OFFCURVE",
"792 278 CURVE SMOOTH",
"792 0 LINE",
"671 0 LINE",
"671 -56 LINE",
"931 -56 LINE",
"931 -182 LINE"
);
},
{
closed = 1;
nodes = (
"400 -175 LINE",
"400 -1 LINE",
"497 -1 LINE",
"498 79 LINE",
"249 78 LINE SMOOTH",
"173 78 OFFCURVE",
"156 85 OFFCURVE",
"156 212 CURVE SMOOTH",
"156 312 OFFCURVE",
"159 478 OFFCURVE",
"159 531 CURVE",
"70 531 LINE",
"70 134 LINE SMOOTH",
"70 39 OFFCURVE",
"111 0 OFFCURVE",
"163 0 CURVE SMOOTH",
"321 0 LINE",
"321 -175 LINE"
);
}
);
width = 1191;
}
);
},
{
glyphname = "ru_na-ethiopic.liga";
lastChange = "2019-03-09 00:04:35 +0000";
layers = (
{
layerId = "994FE389-9D54-4FAA-B055-C46A67020E78";
paths = (
{
closed = 1;
nodes = (
"720 0 LINE",
"720 439 LINE SMOOTH",
"720 531 OFFCURVE",
"720 531 OFFCURVE",
"617 531 CURVE SMOOTH",
"388 531 LINE",
"388 727 LINE",
"297 727 LINE",
"297 505 LINE SMOOTH",
"297 477 OFFCURVE",
"314 458 OFFCURVE",
"343 458 CURVE SMOOTH",
"571 458 LINE SMOOTH",
"630 458 OFFCURVE",
"630 458 OFFCURVE",
"630 278 CURVE SMOOTH",
"630 0 LINE"
);
},
{
closed = 1;
nodes = (
"400 -175 LINE",
"400 -1 LINE",
"497 -1 LINE",
"498 79 LINE",
"249 78 LINE SMOOTH",
"172 78 OFFCURVE",
"156 85 OFFCURVE",
"156 212 CURVE SMOOTH",
"156 312 OFFCURVE",
"159 478 OFFCURVE",
"159 531 CURVE",
"70 531 LINE",
"70 134 LINE SMOOTH",
"70 39 OFFCURVE",
"110 0 OFFCURVE",
"162 0 CURVE SMOOTH",
"320 0 LINE",
"320 -175 LINE"
);
}
);
width = 790;
}
);
},
{
glyphname = "ru_nu-ethiopic.liga";
lastChange = "2019-03-09 00:04:35 +0000";
layers = (
{
layerId = "994FE389-9D54-4FAA-B055-C46A67020E78";
paths = (
{
closed = 1;
nodes = (
"721 0 LINE",
"721 244 LINE",
"825 244 LINE",
"825 348 LINE",
"721 348 LINE",
"721 439 LINE SMOOTH",
"721 531 OFFCURVE",
"721 531 OFFCURVE",
"617 531 CURVE SMOOTH",
"388 531 LINE",
"388 727 LINE",
"297 727 LINE",
"297 505 LINE SMOOTH",
"297 477 OFFCURVE",
"314 458 OFFCURVE",
"343 458 CURVE SMOOTH",
"571 458 LINE SMOOTH",
"630 458 OFFCURVE",
"630 458 OFFCURVE",
"630 278 CURVE SMOOTH",
"630 0 LINE"
);
},
{
closed = 1;
nodes = (
"400 -175 LINE",
"400 -1 LINE",
"497 -1 LINE",
"498 79 LINE",
"249 78 LINE SMOOTH",
"172 78 OFFCURVE",
"156 85 OFFCURVE",
"156 212 CURVE SMOOTH",
"156 312 OFFCURVE",
"159 478 OFFCURVE",
"159 531 CURVE",
"70 531 LINE",
"70 134 LINE SMOOTH",
"70 39 OFFCURVE",
"111 0 OFFCURVE",
"162 0 CURVE SMOOTH",
"321 0 LINE",
"321 -175 LINE"
);
}
);
width = 895;
}
);
},
{
glyphname = "ru_ni-ethiopic.liga";
lastChange = "2019-03-09 00:04:35 +0000";
layers = (
{
layerId = "994FE389-9D54-4FAA-B055-C46A67020E78";
paths = (
{
closed = 1;
nodes = (
"884 0 LINE",
"884 86 LINE",
"763 86 LINE",
"763 439 LINE SMOOTH",
"763 531 OFFCURVE",
"763 531 OFFCURVE",
"659 531 CURVE SMOOTH",
"430 531 LINE",
"430 727 LINE",
"339 727 LINE",
"339 505 LINE SMOOTH",
"339 477 OFFCURVE",
"356 458 OFFCURVE",
"386 458 CURVE SMOOTH",
"614 458 LINE SMOOTH",
"672 458 OFFCURVE",
"672 458 OFFCURVE",
"672 278 CURVE SMOOTH",
"672 0 LINE"
);
},
{
closed = 1;
nodes = (
"400 -175 LINE",
"400 -1 LINE",
"497 -1 LINE",
"498 79 LINE",
"249 78 LINE SMOOTH",
"173 78 OFFCURVE",
"156 85 OFFCURVE",
"156 212 CURVE SMOOTH",
"156 312 OFFCURVE",
"159 478 OFFCURVE",
"159 531 CURVE",
"70 531 LINE",
"70 134 LINE SMOOTH",
"70 39 OFFCURVE",
"111 0 OFFCURVE",
"163 0 CURVE SMOOTH",
"321 0 LINE",
"321 -175 LINE"
);
}
);
width = 954;
}
);
},
{
glyphname = "ru_nee-ethiopic.liga";
lastChange = "2019-03-09 00:04:35 +0000";
layers = (
{
layerId = "994FE389-9D54-4FAA-B055-C46A67020E78";
paths = (
{
closed = 1;
nodes = (
"830 0 LINE SMOOTH",
"876 0 OFFCURVE",
"908 17 OFFCURVE",
"926 50 CURVE SMOOTH",
"936 67 OFFCURVE",
"941 89 OFFCURVE",
"941 112 CURVE SMOOTH",
"941 142 OFFCURVE",
"933 167 OFFCURVE",
"914 185 CURVE SMOOTH",
"892 205 OFFCURVE",
"868 217 OFFCURVE",
"831 217 CURVE SMOOTH",
"801 217 LINE",
"801 439 LINE SMOOTH",
"801 531 OFFCURVE",
"801 531 OFFCURVE",
"698 531 CURVE SMOOTH",
"469 531 LINE",
"469 727 LINE",
"378 727 LINE",
"378 505 LINE SMOOTH",
"378 477 OFFCURVE",
"395 458 OFFCURVE",
"424 458 CURVE SMOOTH",
"652 458 LINE SMOOTH",
"710 458 OFFCURVE",
"710 458 OFFCURVE",
"710 278 CURVE SMOOTH",
"710 0 LINE"
);
},
{
closed = 1;
nodes = (
"400 -175 LINE",
"400 -1 LINE",
"498 -1 LINE",
"499 79 LINE",
"250 78 LINE SMOOTH",
"173 78 OFFCURVE",
"157 85 OFFCURVE",
"157 212 CURVE SMOOTH",
"157 312 OFFCURVE",
"160 478 OFFCURVE",
"160 531 CURVE",
"70 531 LINE",
"70 134 LINE SMOOTH",
"70 39 OFFCURVE",
"111 0 OFFCURVE",
"163 0 CURVE SMOOTH",
"321 0 LINE",
"321 -175 LINE"
);
},
{
closed = 1;
nodes = (
"801 193 LINE",
"829 193 OFFCURVE",
"850 185 OFFCURVE",
"862 171 CURVE SMOOTH",
"875 156 OFFCURVE",
"880 134 OFFCURVE",
"880 107 CURVE SMOOTH",
"880 103 OFFCURVE",
"880 93 OFFCURVE",
"878 85 CURVE SMOOTH",
"874 70 OFFCURVE",
"870 59 OFFCURVE",
"863 50 CURVE",
"855 38 OFFCURVE",
"843 32 OFFCURVE",
"829 28 CURVE",
"820 26 OFFCURVE",
"812 24 OFFCURVE",
"801 24 CURVE"
);
}
);
width = 1011;
}
);
note = uni1294;
},
{
glyphname = "ru_ne-ethiopic.liga";
lastChange = "2019-03-09 17:55:24 +0000";
layers = (
{
layerId = "994FE389-9D54-4FAA-B055-C46A67020E78";
paths = (
{
closed = 1;
nodes = (
"400 -175 LINE",
"400 -1 LINE",
"497 -1 LINE",
"498 79 LINE",
"249 78 LINE SMOOTH",
"172 78 OFFCURVE",
"156 85 OFFCURVE",
"156 212 CURVE SMOOTH",
"156 312 OFFCURVE",
"159 478 OFFCURVE",
"159 531 CURVE",
"70 531 LINE",
"70 134 LINE SMOOTH",
"70 39 OFFCURVE",
"111 0 OFFCURVE",
"162 0 CURVE SMOOTH",
"321 0 LINE",
"321 -175 LINE"
);
},
{
closed = 1;
nodes = (
"778 -3 LINE",
"778 211 LINE SMOOTH",
"778 236 OFFCURVE",
"775 253 OFFCURVE",
"738 253 CURVE SMOOTH",
"634 253 LINE",
"788 445 LINE SMOOTH",
"801 461 OFFCURVE",
"790 531 OFFCURVE",
"743 531 CURVE SMOOTH",
"397 531 LINE",
"397 450 LINE",
"697 450 LINE",
"554 266 LINE SMOOTH",
"511 210 OFFCURVE",
"516 191 OFFCURVE",
"544 191 CURVE SMOOTH",
"687 191 LINE",
"687 -3 LINE"
);
}
);
width = 863;
}
);
note = uni1295;
},
{
glyphname = "ru_nya-ethiopic.liga";
lastChange = "2019-03-09 00:04:35 +0000";
layers = (
{
layerId = "994FE389-9D54-4FAA-B055-C46A67020E78";
paths = (
{
closed = 1;
nodes = (
"830 0 LINE",
"830 439 LINE SMOOTH",
"830 531 OFFCURVE",
"830 531 OFFCURVE",
"726 531 CURVE SMOOTH",
"497 531 LINE",
"497 682 LINE",
"620 682 LINE",
"620 727 LINE",
"304 727 LINE",
"304 682 LINE",
"406 682 LINE",
"406 505 LINE SMOOTH",
"406 477 OFFCURVE",
"424 458 OFFCURVE",
"453 458 CURVE SMOOTH",
"681 458 LINE SMOOTH",
"739 458 OFFCURVE",
"739 458 OFFCURVE",
"739 278 CURVE SMOOTH",
"739 0 LINE"
);
},
{
closed = 1;
nodes = (
"400 -175 LINE",
"400 -1 LINE",
"497 -1 LINE",
"498 79 LINE",
"249 78 LINE SMOOTH",
"173 78 OFFCURVE",
"156 85 OFFCURVE",
"156 212 CURVE SMOOTH",
"156 312 OFFCURVE",
"159 478 OFFCURVE",
"159 531 CURVE",
"70 531 LINE",
"70 134 LINE SMOOTH",
"70 39 OFFCURVE",
"111 0 OFFCURVE",
"163 0 CURVE SMOOTH",
"321 0 LINE",
"321 -175 LINE"
);
}
);
width = 900;
}
);
note = uni1298;
},
{
glyphname = "ru_nyu-ethiopic.liga";
lastChange = "2019-03-09 00:04:35 +0000";
layers = (
{
layerId = "994FE389-9D54-4FAA-B055-C46A67020E78";
paths = (
{
closed = 1;
nodes = (
"848 0 LINE",
"848 246 LINE",
"947 246 LINE",
"947 346 LINE",
"848 346 LINE",
"848 439 LINE SMOOTH",
"848 531 OFFCURVE",
"848 531 OFFCURVE",
"745 531 CURVE SMOOTH",
"516 531 LINE",
"516 682 LINE",
"638 682 LINE",
"638 727 LINE",
"322 727 LINE",
"322 682 LINE",
"425 682 LINE",
"425 505 LINE SMOOTH",
"425 477 OFFCURVE",
"442 458 OFFCURVE",
"471 458 CURVE SMOOTH",
"699 458 LINE SMOOTH",
"757 458 OFFCURVE",
"757 458 OFFCURVE",
"757 278 CURVE SMOOTH",
"757 0 LINE"
);
},
{
closed = 1;
nodes = (
"400 -175 LINE",
"400 -1 LINE",
"497 -1 LINE",
"498 79 LINE",
"249 78 LINE SMOOTH",
"173 78 OFFCURVE",
"157 85 OFFCURVE",
"157 212 CURVE SMOOTH",
"157 312 OFFCURVE",
"159 478 OFFCURVE",
"159 531 CURVE",
"70 531 LINE",
"70 134 LINE SMOOTH",
"70 39 OFFCURVE",
"111 0 OFFCURVE",
"163 0 CURVE SMOOTH",
"321 0 LINE",
"321 -175 LINE"
);
}
);
width = 1017;
}
);
note = uni1299;
},
{
glyphname = "ru_nyi-ethiopic.liga";
lastChange = "2019-03-09 00:04:35 +0000";
layers = (
{
layerId = "994FE389-9D54-4FAA-B055-C46A67020E78";
paths = (
{
closed = 1;
nodes = (
"997 0 LINE",
"997 100 LINE",
"898 100 LINE",
"898 439 LINE SMOOTH",
"898 531 OFFCURVE",
"898 531 OFFCURVE",
"795 531 CURVE SMOOTH",
"566 531 LINE",
"566 682 LINE",
"706 682 LINE",
"706 727 LINE",
"372 727 LINE",
"372 682 LINE",
"475 682 LINE",
"475 505 LINE SMOOTH",
"475 477 OFFCURVE",
"492 458 OFFCURVE",
"521 458 CURVE SMOOTH",
"749 458 LINE SMOOTH",
"807 458 OFFCURVE",
"807 458 OFFCURVE",
"807 278 CURVE SMOOTH",
"807 0 LINE"
);
},
{
closed = 1;
nodes = (
"400 -175 LINE",
"400 -1 LINE",
"497 -1 LINE",
"498 79 LINE",
"249 78 LINE SMOOTH",
"173 78 OFFCURVE",
"157 85 OFFCURVE",
"157 212 CURVE SMOOTH",
"157 312 OFFCURVE",
"159 478 OFFCURVE",
"159 531 CURVE",
"70 531 LINE",
"70 134 LINE SMOOTH",
"70 39 OFFCURVE",
"111 0 OFFCURVE",
"163 0 CURVE SMOOTH",
"321 0 LINE",
"321 -175 LINE"
);
}
);
width = 1067;
}
);
note = uni129A;
},
{
glyphname = "ru_nyee-ethiopic.liga";
lastChange = "2019-03-09 00:04:35 +0000";
layers = (
{
layerId = "994FE389-9D54-4FAA-B055-C46A67020E78";
paths = (
{
closed = 1;
nodes = (
"885 0 LINE SMOOTH",
"930 0 OFFCURVE",
"962 16 OFFCURVE",
"980 46 CURVE SMOOTH",
"990 64 OFFCURVE",
"995 85 OFFCURVE",
"995 106 CURVE SMOOTH",
"995 134 OFFCURVE",
"987 158 OFFCURVE",
"968 175 CURVE",
"946 193 OFFCURVE",
"922 205 OFFCURVE",
"885 205 CURVE SMOOTH",
"839 205 LINE",
"839 439 LINE SMOOTH",
"839 531 OFFCURVE",
"839 531 OFFCURVE",
"735 531 CURVE SMOOTH",
"506 531 LINE",
"506 682 LINE",
"675 682 LINE",
"675 727 LINE",
"313 727 LINE",
"313 682 LINE",
"415 682 LINE",
"415 505 LINE SMOOTH",
"415 477 OFFCURVE",
"433 458 OFFCURVE",
"462 458 CURVE SMOOTH",
"690 458 LINE SMOOTH",
"748 458 OFFCURVE",
"748 458 OFFCURVE",
"748 278 CURVE SMOOTH",
"748 0 LINE"
);
},
{
closed = 1;
nodes = (
"400 -175 LINE",
"400 -1 LINE",
"497 -1 LINE",
"498 79 LINE",
"249 78 LINE SMOOTH",
"173 78 OFFCURVE",
"156 85 OFFCURVE",
"156 212 CURVE SMOOTH",
"156 312 OFFCURVE",
"159 478 OFFCURVE",
"159 531 CURVE",
"70 531 LINE",
"70 134 LINE SMOOTH",
"70 39 OFFCURVE",
"111 0 OFFCURVE",
"163 0 CURVE SMOOTH",
"321 0 LINE",
"321 -175 LINE"
);
},
{
closed = 1;
nodes = (
"839 182 LINE",
"853 182 LINE SMOOTH",
"882 182 OFFCURVE",
"904 175 OFFCURVE",
"916 161 CURVE",
"929 147 OFFCURVE",
"935 126 OFFCURVE",
"935 101 CURVE SMOOTH",
"935 95 OFFCURVE",
"934 87 OFFCURVE",
"932 80 CURVE SMOOTH",
"928 66 OFFCURVE",
"924 56 OFFCURVE",
"917 47 CURVE SMOOTH",
"909 36 OFFCURVE",
"897 30 OFFCURVE",
"883 26 CURVE",
"875 25 OFFCURVE",
"865 23 OFFCURVE",
"854 23 CURVE SMOOTH",
"839 23 LINE"
);
}
);
width = 1065;
}
);
note = uni129C;
},
{
glyphname = "ru_ga-ethiopic.liga";
lastChange = "2019-03-09 00:04:35 +0000";
layers = (
{
layerId = "994FE389-9D54-4FAA-B055-C46A67020E78";
paths = (
{
closed = 1;
nodes = (
"400 -175 LINE",
"400 -1 LINE",
"497 -1 LINE",
"498 79 LINE",
"249 78 LINE SMOOTH",
"172 78 OFFCURVE",
"156 85 OFFCURVE",
"156 212 CURVE SMOOTH",
"156 312 OFFCURVE",
"159 478 OFFCURVE",
"159 531 CURVE",
"70 531 LINE",
"70 134 LINE SMOOTH",
"70 39 OFFCURVE",
"110 0 OFFCURVE",
"162 0 CURVE SMOOTH",
"320 0 LINE",
"320 -175 LINE"
);
},
{
closed = 1;
nodes = (
"720 0 LINE",
"720 397 LINE SMOOTH",
"720 481 OFFCURVE",
"679 531 OFFCURVE",
"627 531 CURVE SMOOTH",
"292 532 LINE",
"291 452 LINE",
"540 453 LINE SMOOTH",
"617 453 OFFCURVE",
"633 447 OFFCURVE",
"633 319 CURVE SMOOTH",
"633 219 OFFCURVE",
"630 53 OFFCURVE",
"630 0 CURVE"
);
}
);
width = 790;
}
);
},
{
glyphname = "ru_gu-ethiopic.liga";
lastChange = "2019-03-09 00:04:35 +0000";
layers = (
{
layerId = "994FE389-9D54-4FAA-B055-C46A67020E78";
paths = (
{
closed = 1;
nodes = (
"400 -175 LINE",
"400 -1 LINE",
"497 -1 LINE",
"498 79 LINE",
"249 78 LINE SMOOTH",
"173 78 OFFCURVE",
"156 85 OFFCURVE",
"156 212 CURVE SMOOTH",
"156 312 OFFCURVE",
"159 478 OFFCURVE",
"159 531 CURVE",
"70 531 LINE",
"70 134 LINE SMOOTH",
"70 39 OFFCURVE",
"111 0 OFFCURVE",
"163 0 CURVE SMOOTH",
"321 0 LINE",
"321 -175 LINE"
);
},
{
closed = 1;
nodes = (
"720 0 LINE",
"720 249 LINE",
"823 249 LINE",
"823 354 LINE",
"720 354 LINE",
"720 397 LINE SMOOTH",
"720 481 OFFCURVE",
"679 531 OFFCURVE",
"627 531 CURVE SMOOTH",
"293 532 LINE",
"292 452 LINE",
"541 453 LINE SMOOTH",
"617 453 OFFCURVE",
"633 446 OFFCURVE",
"633 319 CURVE SMOOTH",
"633 219 OFFCURVE",
"631 53 OFFCURVE",
"631 0 CURVE"
);
}
);
width = 893;
}
);
},
{
glyphname = "ru_gi-ethiopic.liga";
lastChange = "2019-03-09 00:04:35 +0000";
layers = (
{
layerId = "994FE389-9D54-4FAA-B055-C46A67020E78";
paths = (
{
closed = 1;
nodes = (
"400 -175 LINE",
"400 -1 LINE",
"497 -1 LINE",
"498 79 LINE",
"249 78 LINE SMOOTH",
"173 78 OFFCURVE",
"156 85 OFFCURVE",
"156 212 CURVE SMOOTH",
"156 312 OFFCURVE",
"159 478 OFFCURVE",
"159 531 CURVE",
"70 531 LINE",
"70 134 LINE SMOOTH",
"70 39 OFFCURVE",
"111 0 OFFCURVE",
"163 0 CURVE SMOOTH",
"321 0 LINE",
"321 -175 LINE"
);
},
{
closed = 1;
nodes = (
"849 0 LINE",
"849 65 LINE",
"740 65 LINE",
"740 397 LINE SMOOTH",
"740 481 OFFCURVE",
"699 531 OFFCURVE",
"647 531 CURVE SMOOTH",
"313 532 LINE",
"312 452 LINE",
"561 453 LINE SMOOTH",
"637 453 OFFCURVE",
"654 446 OFFCURVE",
"654 319 CURVE SMOOTH",
"654 219 OFFCURVE",
"651 53 OFFCURVE",
"651 0 CURVE"
);
}
);
width = 919;
}
);
note = uni130A;
},
{
glyphname = "ru_gaa-ethiopic.liga";
lastChange = "2019-03-09 00:04:35 +0000";
layers = (
{
components = (
{
name = "gaa-ethiopic";
transform = "{1, 0, 0, 1, 350, 0}";
}
);
layerId = "994FE389-9D54-4FAA-B055-C46A67020E78";
paths = (
{
closed = 1;
nodes = (
"400 -175 LINE",
"400 -1 LINE",
"498 -1 LINE",
"499 79 LINE",
"250 78 LINE SMOOTH",
"173 78 OFFCURVE",
"157 85 OFFCURVE",
"157 212 CURVE SMOOTH",
"157 312 OFFCURVE",
"160 478 OFFCURVE",
"160 531 CURVE",
"70 531 LINE",
"70 134 LINE SMOOTH",
"70 39 OFFCURVE",
"111 0 OFFCURVE",
"163 0 CURVE SMOOTH",
"321 0 LINE",
"321 -175 LINE"
);
}
);
width = 899;
}
);
note = uni130B;
},
{
glyphname = "ru_gee-ethiopic.liga";
lastChange = "2019-03-09 00:04:35 +0000";
layers = (
{
layerId = "994FE389-9D54-4FAA-B055-C46A67020E78";
paths = (
{
closed = 1;
nodes = (
"400 -175 LINE",
"400 -1 LINE",
"497 -1 LINE",
"498 79 LINE",
"249 78 LINE SMOOTH",
"172 78 OFFCURVE",
"156 85 OFFCURVE",
"156 212 CURVE SMOOTH",
"156 312 OFFCURVE",
"159 478 OFFCURVE",
"159 531 CURVE",
"70 531 LINE",
"70 134 LINE SMOOTH",
"70 39 OFFCURVE",
"111 0 OFFCURVE",
"162 0 CURVE SMOOTH",
"321 0 LINE",
"321 -175 LINE"
);
},
{
closed = 1;
nodes = (
"769 -4 LINE SMOOTH",
"801 -4 OFFCURVE",
"822 9 OFFCURVE",
"841 29 CURVE SMOOTH",
"857 47 OFFCURVE",
"864 75 OFFCURVE",
"864 106 CURVE SMOOTH",
"864 129 OFFCURVE",
"860 151 OFFCURVE",
"851 170 CURVE",
"837 204 OFFCURVE",
"808 222 OFFCURVE",
"769 222 CURVE SMOOTH",
"740 222 LINE",
"740 393 LINE SMOOTH",
"740 476 OFFCURVE",
"699 526 OFFCURVE",
"647 526 CURVE SMOOTH",
"312 527 LINE",
"311 447 LINE",
"561 448 LINE SMOOTH",
"637 448 OFFCURVE",
"653 442 OFFCURVE",
"653 315 CURVE SMOOTH",
"653 215 OFFCURVE",
"651 48 OFFCURVE",
"651 -4 CURVE"
);
},
{
closed = 1;
nodes = (
"740 197 LINE",
"742 197 LINE SMOOTH",
"752 197 OFFCURVE",
"761 196 OFFCURVE",
"767 193 CURVE SMOOTH",
"780 187 OFFCURVE",
"791 183 OFFCURVE",
"797 169 CURVE SMOOTH",
"801 159 OFFCURVE",
"806 149 OFFCURVE",
"810 134 CURVE",
"811 126 OFFCURVE",
"812 117 OFFCURVE",
"812 110 CURVE SMOOTH",
"812 83 OFFCURVE",
"807 59 OFFCURVE",
"797 44 CURVE SMOOTH",
"787 28 OFFCURVE",
"766 22 OFFCURVE",
"741 22 CURVE SMOOTH",
"740 22 LINE"
);
}
);
width = 934;
}
);
note = uni130C;
},
{
glyphname = "ru_ge-ethiopic.liga";
lastChange = "2019-03-09 00:04:35 +0000";
layers = (
{
layerId = "994FE389-9D54-4FAA-B055-C46A67020E78";
paths = (
{
closed = 1;
nodes = (
"400 -175 LINE",
"400 -1 LINE",
"497 -1 LINE",
"498 79 LINE",
"249 78 LINE SMOOTH",
"172 78 OFFCURVE",
"156 85 OFFCURVE",
"156 212 CURVE SMOOTH",
"156 312 OFFCURVE",
"159 478 OFFCURVE",
"159 531 CURVE",
"70 531 LINE",
"70 134 LINE SMOOTH",
"70 39 OFFCURVE",
"111 0 OFFCURVE",
"162 0 CURVE SMOOTH",
"321 0 LINE",
"321 -175 LINE"
);
},
{
closed = 1;
nodes = (
"744 0 LINE",
"744 397 LINE SMOOTH",
"744 481 OFFCURVE",
"703 531 OFFCURVE",
"651 531 CURVE SMOOTH",
"317 532 LINE",
"316 452 LINE",
"317 452 LINE",
"317 420 LINE SMOOTH",
"317 388 OFFCURVE",
"331 366 OFFCURVE",
"351 348 CURVE SMOOTH",
"369 332 OFFCURVE",
"396 325 OFFCURVE",
"427 325 CURVE SMOOTH",
"451 325 OFFCURVE",
"472 329 OFFCURVE",
"491 337 CURVE SMOOTH",
"525 352 OFFCURVE",
"543 381 OFFCURVE",
"543 420 CURVE SMOOTH",
"543 453 LINE",
"565 453 LINE SMOOTH",
"641 453 OFFCURVE",
"658 446 OFFCURVE",
"658 319 CURVE SMOOTH",
"658 219 OFFCURVE",
"655 53 OFFCURVE",
"655 0 CURVE"
);
},
{
closed = 1;
nodes = (
"404 376 OFFCURVE",
"381 382 OFFCURVE",
"365 392 CURVE SMOOTH",
"350 402 OFFCURVE",
"343 423 OFFCURVE",
"343 447 CURVE SMOOTH",
"343 452 LINE",
"519 453 LINE",
"519 446 LINE SMOOTH",
"519 436 OFFCURVE",
"517 428 OFFCURVE",
"514 422 CURVE",
"509 409 OFFCURVE",
"504 398 OFFCURVE",
"491 392 CURVE SMOOTH",
"481 387 OFFCURVE",
"471 383 OFFCURVE",
"455 379 CURVE SMOOTH",
"447 377 OFFCURVE",
"439 376 OFFCURVE",
"431 376 CURVE SMOOTH"
);
}
);
width = 814;
}
);
note = uni130D;
},
{
glyphname = "ru_go-ethiopic.liga";
lastChange = "2019-03-09 00:04:35 +0000";
layers = (
{
layerId = "994FE389-9D54-4FAA-B055-C46A67020E78";
paths = (
{
closed = 1;
nodes = (
"773 0 LINE",
"773 397 LINE SMOOTH",
"773 492 OFFCURVE",
"733 531 OFFCURVE",
"681 531 CURVE SMOOTH",
"553 531 LINE",
"553 727 LINE",
"484 727 LINE",
"484 532 LINE",
"346 532 LINE",
"345 452 LINE",
"594 453 LINE SMOOTH",
"671 453 OFFCURVE",
"687 446 OFFCURVE",
"687 319 CURVE SMOOTH",
"687 219 OFFCURVE",
"684 53 OFFCURVE",
"684 0 CURVE"
);
},
{
closed = 1;
nodes = (
"400 -175 LINE",
"400 -1 LINE",
"497 -1 LINE",
"498 79 LINE",
"249 78 LINE SMOOTH",
"173 78 OFFCURVE",
"156 85 OFFCURVE",
"156 212 CURVE SMOOTH",
"156 312 OFFCURVE",
"159 478 OFFCURVE",
"159 531 CURVE",
"70 531 LINE",
"70 134 LINE SMOOTH",
"70 39 OFFCURVE",
"111 0 OFFCURVE",
"163 0 CURVE SMOOTH",
"321 0 LINE",
"321 -175 LINE"
);
}
);
width = 843;
}
);
},
{
glyphname = "ru_goa-ethiopic.liga";
lastChange = "2019-03-09 00:04:35 +0000";
layers = (
{
layerId = "994FE389-9D54-4FAA-B055-C46A67020E78";
paths = (
{
closed = 1;
nodes = (
"770 30 LINE",
"770 0 LINE",
"860 0 LINE",
"860 397 LINE SMOOTH",
"860 492 OFFCURVE",
"819 531 OFFCURVE",
"767 531 CURVE SMOOTH",
"670 531 LINE",
"670 727 LINE",
"600 727 LINE",
"600 531 LINE",
"432 532 LINE",
"431 452 LINE",
"680 453 LINE SMOOTH",
"757 453 OFFCURVE",
"773 447 OFFCURVE",
"773 319 CURVE SMOOTH",
"773 234 OFFCURVE",
"771 103 OFFCURVE",
"770 32 CURVE",
"573 -15 LINE",
"580 -111 LINE"
);
},
{
closed = 1;
nodes = (
"400 -175 LINE",
"400 -1 LINE",
"498 -1 LINE",
"499 79 LINE",
"250 78 LINE SMOOTH",
"173 78 OFFCURVE",
"157 85 OFFCURVE",
"157 212 CURVE SMOOTH",
"157 312 OFFCURVE",
"160 478 OFFCURVE",
"160 531 CURVE",
"70 531 LINE",
"70 134 LINE SMOOTH",
"70 39 OFFCURVE",
"111 0 OFFCURVE",
"163 0 CURVE SMOOTH",
"321 0 LINE",
"321 -175 LINE"
);
}
);
width = 930;
}
);
},
{
glyphname = "ru_gwa-ethiopic.liga";
lastChange = "2019-03-09 00:04:35 +0000";
layers = (
{
layerId = "994FE389-9D54-4FAA-B055-C46A67020E78";
paths = (
{
closed = 1;
nodes = (
"400 -175 LINE",
"400 -1 LINE",
"497 -1 LINE",
"498 79 LINE",
"249 78 LINE SMOOTH",
"173 78 OFFCURVE",
"156 85 OFFCURVE",
"156 212 CURVE SMOOTH",
"156 312 OFFCURVE",
"159 478 OFFCURVE",
"159 531 CURVE",
"70 531 LINE",
"70 134 LINE SMOOTH",
"70 39 OFFCURVE",
"111 0 OFFCURVE",
"163 0 CURVE SMOOTH",
"321 0 LINE",
"321 -175 LINE"
);
},
{
closed = 1;
nodes = (
"740 0 LINE",
"740 137 LINE",
"773 137 LINE SMOOTH",
"805 137 OFFCURVE",
"827 151 OFFCURVE",
"845 171 CURVE SMOOTH",
"862 189 OFFCURVE",
"869 216 OFFCURVE",
"869 247 CURVE SMOOTH",
"869 271 OFFCURVE",
"864 293 OFFCURVE",
"856 312 CURVE SMOOTH",
"842 346 OFFCURVE",
"813 364 OFFCURVE",
"773 364 CURVE SMOOTH",
"740 364 LINE",
"740 397 LINE SMOOTH",
"740 481 OFFCURVE",
"699 531 OFFCURVE",
"647 531 CURVE SMOOTH",
"313 532 LINE",
"312 452 LINE",
"561 453 LINE SMOOTH",
"637 453 OFFCURVE",
"653 446 OFFCURVE",
"653 319 CURVE SMOOTH",
"653 219 OFFCURVE",
"651 53 OFFCURVE",
"651 0 CURVE"
);
},
{
closed = 1;
nodes = (
"740 339 LINE",
"747 339 LINE SMOOTH",
"757 339 OFFCURVE",
"765 337 OFFCURVE",
"772 335 CURVE",
"784 329 OFFCURVE",
"795 325 OFFCURVE",
"802 311 CURVE",
"806 301 OFFCURVE",
"811 291 OFFCURVE",
"814 276 CURVE SMOOTH",
"816 267 OFFCURVE",
"817 259 OFFCURVE",
"817 252 CURVE SMOOTH",
"817 225 OFFCURVE",
"812 201 OFFCURVE",
"802 186 CURVE SMOOTH",
"792 170 OFFCURVE",
"771 164 OFFCURVE",
"746 164 CURVE SMOOTH",
"740 164 LINE"
);
}
);
width = 939;
}
);
note = uni1310;
},
{
glyphname = "ru_gwi-ethiopic.liga";
lastChange = "2019-03-09 00:04:35 +0000";
layers = (
{
layerId = "994FE389-9D54-4FAA-B055-C46A67020E78";
paths = (
{
closed = 1;
nodes = (
"743 0 LINE",
"743 273 LINE",
"787 273 LINE",
"787 229 LINE",
"948 229 LINE",
"948 276 LINE",
"836 276 LINE",
"836 391 LINE",
"794 391 LINE",
"794 323 LINE",
"743 323 LINE",
"743 397 LINE SMOOTH",
"743 481 OFFCURVE",
"702 531 OFFCURVE",
"650 531 CURVE SMOOTH",
"316 532 LINE",
"315 452 LINE",
"564 453 LINE SMOOTH",
"640 453 OFFCURVE",
"657 446 OFFCURVE",
"657 319 CURVE SMOOTH",
"657 219 OFFCURVE",
"654 53 OFFCURVE",
"654 0 CURVE"
);
},
{
closed = 1;
nodes = (
"400 -175 LINE",
"400 -1 LINE",
"497 -1 LINE",
"498 79 LINE",
"249 78 LINE SMOOTH",
"173 78 OFFCURVE",
"157 85 OFFCURVE",
"157 212 CURVE SMOOTH",
"157 312 OFFCURVE",
"159 478 OFFCURVE",
"159 531 CURVE",
"70 531 LINE",
"70 134 LINE SMOOTH",
"70 39 OFFCURVE",
"111 0 OFFCURVE",
"163 0 CURVE SMOOTH",
"321 0 LINE",
"321 -175 LINE"
);
}
);
width = 1018;
}
);
},
{
glyphname = "ru_gwaa-ethiopic.liga";
lastChange = "2019-03-09 00:04:35 +0000";
layers = (
{
layerId = "994FE389-9D54-4FAA-B055-C46A67020E78";
paths = (
{
closed = 1;
nodes = (
"902 -182 LINE",
"902 146 LINE",
"831 146 LINE",
"831 397 LINE SMOOTH",
"831 481 OFFCURVE",
"790 531 OFFCURVE",
"738 531 CURVE SMOOTH",
"403 532 LINE",
"402 452 LINE",
"652 453 LINE SMOOTH",
"728 453 OFFCURVE",
"744 446 OFFCURVE",
"744 319 CURVE SMOOTH",
"744 234 OFFCURVE",
"743 180 OFFCURVE",
"742 134 CURVE",
"579 126 LINE",
"644 55 LINE",
"742 109 LINE",
"808 109 LINE",
"808 -182 LINE"
);
},
{
closed = 1;
nodes = (
"400 -175 LINE",
"400 -1 LINE",
"497 -1 LINE",
"498 79 LINE",
"249 78 LINE SMOOTH",
"172 78 OFFCURVE",
"156 85 OFFCURVE",
"156 212 CURVE SMOOTH",
"156 312 OFFCURVE",
"159 478 OFFCURVE",
"159 531 CURVE",
"70 531 LINE",
"70 134 LINE SMOOTH",
"70 39 OFFCURVE",
"111 0 OFFCURVE",
"162 0 CURVE SMOOTH",
"321 0 LINE",
"321 -175 LINE"
);
}
);
width = 972;
}
);
note = uni1313;
},
{
glyphname = "ru_gwee-ethiopic.liga";
lastChange = "2019-03-09 00:04:35 +0000";
layers = (
{
layerId = "994FE389-9D54-4FAA-B055-C46A67020E78";
paths = (
{
closed = 1;
nodes = (
"797 26 LINE",
"797 0 LINE",
"828 0 LINE",
"828 -1 LINE",
"926 -1 LINE SMOOTH",
"971 -1 OFFCURVE",
"1003 14 OFFCURVE",
"1021 41 CURVE SMOOTH",
"1031 57 OFFCURVE",
"1037 76 OFFCURVE",
"1037 95 CURVE SMOOTH",
"1037 121 OFFCURVE",
"1028 143 OFFCURVE",
"1009 157 CURVE",
"987 175 OFFCURVE",
"963 186 OFFCURVE",
"927 186 CURVE SMOOTH",
"886 186 LINE",
"886 397 LINE SMOOTH",
"886 492 OFFCURVE",
"845 531 OFFCURVE",
"793 531 CURVE SMOOTH",
"666 531 LINE",
"666 727 LINE",
"597 727 LINE",
"597 532 LINE",
"458 532 LINE",
"457 452 LINE",
"707 453 LINE SMOOTH",
"783 453 OFFCURVE",
"799 446 OFFCURVE",
"799 319 CURVE SMOOTH",
"799 234 OFFCURVE",
"798 101 OFFCURVE",
"797 31 CURVE",
"606 -15 LINE",
"613 -111 LINE"
);
},
{
closed = 1;
nodes = (
"400 -175 LINE",
"400 -1 LINE",
"497 -1 LINE",
"498 79 LINE",
"249 78 LINE SMOOTH",
"173 78 OFFCURVE",
"157 85 OFFCURVE",
"157 212 CURVE SMOOTH",
"157 312 OFFCURVE",
"159 478 OFFCURVE",
"159 531 CURVE",
"70 531 LINE",
"70 134 LINE SMOOTH",
"70 39 OFFCURVE",
"111 0 OFFCURVE",
"163 0 CURVE SMOOTH",
"321 0 LINE",
"321 -175 LINE"
);
},
{
closed = 1;
nodes = (
"886 164 LINE",
"894 164 LINE SMOOTH",
"923 164 OFFCURVE",
"945 157 OFFCURVE",
"957 146 CURVE",
"970 133 OFFCURVE",
"976 114 OFFCURVE",
"976 91 CURVE SMOOTH",
"976 85 OFFCURVE",
"975 78 OFFCURVE",
"973 72 CURVE SMOOTH",
"969 59 OFFCURVE",
"965 50 OFFCURVE",
"958 42 CURVE",
"950 32 OFFCURVE",
"938 26 OFFCURVE",
"924 23 CURVE SMOOTH",
"916 21 OFFCURVE",
"907 19 OFFCURVE",
"895 19 CURVE SMOOTH",
"886 19 LINE"
);
}
);
width = 1107;
}
);
},
{
glyphname = "ru_gwe-ethiopic.liga";
lastChange = "2019-03-09 00:04:35 +0000";
layers = (
{
layerId = "994FE389-9D54-4FAA-B055-C46A67020E78";
paths = (
{
closed = 1;
nodes = (
"749 0 LINE",
"749 278 LINE",
"779 278 LINE",
"779 172 LINE",
"892 172 LINE",
"892 226 LINE",
"833 226 LINE",
"833 343 LINE",
"749 343 LINE",
"749 397 LINE SMOOTH",
"749 481 OFFCURVE",
"708 531 OFFCURVE",
"657 531 CURVE SMOOTH",
"322 532 LINE",
"321 452 LINE",
"570 453 LINE SMOOTH",
"647 453 OFFCURVE",
"663 447 OFFCURVE",
"663 319 CURVE SMOOTH",
"663 219 OFFCURVE",
"660 53 OFFCURVE",
"660 0 CURVE"
);
},
{
closed = 1;
nodes = (
"498 79 LINE",
"249 78 LINE SMOOTH",
"173 78 OFFCURVE",
"157 85 OFFCURVE",
"157 212 CURVE SMOOTH",
"157 312 OFFCURVE",
"159 478 OFFCURVE",
"159 531 CURVE",
"70 531 LINE",
"70 134 LINE SMOOTH",
"70 50 OFFCURVE",
"111 0 OFFCURVE",
"163 0 CURVE SMOOTH",
"498 -1 LINE"
);
}
);
width = 962;
}
);
},
{
glyphname = "ru_gga-ethiopic.liga";
lastChange = "2019-03-09 00:04:35 +0000";
layers = (
{
layerId = "994FE389-9D54-4FAA-B055-C46A67020E78";
paths = (
{
closed = 1;
nodes = (
"740 0 LINE",
"740 397 LINE SMOOTH",
"740 492 OFFCURVE",
"700 531 OFFCURVE",
"648 531 CURVE SMOOTH",
"501 531 LINE",
"501 682 LINE",
"600 682 LINE",
"600 727 LINE",
"361 727 LINE",
"361 682 LINE",
"458 682 LINE",
"458 532 LINE",
"313 532 LINE",
"312 452 LINE",
"561 453 LINE SMOOTH",
"638 453 OFFCURVE",
"654 447 OFFCURVE",
"654 319 CURVE SMOOTH",
"654 219 OFFCURVE",
"651 53 OFFCURVE",
"651 0 CURVE"
);
},
{
closed = 1;
nodes = (
"400 -175 LINE",
"400 -1 LINE",
"498 -1 LINE",
"499 79 LINE",
"250 78 LINE SMOOTH",
"173 78 OFFCURVE",
"157 85 OFFCURVE",
"157 212 CURVE SMOOTH",
"157 312 OFFCURVE",
"160 478 OFFCURVE",
"160 531 CURVE",
"70 531 LINE",
"70 134 LINE SMOOTH",
"70 39 OFFCURVE",
"111 0 OFFCURVE",
"163 0 CURVE SMOOTH",
"321 0 LINE",
"321 -175 LINE"
);
}
);
width = 810;
}
);
},
{
glyphname = "ru_ggu-ethiopic.liga";
lastChange = "2019-03-09 00:04:35 +0000";
layers = (
{
layerId = "994FE389-9D54-4FAA-B055-C46A67020E78";
paths = (
{
closed = 1;
nodes = (
"740 0 LINE",
"740 397 LINE SMOOTH",
"740 492 OFFCURVE",
"700 531 OFFCURVE",
"648 531 CURVE SMOOTH",
"501 531 LINE",
"501 688 LINE",
"623 688 LINE",
"623 727 LINE",
"366 727 LINE",
"366 688 LINE",
"462 688 LINE",
"462 532 LINE",
"313 532 LINE",
"312 452 LINE",
"561 453 LINE SMOOTH",
"638 453 OFFCURVE",
"654 447 OFFCURVE",
"654 319 CURVE SMOOTH",
"654 219 OFFCURVE",
"651 53 OFFCURVE",
"651 0 CURVE"
);
},
{
closed = 1;
nodes = (
"400 -175 LINE",
"400 -1 LINE",
"498 -1 LINE",
"499 79 LINE",
"250 78 LINE SMOOTH",
"173 78 OFFCURVE",
"157 85 OFFCURVE",
"157 212 CURVE SMOOTH",
"157 312 OFFCURVE",
"160 478 OFFCURVE",
"160 531 CURVE",
"70 531 LINE",
"70 134 LINE SMOOTH",
"70 39 OFFCURVE",
"111 0 OFFCURVE",
"163 0 CURVE SMOOTH",
"321 0 LINE",
"321 -175 LINE"
);
}
);
width = 810;
}
);
},
{
glyphname = "ru_ggi-ethiopic.liga";
lastChange = "2019-03-09 00:04:35 +0000";
layers = (
{
layerId = "994FE389-9D54-4FAA-B055-C46A67020E78";
paths = (
{
closed = 1;
nodes = (
"893 0 LINE",
"893 55 LINE",
"762 55 LINE",
"762 397 LINE SMOOTH",
"762 492 OFFCURVE",
"721 531 OFFCURVE",
"670 531 CURVE SMOOTH",
"536 531 LINE",
"536 682 LINE",
"635 682 LINE",
"635 727 LINE",
"393 727 LINE",
"393 682 LINE",
"490 682 LINE",
"490 532 LINE",
"335 532 LINE",
"334 452 LINE",
"583 453 LINE SMOOTH",
"660 453 OFFCURVE",
"676 447 OFFCURVE",
"676 319 CURVE SMOOTH",
"676 219 OFFCURVE",
"673 53 OFFCURVE",
"673 0 CURVE"
);
},
{
closed = 1;
nodes = (
"377 -175 LINE",
"377 -1 LINE",
"498 -1 LINE",
"499 79 LINE",
"250 78 LINE SMOOTH",
"173 78 OFFCURVE",
"157 85 OFFCURVE",
"157 212 CURVE SMOOTH",
"157 312 OFFCURVE",
"160 478 OFFCURVE",
"160 531 CURVE",
"70 531 LINE",
"70 134 LINE SMOOTH",
"70 39 OFFCURVE",
"111 0 OFFCURVE",
"163 0 CURVE SMOOTH",
"298 0 LINE",
"298 -175 LINE"
);
}
);
width = 963;
}
);
},
{
glyphname = "ru_ggaa-ethiopic.liga";
lastChange = "2019-03-09 00:04:35 +0000";
layers = (
{
components = (
{
name = "ggaa-ethiopic";
transform = "{1, 0, 0, 1, 340, 0}";
}
);
layerId = "994FE389-9D54-4FAA-B055-C46A67020E78";
paths = (
{
closed = 1;
nodes = (
"400 -175 LINE",
"400 -1 LINE",
"498 -1 LINE",
"499 79 LINE",
"249 78 LINE SMOOTH",
"173 78 OFFCURVE",
"157 85 OFFCURVE",
"157 212 CURVE SMOOTH",
"157 312 OFFCURVE",
"159 478 OFFCURVE",
"159 531 CURVE",
"70 531 LINE",
"70 134 LINE SMOOTH",
"70 39 OFFCURVE",
"111 0 OFFCURVE",
"163 0 CURVE SMOOTH",
"321 0 LINE",
"321 -175 LINE"
);
}
);
width = 862;
}
);
},
{
glyphname = "ru_ggee-ethiopic.liga";
lastChange = "2019-03-09 00:04:35 +0000";
layers = (
{
layerId = "994FE389-9D54-4FAA-B055-C46A67020E78";
paths = (
{
closed = 1;
nodes = (
"769 -4 LINE SMOOTH",
"800 -4 OFFCURVE",
"822 9 OFFCURVE",
"840 29 CURVE SMOOTH",
"857 47 OFFCURVE",
"864 75 OFFCURVE",
"864 106 CURVE SMOOTH",
"864 129 OFFCURVE",
"860 151 OFFCURVE",
"851 170 CURVE",
"837 204 OFFCURVE",
"808 222 OFFCURVE",
"769 222 CURVE SMOOTH",
"740 222 LINE",
"740 393 LINE SMOOTH",
"740 487 OFFCURVE",
"699 526 OFFCURVE",
"647 526 CURVE SMOOTH",
"496 526 LINE",
"496 682 LINE",
"612 682 LINE",
"612 727 LINE",
"370 727 LINE",
"370 682 LINE",
"455 682 LINE",
"455 527 LINE",
"312 527 LINE",
"311 447 LINE",
"560 448 LINE SMOOTH",
"637 448 OFFCURVE",
"653 442 OFFCURVE",
"653 315 CURVE SMOOTH",
"653 215 OFFCURVE",
"650 48 OFFCURVE",
"650 -4 CURVE"
);
},
{
closed = 1;
nodes = (
"400 -175 LINE",
"400 -1 LINE",
"497 -1 LINE",
"498 79 LINE",
"249 78 LINE SMOOTH",
"172 78 OFFCURVE",
"156 85 OFFCURVE",
"156 212 CURVE SMOOTH",
"156 312 OFFCURVE",
"159 478 OFFCURVE",
"159 531 CURVE",
"70 531 LINE",
"70 134 LINE SMOOTH",
"70 39 OFFCURVE",
"110 0 OFFCURVE",
"162 0 CURVE SMOOTH",
"320 0 LINE",
"320 -175 LINE"
);
},
{
closed = 1;
nodes = (
"740 197 LINE",
"742 197 LINE SMOOTH",
"752 197 OFFCURVE",
"760 196 OFFCURVE",
"767 193 CURVE SMOOTH",
"787 184 OFFCURVE",
"791 180 OFFCURVE",
"797 169 CURVE",
"801 159 OFFCURVE",
"806 149 OFFCURVE",
"810 134 CURVE",
"811 126 OFFCURVE",
"812 117 OFFCURVE",
"812 110 CURVE SMOOTH",
"812 83 OFFCURVE",
"807 59 OFFCURVE",
"797 44 CURVE SMOOTH",
"787 28 OFFCURVE",
"766 22 OFFCURVE",
"741 22 CURVE SMOOTH",
"740 22 LINE"
);
}
);
width = 934;
}
);
},
{
glyphname = "ru_gge-ethiopic.liga";
lastChange = "2019-03-09 00:04:35 +0000";
layers = (
{
layerId = "994FE389-9D54-4FAA-B055-C46A67020E78";
paths = (
{
closed = 1;
nodes = (
"744 0 LINE",
"744 397 LINE SMOOTH",
"744 492 OFFCURVE",
"703 531 OFFCURVE",
"651 531 CURVE SMOOTH",
"572 531 LINE",
"572 682 LINE",
"687 682 LINE",
"687 727 LINE",
"370 727 LINE",
"370 682 LINE",
"522 682 LINE",
"522 531 LINE",
"317 532 LINE",
"316 452 LINE",
"317 452 LINE",
"317 420 LINE SMOOTH",
"317 388 OFFCURVE",
"330 366 OFFCURVE",
"350 348 CURVE SMOOTH",
"369 332 OFFCURVE",
"396 325 OFFCURVE",
"427 325 CURVE SMOOTH",
"450 325 OFFCURVE",
"472 329 OFFCURVE",
"491 337 CURVE SMOOTH",
"525 352 OFFCURVE",
"543 381 OFFCURVE",
"543 420 CURVE SMOOTH",
"543 453 LINE",
"565 453 LINE SMOOTH",
"641 453 OFFCURVE",
"658 446 OFFCURVE",
"658 319 CURVE SMOOTH",
"658 219 OFFCURVE",
"655 53 OFFCURVE",
"655 0 CURVE"
);
},
{
closed = 1;
nodes = (
"400 -175 LINE",
"400 -1 LINE",
"497 -1 LINE",
"498 79 LINE",
"249 78 LINE SMOOTH",
"172 78 OFFCURVE",
"156 85 OFFCURVE",
"156 212 CURVE SMOOTH",
"156 312 OFFCURVE",
"159 478 OFFCURVE",
"159 531 CURVE",
"70 531 LINE",
"70 134 LINE SMOOTH",
"70 39 OFFCURVE",
"110 0 OFFCURVE",
"162 0 CURVE SMOOTH",
"320 0 LINE",
"320 -175 LINE"
);
},
{
closed = 1;
nodes = (
"404 376 OFFCURVE",
"380 382 OFFCURVE",
"365 392 CURVE SMOOTH",
"350 402 OFFCURVE",
"343 423 OFFCURVE",
"343 447 CURVE SMOOTH",
"343 452 LINE",
"519 453 LINE",
"519 446 LINE SMOOTH",
"519 436 OFFCURVE",
"517 428 OFFCURVE",
"514 422 CURVE",
"509 409 OFFCURVE",
"504 398 OFFCURVE",
"490 392 CURVE",
"480 387 OFFCURVE",
"470 383 OFFCURVE",
"455 379 CURVE SMOOTH",
"447 377 OFFCURVE",
"439 376 OFFCURVE",
"431 376 CURVE SMOOTH"
);
}
);
width = 814;
}
);
},
{
glyphname = "ru_ggo-ethiopic.liga";
lastChange = "2019-03-09 00:04:35 +0000";
layers = (
{
layerId = "994FE389-9D54-4FAA-B055-C46A67020E78";
paths = (
{
closed = 1;
nodes = (
"745 0 LINE",
"745 397 LINE SMOOTH",
"745 492 OFFCURVE",
"704 531 OFFCURVE",
"652 531 CURVE SMOOTH",
"608 531 LINE",
"608 606 LINE SMOOTH",
"608 638 OFFCURVE",
"598 663 OFFCURVE",
"580 679 CURVE",
"709 679 LINE",
"709 727 LINE",
"374 727 LINE",
"374 679 LINE",
"456 679 LINE",
"454 677 LINE",
"439 659 OFFCURVE",
"428 637 OFFCURVE",
"428 606 CURVE SMOOTH",
"428 532 LINE",
"318 532 LINE",
"317 452 LINE",
"566 453 LINE SMOOTH",
"642 453 OFFCURVE",
"659 446 OFFCURVE",
"659 319 CURVE SMOOTH",
"659 219 OFFCURVE",
"656 53 OFFCURVE",
"656 0 CURVE"
);
},
{
closed = 1;
nodes = (
"400 -175 LINE",
"400 -1 LINE",
"498 -1 LINE",
"499 79 LINE",
"250 78 LINE SMOOTH",
"173 78 OFFCURVE",
"157 85 OFFCURVE",
"157 212 CURVE SMOOTH",
"157 312 OFFCURVE",
"160 478 OFFCURVE",
"160 531 CURVE",
"70 531 LINE",
"70 134 LINE SMOOTH",
"70 39 OFFCURVE",
"111 0 OFFCURVE",
"163 0 CURVE SMOOTH",
"321 0 LINE",
"321 -175 LINE"
);
},
{
closed = 1;
nodes = (
"449 532 LINE",
"449 578 LINE SMOOTH",
"449 603 OFFCURVE",
"453 624 OFFCURVE",
"466 634 CURVE",
"478 644 OFFCURVE",
"497 649 OFFCURVE",
"519 649 CURVE SMOOTH",
"524 649 OFFCURVE",
"531 648 OFFCURVE",
"538 646 CURVE SMOOTH",
"550 643 OFFCURVE",
"558 638 OFFCURVE",
"566 634 CURVE",
"577 627 OFFCURVE",
"581 616 OFFCURVE",
"585 604 CURVE",
"587 597 OFFCURVE",
"588 589 OFFCURVE",
"588 579 CURVE SMOOTH",
"588 531 LINE"
);
}
);
width = 815;
}
);
},
{
glyphname = "ru_ggwaa-ethiopic.liga";
lastChange = "2019-03-09 00:04:35 +0000";
layers = (
{
layerId = "994FE389-9D54-4FAA-B055-C46A67020E78";
paths = (
{
closed = 1;
nodes = (
"983 -182 LINE",
"983 -7 LINE",
"982 -7 LINE",
"982 6 LINE",
"913 6 LINE",
"913 397 LINE SMOOTH",
"913 492 OFFCURVE",
"872 531 OFFCURVE",
"820 531 CURVE SMOOTH",
"674 531 LINE",
"674 682 LINE",
"772 682 LINE",
"772 727 LINE",
"534 727 LINE",
"534 682 LINE",
"630 682 LINE",
"630 532 LINE",
"485 532 LINE",
"485 452 LINE",
"734 453 LINE SMOOTH",
"810 453 OFFCURVE",
"826 446 OFFCURVE",
"826 319 CURVE SMOOTH",
"826 223 OFFCURVE",
"824 65 OFFCURVE",
"824 6 CURVE",
"652 6 LINE",
"652 -18 LINE",
"902 -18 LINE",
"902 -182 LINE"
);
},
{
closed = 1;
nodes = (
"400 -175 LINE",
"400 -1 LINE",
"497 -1 LINE",
"498 79 LINE",
"249 78 LINE SMOOTH",
"173 78 OFFCURVE",
"156 85 OFFCURVE",
"156 212 CURVE SMOOTH",
"156 312 OFFCURVE",
"159 478 OFFCURVE",
"159 531 CURVE",
"70 531 LINE",
"70 134 LINE SMOOTH",
"70 39 OFFCURVE",
"111 0 OFFCURVE",
"163 0 CURVE SMOOTH",
"321 0 LINE",
"321 -175 LINE"
);
}
);
width = 1053;
}
);
},
{
glyphname = "raa_xa-ethiopic.liga";
lastChange = "2019-03-09 00:04:35 +0000";
layers = (
{
layerId = "994FE389-9D54-4FAA-B055-C46A67020E78";
paths = (
{
closed = 1;
nodes = (
"828 0 LINE",
"828 439 LINE SMOOTH",
"828 531 OFFCURVE",
"828 531 OFFCURVE",
"724 531 CURVE SMOOTH",
"495 531 LINE",
"495 727 LINE",
"404 727 LINE",
"404 654 LINE",
"274 654 LINE",
"274 571 LINE",
"404 571 LINE",
"404 505 LINE SMOOTH",
"404 477 OFFCURVE",
"422 458 OFFCURVE",
"451 458 CURVE SMOOTH",
"679 458 LINE SMOOTH",
"737 458 OFFCURVE",
"737 458 OFFCURVE",
"737 278 CURVE SMOOTH",
"737 0 LINE"
);
},
{
closed = 1;
nodes = (
"339 0 LINE SMOOTH",
"433 0 OFFCURVE",
"438 0 OFFCURVE",
"438 55 CURVE SMOOTH",
"438 86 OFFCURVE",
"363 186 OFFCURVE",
"363 214 CURVE SMOOTH",
"363 256 OFFCURVE",
"390 218 OFFCURVE",
"511 219 CURVE",
"511 291 LINE",
"482 291 LINE SMOOTH",
"373 291 OFFCURVE",
"293 296 OFFCURVE",
"293 242 CURVE SMOOTH",
"293 226 OFFCURVE",
"304 187 OFFCURVE",
"317 161 CURVE",
"325 142 OFFCURVE",
"362 87 OFFCURVE",
"349 79 CURVE",
"297 79 LINE",
"249 78 LINE SMOOTH",
"183 77 OFFCURVE",
"156 77 OFFCURVE",
"156 212 CURVE SMOOTH",
"156 312 OFFCURVE",
"159 478 OFFCURVE",
"159 531 CURVE",
"70 531 LINE",
"70 134 LINE SMOOTH",
"70 39 OFFCURVE",
"111 0 OFFCURVE",
"163 0 CURVE SMOOTH"
);
}
);
width = 898;
}
);
note = uni1280;
},
{
glyphname = "raa_xu-ethiopic.liga";
lastChange = "2019-03-09 00:04:35 +0000";
layers = (
{
layerId = "994FE389-9D54-4FAA-B055-C46A67020E78";
paths = (
{
closed = 1;
nodes = (
"847 0 LINE",
"847 246 LINE",
"946 246 LINE",
"946 346 LINE",
"847 346 LINE",
"847 439 LINE SMOOTH",
"847 531 OFFCURVE",
"847 531 OFFCURVE",
"743 531 CURVE SMOOTH",
"514 531 LINE",
"514 727 LINE",
"423 727 LINE",
"423 654 LINE",
"292 654 LINE",
"292 571 LINE",
"423 571 LINE",
"423 505 LINE SMOOTH",
"423 477 OFFCURVE",
"440 458 OFFCURVE",
"469 458 CURVE SMOOTH",
"698 458 LINE SMOOTH",
"756 458 OFFCURVE",
"756 458 OFFCURVE",
"756 278 CURVE SMOOTH",
"756 0 LINE"
);
},
{
closed = 1;
nodes = (
"339 0 LINE SMOOTH",
"433 0 OFFCURVE",
"438 0 OFFCURVE",
"438 55 CURVE SMOOTH",
"438 86 OFFCURVE",
"363 186 OFFCURVE",
"363 214 CURVE SMOOTH",
"363 256 OFFCURVE",
"390 218 OFFCURVE",
"511 219 CURVE",
"511 291 LINE",
"482 291 LINE SMOOTH",
"373 291 OFFCURVE",
"293 296 OFFCURVE",
"293 242 CURVE SMOOTH",
"293 226 OFFCURVE",
"305 187 OFFCURVE",
"318 161 CURVE",
"326 142 OFFCURVE",
"362 87 OFFCURVE",
"349 79 CURVE",
"298 79 LINE",
"249 78 LINE SMOOTH",
"181 77 OFFCURVE",
"157 65 OFFCURVE",
"157 212 CURVE SMOOTH",
"157 312 OFFCURVE",
"159 478 OFFCURVE",
"159 531 CURVE",
"70 531 LINE",
"70 134 LINE SMOOTH",
"70 39 OFFCURVE",
"111 0 OFFCURVE",
"163 0 CURVE SMOOTH"
);
}
);
width = 1016;
}
);
note = uni1281;
},
{
glyphname = "raa_xi-ethiopic.liga";
lastChange = "2019-03-09 00:04:35 +0000";
layers = (
{
layerId = "994FE389-9D54-4FAA-B055-C46A67020E78";
paths = (
{
closed = 1;
nodes = (
"992 0 LINE",
"992 100 LINE",
"892 100 LINE",
"892 439 LINE SMOOTH",
"892 531 OFFCURVE",
"892 531 OFFCURVE",
"789 531 CURVE SMOOTH",
"560 531 LINE",
"560 727 LINE",
"469 727 LINE",
"469 654 LINE",
"338 654 LINE",
"338 571 LINE",
"469 571 LINE",
"469 505 LINE SMOOTH",
"469 477 OFFCURVE",
"486 458 OFFCURVE",
"515 458 CURVE SMOOTH",
"743 458 LINE SMOOTH",
"801 458 OFFCURVE",
"801 458 OFFCURVE",
"801 278 CURVE SMOOTH",
"801 0 LINE"
);
},
{
closed = 1;
nodes = (
"340 0 LINE SMOOTH",
"433 0 OFFCURVE",
"439 0 OFFCURVE",
"439 55 CURVE SMOOTH",
"439 86 OFFCURVE",
"363 186 OFFCURVE",
"363 214 CURVE SMOOTH",
"363 256 OFFCURVE",
"390 218 OFFCURVE",
"511 219 CURVE",
"511 291 LINE",
"482 291 LINE SMOOTH",
"373 291 OFFCURVE",
"293 296 OFFCURVE",
"293 242 CURVE SMOOTH",
"293 226 OFFCURVE",
"305 187 OFFCURVE",
"318 161 CURVE",
"326 142 OFFCURVE",
"362 87 OFFCURVE",
"350 79 CURVE",
"298 79 LINE",
"250 78 LINE SMOOTH",
"182 77 OFFCURVE",
"157 78 OFFCURVE",
"157 212 CURVE SMOOTH",
"157 312 OFFCURVE",
"160 478 OFFCURVE",
"160 531 CURVE",
"70 531 LINE",
"70 134 LINE SMOOTH",
"70 39 OFFCURVE",
"111 0 OFFCURVE",
"163 0 CURVE SMOOTH"
);
}
);
width = 1062;
}
);
note = uni1282;
},
{
glyphname = "raa_xee-ethiopic.liga";
lastChange = "2019-03-09 00:04:35 +0000";
layers = (
{
layerId = "994FE389-9D54-4FAA-B055-C46A67020E78";
paths = (
{
closed = 1;
nodes = (
"911 0 LINE SMOOTH",
"957 0 OFFCURVE",
"989 16 OFFCURVE",
"1007 46 CURVE SMOOTH",
"1017 63 OFFCURVE",
"1022 82 OFFCURVE",
"1022 103 CURVE SMOOTH",
"1022 131 OFFCURVE",
"1014 155 OFFCURVE",
"995 170 CURVE SMOOTH",
"973 188 OFFCURVE",
"949 200 OFFCURVE",
"912 200 CURVE SMOOTH",
"901 200 LINE",
"901 439 LINE SMOOTH",
"901 531 OFFCURVE",
"901 531 OFFCURVE",
"798 531 CURVE SMOOTH",
"569 531 LINE",
"569 727 LINE",
"478 727 LINE",
"478 654 LINE",
"347 654 LINE",
"347 571 LINE",
"478 571 LINE",
"478 505 LINE SMOOTH",
"478 477 OFFCURVE",
"495 458 OFFCURVE",
"524 458 CURVE SMOOTH",
"752 458 LINE SMOOTH",
"810 458 OFFCURVE",
"810 458 OFFCURVE",
"810 278 CURVE SMOOTH",
"810 0 LINE"
);
},
{
closed = 1;
nodes = (
"340 0 LINE SMOOTH",
"433 0 OFFCURVE",
"439 0 OFFCURVE",
"439 55 CURVE SMOOTH",
"439 86 OFFCURVE",
"363 186 OFFCURVE",
"363 214 CURVE SMOOTH",
"363 256 OFFCURVE",
"390 218 OFFCURVE",
"511 219 CURVE",
"511 291 LINE",
"482 291 LINE SMOOTH",
"373 291 OFFCURVE",
"293 296 OFFCURVE",
"293 242 CURVE SMOOTH",
"293 226 OFFCURVE",
"305 187 OFFCURVE",
"318 161 CURVE",
"326 142 OFFCURVE",
"362 87 OFFCURVE",
"350 79 CURVE",
"298 79 LINE",
"250 78 LINE SMOOTH",
"182 77 OFFCURVE",
"157 78 OFFCURVE",
"157 212 CURVE SMOOTH",
"157 312 OFFCURVE",
"160 478 OFFCURVE",
"160 531 CURVE",
"70 531 LINE",
"70 134 LINE SMOOTH",
"70 39 OFFCURVE",
"111 0 OFFCURVE",
"163 0 CURVE SMOOTH"
);
},
{
closed = 1;
nodes = (
"901 176 LINE",
"920 173 OFFCURVE",
"934 166 OFFCURVE",
"943 157 CURVE SMOOTH",
"956 144 OFFCURVE",
"961 124 OFFCURVE",
"961 99 CURVE SMOOTH",
"961 92 OFFCURVE",
"960 86 OFFCURVE",
"959 78 CURVE",
"955 65 OFFCURVE",
"950 55 OFFCURVE",
"944 46 CURVE",
"936 36 OFFCURVE",
"924 29 OFFCURVE",
"910 26 CURVE",
"907 25 OFFCURVE",
"904 25 OFFCURVE",
"901 24 CURVE"
);
}
);
width = 1092;
}
);
note = uni1284;
},
{
glyphname = "raa_xe-ethiopic.liga";
lastChange = "2019-03-09 00:04:35 +0000";
layers = (
{
layerId = "994FE389-9D54-4FAA-B055-C46A67020E78";
paths = (
{
closed = 1;
nodes = (
"878 0 LINE",
"878 439 LINE SMOOTH",
"878 531 OFFCURVE",
"878 531 OFFCURVE",
"774 531 CURVE SMOOTH",
"545 531 LINE",
"545 727 LINE",
"454 727 LINE",
"454 638 LINE",
"328 638 LINE",
"328 635 LINE",
"324 635 LINE",
"324 482 LINE",
"389 482 LINE",
"389 568 LINE SMOOTH",
"389 581 OFFCURVE",
"400 591 OFFCURVE",
"413 591 CURVE SMOOTH",
"454 591 LINE",
"454 458 LINE",
"729 458 LINE SMOOTH",
"787 458 OFFCURVE",
"787 458 OFFCURVE",
"787 278 CURVE SMOOTH",
"787 0 LINE"
);
},
{
closed = 1;
nodes = (
"339 0 LINE SMOOTH",
"433 0 OFFCURVE",
"439 0 OFFCURVE",
"439 55 CURVE SMOOTH",
"439 86 OFFCURVE",
"363 186 OFFCURVE",
"363 214 CURVE SMOOTH",
"363 256 OFFCURVE",
"390 218 OFFCURVE",
"511 219 CURVE",
"511 291 LINE",
"482 291 LINE SMOOTH",
"373 291 OFFCURVE",
"293 296 OFFCURVE",
"293 242 CURVE SMOOTH",
"293 226 OFFCURVE",
"305 187 OFFCURVE",
"318 161 CURVE",
"326 142 OFFCURVE",
"362 87 OFFCURVE",
"349 79 CURVE",
"298 79 LINE",
"249 78 LINE SMOOTH",
"182 77 OFFCURVE",
"157 78 OFFCURVE",
"157 212 CURVE SMOOTH",
"157 312 OFFCURVE",
"159 478 OFFCURVE",
"159 531 CURVE",
"70 531 LINE",
"70 134 LINE SMOOTH",
"70 39 OFFCURVE",
"111 0 OFFCURVE",
"163 0 CURVE SMOOTH"
);
}
);
width = 948;
}
);
note = uni1285;
},
{
glyphname = "raa_xwa-ethiopic.liga";
lastChange = "2019-03-09 00:04:35 +0000";
layers = (
{
layerId = "994FE389-9D54-4FAA-B055-C46A67020E78";
paths = (
{
closed = 1;
nodes = (
"805 0 LINE",
"805 215 LINE",
"822 215 LINE SMOOTH",
"867 215 OFFCURVE",
"899 228 OFFCURVE",
"917 253 CURVE SMOOTH",
"927 266 OFFCURVE",
"933 283 OFFCURVE",
"933 300 CURVE SMOOTH",
"933 323 OFFCURVE",
"925 343 OFFCURVE",
"906 356 CURVE SMOOTH",
"884 371 OFFCURVE",
"859 380 OFFCURVE",
"823 380 CURVE SMOOTH",
"805 380 LINE",
"805 439 LINE SMOOTH",
"805 531 OFFCURVE",
"805 531 OFFCURVE",
"701 531 CURVE SMOOTH",
"590 531 LINE",
"590 727 LINE",
"499 727 LINE",
"499 605 LINE",
"417 605 LINE",
"417 531 LINE",
"499 531 LINE",
"499 458 LINE",
"656 458 LINE SMOOTH",
"714 458 OFFCURVE",
"714 458 OFFCURVE",
"714 278 CURVE SMOOTH",
"714 0 LINE"
);
},
{
closed = 1;
nodes = (
"339 0 LINE SMOOTH",
"433 0 OFFCURVE",
"438 0 OFFCURVE",
"438 55 CURVE SMOOTH",
"438 86 OFFCURVE",
"363 186 OFFCURVE",
"363 214 CURVE SMOOTH",
"363 256 OFFCURVE",
"390 218 OFFCURVE",
"511 219 CURVE",
"511 291 LINE",
"482 291 LINE SMOOTH",
"373 291 OFFCURVE",
"293 296 OFFCURVE",
"293 242 CURVE SMOOTH",
"293 226 OFFCURVE",
"305 187 OFFCURVE",
"317 161 CURVE SMOOTH",
"326 142 OFFCURVE",
"362 87 OFFCURVE",
"349 79 CURVE",
"297 79 LINE",
"249 78 LINE SMOOTH",
"181 77 OFFCURVE",
"157 79 OFFCURVE",
"157 212 CURVE SMOOTH",
"157 312 OFFCURVE",
"159 478 OFFCURVE",
"159 531 CURVE",
"70 531 LINE",
"70 134 LINE SMOOTH",
"70 39 OFFCURVE",
"111 0 OFFCURVE",
"163 0 CURVE SMOOTH"
);
},
{
closed = 1;
nodes = (
"805 361 LINE",
"827 359 OFFCURVE",
"843 354 OFFCURVE",
"854 345 CURVE SMOOTH",
"867 334 OFFCURVE",
"872 316 OFFCURVE",
"872 296 CURVE SMOOTH",
"872 291 OFFCURVE",
"871 286 OFFCURVE",
"869 279 CURVE SMOOTH",
"866 268 OFFCURVE",
"861 260 OFFCURVE",
"855 253 CURVE SMOOTH",
"847 244 OFFCURVE",
"835 239 OFFCURVE",
"820 236 CURVE",
"805 234 LINE"
);
}
);
width = 1003;
}
);
},
{
glyphname = "raa_xwi-ethiopic.liga";
lastChange = "2019-03-09 00:04:35 +0000";
layers = (
{
layerId = "994FE389-9D54-4FAA-B055-C46A67020E78";
paths = (
{
closed = 1;
nodes = (
"803 0 LINE",
"803 273 LINE",
"845 273 LINE",
"845 229 LINE",
"1006 229 LINE",
"1006 276 LINE",
"893 276 LINE",
"893 391 LINE",
"851 391 LINE",
"851 323 LINE",
"803 323 LINE",
"803 439 LINE SMOOTH",
"803 531 OFFCURVE",
"803 531 OFFCURVE",
"699 531 CURVE SMOOTH",
"588 531 LINE",
"588 727 LINE",
"497 727 LINE",
"497 605 LINE",
"416 605 LINE",
"416 531 LINE",
"497 531 LINE",
"497 458 LINE",
"654 458 LINE SMOOTH",
"712 458 OFFCURVE",
"712 458 OFFCURVE",
"712 278 CURVE SMOOTH",
"712 0 LINE"
);
},
{
closed = 1;
nodes = (
"339 0 LINE SMOOTH",
"433 0 OFFCURVE",
"438 0 OFFCURVE",
"438 55 CURVE SMOOTH",
"438 86 OFFCURVE",
"363 186 OFFCURVE",
"363 214 CURVE SMOOTH",
"363 256 OFFCURVE",
"390 218 OFFCURVE",
"511 219 CURVE",
"511 291 LINE",
"482 291 LINE SMOOTH",
"373 291 OFFCURVE",
"293 296 OFFCURVE",
"293 242 CURVE SMOOTH",
"293 226 OFFCURVE",
"305 187 OFFCURVE",
"317 161 CURVE SMOOTH",
"326 142 OFFCURVE",
"362 87 OFFCURVE",
"349 79 CURVE",
"297 79 LINE",
"249 78 LINE SMOOTH",
"181 77 OFFCURVE",
"157 79 OFFCURVE",
"157 212 CURVE SMOOTH",
"157 312 OFFCURVE",
"159 478 OFFCURVE",
"159 531 CURVE",
"70 531 LINE",
"70 134 LINE SMOOTH",
"70 39 OFFCURVE",
"111 0 OFFCURVE",
"163 0 CURVE SMOOTH"
);
}
);
width = 1076;
}
);
},
{
glyphname = "raa_xwaa-ethiopic.liga";
lastChange = "2019-03-09 00:04:35 +0000";
layers = (
{
layerId = "994FE389-9D54-4FAA-B055-C46A67020E78";
paths = (
{
closed = 1;
nodes = (
"1088 -182 LINE",
"1088 0 LINE",
"943 0 LINE",
"943 439 LINE SMOOTH",
"943 531 OFFCURVE",
"943 531 OFFCURVE",
"839 531 CURVE SMOOTH",
"610 531 LINE",
"610 727 LINE",
"519 727 LINE",
"519 649 LINE",
"402 649 LINE",
"402 555 LINE",
"519 555 LINE",
"519 505 LINE SMOOTH",
"519 477 OFFCURVE",
"537 458 OFFCURVE",
"566 458 CURVE SMOOTH",
"794 458 LINE SMOOTH",
"852 458 OFFCURVE",
"852 458 OFFCURVE",
"852 278 CURVE SMOOTH",
"852 0 LINE",
"731 0 LINE",
"731 -56 LINE",
"991 -56 LINE",
"991 -182 LINE"
);
},
{
closed = 1;
nodes = (
"339 0 LINE SMOOTH",
"433 0 OFFCURVE",
"438 0 OFFCURVE",
"438 55 CURVE SMOOTH",
"438 86 OFFCURVE",
"363 186 OFFCURVE",
"363 214 CURVE SMOOTH",
"363 256 OFFCURVE",
"390 218 OFFCURVE",
"511 219 CURVE",
"511 291 LINE",
"482 291 LINE SMOOTH",
"373 291 OFFCURVE",
"293 296 OFFCURVE",
"293 242 CURVE SMOOTH",
"293 226 OFFCURVE",
"305 187 OFFCURVE",
"318 161 CURVE",
"326 142 OFFCURVE",
"362 87 OFFCURVE",
"349 79 CURVE",
"298 79 LINE",
"249 78 LINE SMOOTH",
"182 77 OFFCURVE",
"157 78 OFFCURVE",
"157 212 CURVE SMOOTH",
"157 312 OFFCURVE",
"159 478 OFFCURVE",
"159 531 CURVE",
"70 531 LINE",
"70 134 LINE SMOOTH",
"70 39 OFFCURVE",
"111 0 OFFCURVE",
"163 0 CURVE SMOOTH"
);
}
);
width = 1158;
}
);
},
{
glyphname = "raa_xwee-ethiopic.liga";
lastChange = "2019-03-09 00:04:35 +0000";
layers = (
{
layerId = "994FE389-9D54-4FAA-B055-C46A67020E78";
paths = (
{
closed = 1;
nodes = (
"983 -1 LINE",
"983 6 LINE",
"991 3 OFFCURVE",
"999 0 OFFCURVE",
"1008 0 CURVE SMOOTH",
"1063 0 OFFCURVE",
"1106 45 OFFCURVE",
"1106 96 CURVE SMOOTH",
"1106 151 OFFCURVE",
"1064 196 OFFCURVE",
"1008 196 CURVE SMOOTH",
"999 196 OFFCURVE",
"991 195 OFFCURVE",
"983 192 CURVE",
"983 439 LINE SMOOTH",
"983 531 OFFCURVE",
"983 531 OFFCURVE",
"879 531 CURVE SMOOTH",
"650 531 LINE",
"650 727 LINE",
"559 727 LINE",
"559 649 LINE",
"442 649 LINE",
"442 555 LINE",
"559 555 LINE",
"559 505 LINE SMOOTH",
"559 477 OFFCURVE",
"577 458 OFFCURVE",
"606 458 CURVE SMOOTH",
"834 458 LINE SMOOTH",
"892 458 OFFCURVE",
"892 458 OFFCURVE",
"892 278 CURVE SMOOTH",
"892 56 LINE",
"740 56 LINE",
"740 -1 LINE"
);
},
{
closed = 1;
nodes = (
"339 0 LINE SMOOTH",
"433 0 OFFCURVE",
"438 0 OFFCURVE",
"438 55 CURVE SMOOTH",
"438 86 OFFCURVE",
"363 186 OFFCURVE",
"363 214 CURVE SMOOTH",
"363 256 OFFCURVE",
"390 218 OFFCURVE",
"511 219 CURVE",
"511 291 LINE",
"482 291 LINE SMOOTH",
"373 291 OFFCURVE",
"293 296 OFFCURVE",
"293 242 CURVE SMOOTH",
"293 226 OFFCURVE",
"305 187 OFFCURVE",
"318 161 CURVE",
"326 142 OFFCURVE",
"362 87 OFFCURVE",
"349 79 CURVE",
"298 79 LINE",
"249 78 LINE SMOOTH",
"182 77 OFFCURVE",
"157 78 OFFCURVE",
"157 212 CURVE SMOOTH",
"157 312 OFFCURVE",
"159 478 OFFCURVE",
"159 531 CURVE",
"70 531 LINE",
"70 134 LINE SMOOTH",
"70 39 OFFCURVE",
"111 0 OFFCURVE",
"163 0 CURVE SMOOTH"
);
},
{
closed = 1;
nodes = (
"998 54 OFFCURVE",
"990 56 OFFCURVE",
"983 62 CURVE",
"983 134 LINE",
"990 139 OFFCURVE",
"998 142 OFFCURVE",
"1008 142 CURVE SMOOTH",
"1033 142 OFFCURVE",
"1053 122 OFFCURVE",
"1053 99 CURVE SMOOTH",
"1053 73 OFFCURVE",
"1033 54 OFFCURVE",
"1008 54 CURVE SMOOTH"
);
}
);
width = 1176;
}
);
},
{
glyphname = "raa_xwe-ethiopic.liga";
lastChange = "2019-03-09 00:04:35 +0000";
layers = (
{
layerId = "994FE389-9D54-4FAA-B055-C46A67020E78";
paths = (
{
closed = 1;
nodes = (
"1092 -182 LINE",
"1092 0 LINE",
"946 0 LINE",
"946 273 LINE",
"1024 273 LINE",
"1024 229 LINE",
"1185 229 LINE",
"1185 276 LINE",
"1072 276 LINE",
"1072 391 LINE",
"1030 391 LINE",
"1030 323 LINE",
"946 323 LINE",
"946 439 LINE SMOOTH",
"946 531 OFFCURVE",
"946 531 OFFCURVE",
"843 531 CURVE SMOOTH",
"614 531 LINE",
"614 727 LINE",
"523 727 LINE",
"523 649 LINE",
"405 649 LINE",
"405 555 LINE",
"523 555 LINE",
"523 505 LINE SMOOTH",
"523 477 OFFCURVE",
"540 458 OFFCURVE",
"569 458 CURVE SMOOTH",
"797 458 LINE SMOOTH",
"855 458 OFFCURVE",
"855 458 OFFCURVE",
"855 278 CURVE SMOOTH",
"855 0 LINE",
"735 0 LINE",
"735 -56 LINE",
"995 -56 LINE",
"995 -182 LINE"
);
},
{
closed = 1;
nodes = (
"339 0 LINE SMOOTH",
"433 0 OFFCURVE",
"438 0 OFFCURVE",
"438 55 CURVE SMOOTH",
"438 86 OFFCURVE",
"363 186 OFFCURVE",
"363 214 CURVE SMOOTH",
"363 256 OFFCURVE",
"390 218 OFFCURVE",
"511 219 CURVE",
"511 291 LINE",
"482 291 LINE SMOOTH",
"373 291 OFFCURVE",
"293 296 OFFCURVE",
"293 242 CURVE SMOOTH",
"293 226 OFFCURVE",
"305 187 OFFCURVE",
"317 161 CURVE SMOOTH",
"325 142 OFFCURVE",
"362 87 OFFCURVE",
"349 79 CURVE",
"297 79 LINE",
"249 78 LINE SMOOTH",
"183 77 OFFCURVE",
"156 77 OFFCURVE",
"156 212 CURVE SMOOTH",
"156 312 OFFCURVE",
"159 478 OFFCURVE",
"159 531 CURVE",
"70 531 LINE",
"70 134 LINE SMOOTH",
"70 39 OFFCURVE",
"111 0 OFFCURVE",
"163 0 CURVE SMOOTH"
);
}
);
width = 1255;
}
);
},
{
glyphname = "raa_na-ethiopic.liga";
lastChange = "2019-03-09 00:04:35 +0000";
layers = (
{
layerId = "994FE389-9D54-4FAA-B055-C46A67020E78";
paths = (
{
closed = 1;
nodes = (
"840 0 LINE",
"840 439 LINE SMOOTH",
"840 531 OFFCURVE",
"840 531 OFFCURVE",
"736 531 CURVE SMOOTH",
"507 531 LINE",
"507 727 LINE",
"416 727 LINE",
"416 505 LINE SMOOTH",
"416 477 OFFCURVE",
"433 458 OFFCURVE",
"462 458 CURVE SMOOTH",
"690 458 LINE SMOOTH",
"749 458 OFFCURVE",
"749 458 OFFCURVE",
"749 278 CURVE SMOOTH",
"749 0 LINE"
);
},
{
closed = 1;
nodes = (
"340 0 LINE SMOOTH",
"433 0 OFFCURVE",
"439 0 OFFCURVE",
"439 55 CURVE SMOOTH",
"439 86 OFFCURVE",
"363 186 OFFCURVE",
"363 214 CURVE SMOOTH",
"363 256 OFFCURVE",
"390 218 OFFCURVE",
"511 219 CURVE",
"511 291 LINE",
"482 291 LINE SMOOTH",
"373 291 OFFCURVE",
"293 296 OFFCURVE",
"293 242 CURVE SMOOTH",
"293 226 OFFCURVE",
"305 187 OFFCURVE",
"318 161 CURVE",
"326 142 OFFCURVE",
"362 87 OFFCURVE",
"350 79 CURVE",
"298 79 LINE",
"250 78 LINE SMOOTH",
"182 77 OFFCURVE",
"157 78 OFFCURVE",
"157 212 CURVE SMOOTH",
"157 312 OFFCURVE",
"160 478 OFFCURVE",
"160 531 CURVE",
"70 531 LINE",
"70 134 LINE SMOOTH",
"70 39 OFFCURVE",
"111 0 OFFCURVE",
"163 0 CURVE SMOOTH"
);
}
);
width = 910;
}
);
},
{
glyphname = "raa_nu-ethiopic.liga";
lastChange = "2019-03-09 00:04:35 +0000";
layers = (
{
layerId = "994FE389-9D54-4FAA-B055-C46A67020E78";
paths = (
{
closed = 1;
nodes = (
"812 0 LINE",
"812 244 LINE",
"917 244 LINE",
"917 348 LINE",
"812 348 LINE",
"812 439 LINE SMOOTH",
"812 531 OFFCURVE",
"812 531 OFFCURVE",
"708 531 CURVE SMOOTH",
"479 531 LINE",
"479 727 LINE",
"388 727 LINE",
"388 505 LINE SMOOTH",
"388 477 OFFCURVE",
"406 458 OFFCURVE",
"435 458 CURVE SMOOTH",
"663 458 LINE SMOOTH",
"721 458 OFFCURVE",
"721 458 OFFCURVE",
"721 278 CURVE SMOOTH",
"721 0 LINE"
);
},
{
closed = 1;
nodes = (
"339 0 LINE SMOOTH",
"433 0 OFFCURVE",
"438 0 OFFCURVE",
"438 55 CURVE SMOOTH",
"438 86 OFFCURVE",
"363 186 OFFCURVE",
"363 214 CURVE SMOOTH",
"363 256 OFFCURVE",
"390 218 OFFCURVE",
"511 219 CURVE",
"511 291 LINE",
"482 291 LINE SMOOTH",
"373 291 OFFCURVE",
"293 296 OFFCURVE",
"293 242 CURVE SMOOTH",
"293 226 OFFCURVE",
"305 187 OFFCURVE",
"317 161 CURVE SMOOTH",
"326 142 OFFCURVE",
"362 87 OFFCURVE",
"349 79 CURVE",
"297 79 LINE",
"249 78 LINE SMOOTH",
"181 77 OFFCURVE",
"157 79 OFFCURVE",
"157 212 CURVE SMOOTH",
"157 312 OFFCURVE",
"159 478 OFFCURVE",
"159 531 CURVE",
"70 531 LINE",
"70 134 LINE SMOOTH",
"70 39 OFFCURVE",
"111 0 OFFCURVE",
"163 0 CURVE SMOOTH"
);
}
);
width = 987;
}
);
},
{
glyphname = "raa_ni-ethiopic.liga";
lastChange = "2019-03-09 00:04:35 +0000";
layers = (
{
layerId = "994FE389-9D54-4FAA-B055-C46A67020E78";
paths = (
{
closed = 1;
nodes = (
"966 0 LINE",
"966 86 LINE",
"845 86 LINE",
"845 439 LINE SMOOTH",
"845 531 OFFCURVE",
"845 531 OFFCURVE",
"741 531 CURVE SMOOTH",
"512 531 LINE",
"512 727 LINE",
"421 727 LINE",
"421 505 LINE SMOOTH",
"421 477 OFFCURVE",
"438 458 OFFCURVE",
"467 458 CURVE SMOOTH",
"696 458 LINE SMOOTH",
"754 458 OFFCURVE",
"754 458 OFFCURVE",
"754 278 CURVE SMOOTH",
"754 0 LINE"
);
},
{
closed = 1;
nodes = (
"339 0 LINE SMOOTH",
"433 0 OFFCURVE",
"438 0 OFFCURVE",
"438 55 CURVE SMOOTH",
"438 86 OFFCURVE",
"363 186 OFFCURVE",
"363 214 CURVE SMOOTH",
"363 256 OFFCURVE",
"390 218 OFFCURVE",
"511 219 CURVE",
"511 291 LINE",
"482 291 LINE SMOOTH",
"373 291 OFFCURVE",
"293 296 OFFCURVE",
"293 242 CURVE SMOOTH",
"293 226 OFFCURVE",
"305 187 OFFCURVE",
"317 161 CURVE SMOOTH",
"326 142 OFFCURVE",
"362 87 OFFCURVE",
"349 79 CURVE",
"297 79 LINE",
"249 78 LINE SMOOTH",
"181 77 OFFCURVE",
"157 79 OFFCURVE",
"157 212 CURVE SMOOTH",
"157 312 OFFCURVE",
"159 478 OFFCURVE",
"159 531 CURVE",
"70 531 LINE",
"70 134 LINE SMOOTH",
"70 39 OFFCURVE",
"111 0 OFFCURVE",
"163 0 CURVE SMOOTH"
);
}
);
width = 1036;
}
);
},
{
glyphname = "raa_nee-ethiopic.liga";
lastChange = "2019-03-09 00:04:35 +0000";
layers = (
{
layerId = "994FE389-9D54-4FAA-B055-C46A67020E78";
paths = (
{
closed = 1;
nodes = (
"885 0 LINE SMOOTH",
"930 0 OFFCURVE",
"962 17 OFFCURVE",
"980 50 CURVE SMOOTH",
"990 67 OFFCURVE",
"996 89 OFFCURVE",
"996 112 CURVE SMOOTH",
"996 142 OFFCURVE",
"987 167 OFFCURVE",
"968 185 CURVE SMOOTH",
"947 205 OFFCURVE",
"922 217 OFFCURVE",
"886 217 CURVE SMOOTH",
"856 217 LINE",
"856 439 LINE SMOOTH",
"856 531 OFFCURVE",
"856 531 OFFCURVE",
"752 531 CURVE SMOOTH",
"523 531 LINE",
"523 727 LINE",
"432 727 LINE",
"432 505 LINE SMOOTH",
"432 477 OFFCURVE",
"449 458 OFFCURVE",
"478 458 CURVE SMOOTH",
"707 458 LINE SMOOTH",
"765 458 OFFCURVE",
"765 458 OFFCURVE",
"765 278 CURVE SMOOTH",
"765 0 LINE"
);
},
{
closed = 1;
nodes = (
"339 0 LINE SMOOTH",
"433 0 OFFCURVE",
"438 0 OFFCURVE",
"438 55 CURVE SMOOTH",
"438 86 OFFCURVE",
"363 186 OFFCURVE",
"363 214 CURVE SMOOTH",
"363 256 OFFCURVE",
"390 218 OFFCURVE",
"511 219 CURVE",
"511 291 LINE",
"482 291 LINE SMOOTH",
"373 291 OFFCURVE",
"293 296 OFFCURVE",
"293 242 CURVE SMOOTH",
"293 226 OFFCURVE",
"305 187 OFFCURVE",
"317 161 CURVE SMOOTH",
"326 142 OFFCURVE",
"362 87 OFFCURVE",
"349 79 CURVE",
"297 79 LINE",
"249 78 LINE SMOOTH",
"181 77 OFFCURVE",
"157 79 OFFCURVE",
"157 212 CURVE SMOOTH",
"157 312 OFFCURVE",
"159 478 OFFCURVE",
"159 531 CURVE",
"70 531 LINE",
"70 134 LINE SMOOTH",
"70 39 OFFCURVE",
"111 0 OFFCURVE",
"163 0 CURVE SMOOTH"
);
},
{
closed = 1;
nodes = (
"856 193 LINE",
"884 192 OFFCURVE",
"904 185 OFFCURVE",
"917 171 CURVE",
"929 156 OFFCURVE",
"935 134 OFFCURVE",
"935 107 CURVE SMOOTH",
"935 100 OFFCURVE",
"934 93 OFFCURVE",
"932 85 CURVE SMOOTH",
"928 70 OFFCURVE",
"924 59 OFFCURVE",
"917 50 CURVE",
"909 38 OFFCURVE",
"897 32 OFFCURVE",
"883 28 CURVE SMOOTH",
"875 26 OFFCURVE",
"867 24 OFFCURVE",
"856 24 CURVE"
);
}
);
width = 1066;
}
);
note = uni1294;
},
{
glyphname = "raa_ne-ethiopic.liga";
lastChange = "2019-03-09 17:08:55 +0000";
layers = (
{
layerId = "994FE389-9D54-4FAA-B055-C46A67020E78";
paths = (
{
closed = 1;
nodes = (
"890 -12 LINE",
"890 211 LINE SMOOTH",
"890 236 OFFCURVE",
"888 253 OFFCURVE",
"850 253 CURVE SMOOTH",
"747 253 LINE",
"900 445 LINE SMOOTH",
"913 461 OFFCURVE",
"902 531 OFFCURVE",
"856 531 CURVE SMOOTH",
"509 531 LINE",
"509 450 LINE",
"809 450 LINE",
"667 266 LINE SMOOTH",
"609 191 OFFCURVE",
"636 191 OFFCURVE",
"657 191 CURVE SMOOTH",
"799 191 LINE",
"799 -12 LINE"
);
},
{
closed = 1;
nodes = (
"339 0 LINE SMOOTH",
"433 0 OFFCURVE",
"438 0 OFFCURVE",
"438 55 CURVE SMOOTH",
"438 86 OFFCURVE",
"363 186 OFFCURVE",
"363 214 CURVE SMOOTH",
"363 256 OFFCURVE",
"390 218 OFFCURVE",
"511 219 CURVE",
"511 291 LINE",
"482 291 LINE SMOOTH",
"373 291 OFFCURVE",
"293 296 OFFCURVE",
"293 242 CURVE SMOOTH",
"293 226 OFFCURVE",
"305 187 OFFCURVE",
"318 161 CURVE",
"326 142 OFFCURVE",
"362 87 OFFCURVE",
"349 79 CURVE",
"298 79 LINE",
"249 78 LINE SMOOTH",
"182 77 OFFCURVE",
"157 78 OFFCURVE",
"157 212 CURVE SMOOTH",
"157 312 OFFCURVE",
"159 478 OFFCURVE",
"159 531 CURVE",
"70 531 LINE",
"70 134 LINE SMOOTH",
"70 39 OFFCURVE",
"111 0 OFFCURVE",
"163 0 CURVE SMOOTH"
);
}
);
width = 975;
}
);
note = uni1295;
},
{
glyphname = "raa_nya-ethiopic.liga";
lastChange = "2019-03-09 00:04:35 +0000";
layers = (
{
layerId = "994FE389-9D54-4FAA-B055-C46A67020E78";
paths = (
{
closed = 1;
nodes = (
"930 0 LINE",
"930 439 LINE SMOOTH",
"930 531 OFFCURVE",
"930 531 OFFCURVE",
"826 531 CURVE SMOOTH",
"597 531 LINE",
"597 682 LINE",
"720 682 LINE",
"720 727 LINE",
"404 727 LINE",
"404 682 LINE",
"506 682 LINE",
"506 505 LINE SMOOTH",
"506 477 OFFCURVE",
"524 458 OFFCURVE",
"553 458 CURVE SMOOTH",
"781 458 LINE SMOOTH",
"839 458 OFFCURVE",
"839 458 OFFCURVE",
"839 278 CURVE SMOOTH",
"839 0 LINE"
);
},
{
closed = 1;
nodes = (
"339 0 LINE SMOOTH",
"433 0 OFFCURVE",
"438 0 OFFCURVE",
"438 55 CURVE SMOOTH",
"438 86 OFFCURVE",
"363 186 OFFCURVE",
"363 214 CURVE SMOOTH",
"363 256 OFFCURVE",
"390 218 OFFCURVE",
"511 219 CURVE",
"511 291 LINE",
"482 291 LINE SMOOTH",
"373 291 OFFCURVE",
"293 296 OFFCURVE",
"293 242 CURVE SMOOTH",
"293 226 OFFCURVE",
"305 187 OFFCURVE",
"317 161 CURVE SMOOTH",
"325 143 OFFCURVE",
"365 79 OFFCURVE",
"349 79 CURVE SMOOTH",
"297 79 LINE",
"249 78 LINE SMOOTH",
"183 77 OFFCURVE",
"156 77 OFFCURVE",
"156 212 CURVE SMOOTH",
"156 312 OFFCURVE",
"159 478 OFFCURVE",
"159 531 CURVE",
"70 531 LINE",
"70 134 LINE SMOOTH",
"70 39 OFFCURVE",
"111 0 OFFCURVE",
"163 0 CURVE SMOOTH"
);
}
);
width = 1000;
}
);
note = uni1298;
},
{
glyphname = "raa_nyu-ethiopic.liga";
lastChange = "2019-03-09 00:04:35 +0000";
layers = (
{
layerId = "994FE389-9D54-4FAA-B055-C46A67020E78";
paths = (
{
closed = 1;
nodes = (
"903 0 LINE",
"903 246 LINE",
"1002 246 LINE",
"1002 346 LINE",
"903 346 LINE",
"903 439 LINE SMOOTH",
"903 531 OFFCURVE",
"903 531 OFFCURVE",
"799 531 CURVE SMOOTH",
"570 531 LINE",
"570 682 LINE",
"693 682 LINE",
"693 727 LINE",
"376 727 LINE",
"376 682 LINE",
"479 682 LINE",
"479 505 LINE SMOOTH",
"479 477 OFFCURVE",
"496 458 OFFCURVE",
"525 458 CURVE SMOOTH",
"754 458 LINE SMOOTH",
"812 458 OFFCURVE",
"812 458 OFFCURVE",
"812 278 CURVE SMOOTH",
"812 0 LINE"
);
},
{
closed = 1;
nodes = (
"339 0 LINE SMOOTH",
"433 0 OFFCURVE",
"438 0 OFFCURVE",
"438 55 CURVE SMOOTH",
"438 86 OFFCURVE",
"363 186 OFFCURVE",
"363 214 CURVE SMOOTH",
"363 256 OFFCURVE",
"390 218 OFFCURVE",
"511 219 CURVE",
"511 291 LINE",
"482 291 LINE SMOOTH",
"373 291 OFFCURVE",
"293 296 OFFCURVE",
"293 242 CURVE SMOOTH",
"293 226 OFFCURVE",
"304 187 OFFCURVE",
"317 161 CURVE",
"325 142 OFFCURVE",
"362 87 OFFCURVE",
"349 79 CURVE",
"297 79 LINE",
"249 78 LINE SMOOTH",
"183 77 OFFCURVE",
"156 77 OFFCURVE",
"156 212 CURVE SMOOTH",
"156 312 OFFCURVE",
"159 478 OFFCURVE",
"159 531 CURVE",
"70 531 LINE",
"70 134 LINE SMOOTH",
"70 39 OFFCURVE",
"111 0 OFFCURVE",
"163 0 CURVE SMOOTH"
);
}
);
width = 1072;
}
);
note = uni1299;
},
{
glyphname = "raa_nyi-ethiopic.liga";
lastChange = "2019-03-09 00:04:35 +0000";
layers = (
{
layerId = "994FE389-9D54-4FAA-B055-C46A67020E78";
paths = (
{
closed = 1;
nodes = (
"1006 0 LINE",
"1006 100 LINE",
"907 100 LINE",
"907 439 LINE SMOOTH",
"907 531 OFFCURVE",
"907 531 OFFCURVE",
"803 531 CURVE SMOOTH",
"574 531 LINE",
"574 682 LINE",
"714 682 LINE",
"714 727 LINE",
"381 727 LINE",
"381 682 LINE",
"483 682 LINE",
"483 505 LINE SMOOTH",
"483 477 OFFCURVE",
"501 458 OFFCURVE",
"530 458 CURVE SMOOTH",
"758 458 LINE SMOOTH",
"816 458 OFFCURVE",
"816 458 OFFCURVE",
"816 278 CURVE SMOOTH",
"816 0 LINE"
);
},
{
closed = 1;
nodes = (
"339 0 LINE SMOOTH",
"432 0 OFFCURVE",
"438 0 OFFCURVE",
"438 55 CURVE SMOOTH",
"438 86 OFFCURVE",
"362 186 OFFCURVE",
"362 214 CURVE SMOOTH",
"362 256 OFFCURVE",
"390 218 OFFCURVE",
"511 219 CURVE",
"511 291 LINE",
"481 291 LINE SMOOTH",
"372 291 OFFCURVE",
"292 296 OFFCURVE",
"292 242 CURVE SMOOTH",
"292 226 OFFCURVE",
"304 187 OFFCURVE",
"317 161 CURVE",
"325 142 OFFCURVE",
"361 87 OFFCURVE",
"349 79 CURVE",
"297 79 LINE",
"249 78 LINE SMOOTH",
"181 77 OFFCURVE",
"156 78 OFFCURVE",
"156 212 CURVE SMOOTH",
"156 312 OFFCURVE",
"159 478 OFFCURVE",
"159 531 CURVE",
"70 531 LINE",
"70 134 LINE SMOOTH",
"70 39 OFFCURVE",
"111 0 OFFCURVE",
"162 0 CURVE SMOOTH"
);
}
);
width = 1076;
}
);
note = uni129A;
},
{
glyphname = "raa_nyee-ethiopic.liga";
lastChange = "2019-03-09 00:04:35 +0000";
layers = (
{
layerId = "994FE389-9D54-4FAA-B055-C46A67020E78";
paths = (
{
closed = 1;
nodes = (
"957 0 LINE SMOOTH",
"1002 0 OFFCURVE",
"1034 16 OFFCURVE",
"1052 46 CURVE SMOOTH",
"1062 64 OFFCURVE",
"1068 85 OFFCURVE",
"1068 106 CURVE SMOOTH",
"1068 134 OFFCURVE",
"1060 158 OFFCURVE",
"1041 175 CURVE",
"1019 193 OFFCURVE",
"994 205 OFFCURVE",
"958 205 CURVE SMOOTH",
"911 205 LINE",
"911 439 LINE SMOOTH",
"911 531 OFFCURVE",
"911 531 OFFCURVE",
"808 531 CURVE SMOOTH",
"579 531 LINE",
"579 682 LINE",
"747 682 LINE",
"747 727 LINE",
"385 727 LINE",
"385 682 LINE",
"488 682 LINE",
"488 505 LINE SMOOTH",
"488 477 OFFCURVE",
"505 458 OFFCURVE",
"534 458 CURVE SMOOTH",
"762 458 LINE SMOOTH",
"821 458 OFFCURVE",
"821 458 OFFCURVE",
"821 278 CURVE SMOOTH",
"821 0 LINE"
);
},
{
closed = 1;
nodes = (
"339 0 LINE SMOOTH",
"432 0 OFFCURVE",
"438 0 OFFCURVE",
"438 55 CURVE SMOOTH",
"438 86 OFFCURVE",
"362 186 OFFCURVE",
"362 214 CURVE SMOOTH",
"362 256 OFFCURVE",
"390 218 OFFCURVE",
"511 219 CURVE",
"511 291 LINE",
"481 291 LINE SMOOTH",
"372 291 OFFCURVE",
"292 296 OFFCURVE",
"292 242 CURVE SMOOTH",
"292 226 OFFCURVE",
"304 187 OFFCURVE",
"317 161 CURVE",
"325 142 OFFCURVE",
"361 87 OFFCURVE",
"349 79 CURVE",
"297 79 LINE",
"249 78 LINE SMOOTH",
"181 77 OFFCURVE",
"156 78 OFFCURVE",
"156 212 CURVE SMOOTH",
"156 312 OFFCURVE",
"159 478 OFFCURVE",
"159 531 CURVE",
"70 531 LINE",
"70 134 LINE SMOOTH",
"70 39 OFFCURVE",
"111 0 OFFCURVE",
"162 0 CURVE SMOOTH"
);
},
{
closed = 1;
nodes = (
"911 182 LINE",
"925 182 LINE SMOOTH",
"954 182 OFFCURVE",
"976 175 OFFCURVE",
"989 161 CURVE",
"1001 147 OFFCURVE",
"1007 126 OFFCURVE",
"1007 101 CURVE SMOOTH",
"1007 95 OFFCURVE",
"1006 87 OFFCURVE",
"1004 80 CURVE",
"1001 66 OFFCURVE",
"996 56 OFFCURVE",
"990 47 CURVE",
"981 36 OFFCURVE",
"970 30 OFFCURVE",
"955 26 CURVE",
"947 25 OFFCURVE",
"938 23 OFFCURVE",
"926 23 CURVE SMOOTH",
"911 23 LINE"
);
}
);
width = 1138;
}
);
note = uni129C;
},
{
glyphname = "raa_ga-ethiopic.liga";
lastChange = "2019-03-09 00:04:35 +0000";
layers = (
{
layerId = "994FE389-9D54-4FAA-B055-C46A67020E78";
paths = (
{
closed = 1;
nodes = (
"339 0 LINE SMOOTH",
"433 0 OFFCURVE",
"439 0 OFFCURVE",
"439 55 CURVE SMOOTH",
"439 86 OFFCURVE",
"363 186 OFFCURVE",
"363 214 CURVE SMOOTH",
"363 256 OFFCURVE",
"390 218 OFFCURVE",
"511 219 CURVE",
"511 291 LINE",
"482 291 LINE SMOOTH",
"373 291 OFFCURVE",
"293 296 OFFCURVE",
"293 242 CURVE SMOOTH",
"293 226 OFFCURVE",
"305 187 OFFCURVE",
"318 161 CURVE",
"326 142 OFFCURVE",
"362 87 OFFCURVE",
"349 79 CURVE",
"298 79 LINE",
"249 78 LINE SMOOTH",
"182 77 OFFCURVE",
"157 78 OFFCURVE",
"157 212 CURVE SMOOTH",
"157 312 OFFCURVE",
"159 478 OFFCURVE",
"159 531 CURVE",
"70 531 LINE",
"70 134 LINE SMOOTH",
"70 39 OFFCURVE",
"111 0 OFFCURVE",
"163 0 CURVE SMOOTH"
);
},
{
closed = 1;
nodes = (
"857 0 LINE",
"857 397 LINE SMOOTH",
"857 481 OFFCURVE",
"816 531 OFFCURVE",
"764 531 CURVE SMOOTH",
"429 532 LINE",
"429 452 LINE",
"678 453 LINE SMOOTH",
"754 453 OFFCURVE",
"770 446 OFFCURVE",
"770 319 CURVE SMOOTH",
"770 219 OFFCURVE",
"768 53 OFFCURVE",
"768 0 CURVE"
);
}
);
width = 927;
}
);
},
{
glyphname = "raa_gu-ethiopic.liga";
lastChange = "2019-03-09 00:04:35 +0000";
layers = (
{
layerId = "994FE389-9D54-4FAA-B055-C46A67020E78";
paths = (
{
closed = 1;
nodes = (
"811 0 LINE",
"811 249 LINE",
"914 249 LINE",
"914 354 LINE",
"811 354 LINE",
"811 397 LINE SMOOTH",
"811 481 OFFCURVE",
"770 531 OFFCURVE",
"719 531 CURVE SMOOTH",
"384 532 LINE",
"383 452 LINE",
"632 453 LINE SMOOTH",
"709 453 OFFCURVE",
"725 446 OFFCURVE",
"725 319 CURVE SMOOTH",
"725 219 OFFCURVE",
"722 53 OFFCURVE",
"722 0 CURVE"
);
},
{
closed = 1;
nodes = (
"339 0 LINE SMOOTH",
"433 0 OFFCURVE",
"439 0 OFFCURVE",
"439 55 CURVE SMOOTH",
"439 86 OFFCURVE",
"363 186 OFFCURVE",
"363 214 CURVE SMOOTH",
"363 256 OFFCURVE",
"390 218 OFFCURVE",
"511 219 CURVE",
"511 291 LINE",
"482 291 LINE SMOOTH",
"373 291 OFFCURVE",
"293 296 OFFCURVE",
"293 242 CURVE SMOOTH",
"293 226 OFFCURVE",
"305 187 OFFCURVE",
"318 161 CURVE",
"326 142 OFFCURVE",
"362 87 OFFCURVE",
"349 79 CURVE",
"298 79 LINE",
"249 78 LINE SMOOTH",
"182 77 OFFCURVE",
"157 78 OFFCURVE",
"157 212 CURVE SMOOTH",
"157 312 OFFCURVE",
"159 478 OFFCURVE",
"159 531 CURVE",
"70 531 LINE",
"70 134 LINE SMOOTH",
"70 39 OFFCURVE",
"111 0 OFFCURVE",
"163 0 CURVE SMOOTH"
);
}
);
width = 984;
}
);
},
{
glyphname = "raa_gi-ethiopic.liga";
lastChange = "2019-03-09 00:04:35 +0000";
layers = (
{
layerId = "994FE389-9D54-4FAA-B055-C46A67020E78";
paths = (
{
closed = 1;
nodes = (
"903 0 LINE",
"903 65 LINE",
"794 65 LINE",
"794 397 LINE SMOOTH",
"794 481 OFFCURVE",
"753 531 OFFCURVE",
"701 531 CURVE SMOOTH",
"367 532 LINE",
"366 452 LINE",
"615 453 LINE SMOOTH",
"691 453 OFFCURVE",
"708 446 OFFCURVE",
"708 319 CURVE SMOOTH",
"708 219 OFFCURVE",
"705 53 OFFCURVE",
"705 0 CURVE"
);
},
{
closed = 1;
nodes = (
"339 0 LINE SMOOTH",
"432 0 OFFCURVE",
"438 0 OFFCURVE",
"438 55 CURVE SMOOTH",
"438 86 OFFCURVE",
"362 186 OFFCURVE",
"362 214 CURVE SMOOTH",
"362 256 OFFCURVE",
"390 218 OFFCURVE",
"511 219 CURVE",
"511 291 LINE",
"481 291 LINE SMOOTH",
"372 291 OFFCURVE",
"292 296 OFFCURVE",
"292 242 CURVE SMOOTH",
"292 226 OFFCURVE",
"304 187 OFFCURVE",
"317 161 CURVE",
"325 142 OFFCURVE",
"361 87 OFFCURVE",
"349 79 CURVE",
"297 79 LINE",
"249 78 LINE SMOOTH",
"181 77 OFFCURVE",
"156 78 OFFCURVE",
"156 212 CURVE SMOOTH",
"156 312 OFFCURVE",
"159 478 OFFCURVE",
"159 531 CURVE",
"70 531 LINE",
"70 134 LINE SMOOTH",
"70 39 OFFCURVE",
"111 0 OFFCURVE",
"162 0 CURVE SMOOTH"
);
}
);
width = 973;
}
);
note = uni130A;
},
{
glyphname = "raa_gaa-ethiopic.liga";
lastChange = "2019-03-09 00:04:35 +0000";
layers = (
{
components = (
{
name = "gaa-ethiopic";
transform = "{1, 0, 0, 1, 360, 0}";
}
);
layerId = "994FE389-9D54-4FAA-B055-C46A67020E78";
paths = (
{
closed = 1;
nodes = (
"339 0 LINE SMOOTH",
"433 0 OFFCURVE",
"438 0 OFFCURVE",
"438 55 CURVE SMOOTH",
"438 86 OFFCURVE",
"363 186 OFFCURVE",
"363 214 CURVE SMOOTH",
"363 256 OFFCURVE",
"390 218 OFFCURVE",
"511 219 CURVE",
"511 291 LINE",
"482 291 LINE SMOOTH",
"373 291 OFFCURVE",
"293 296 OFFCURVE",
"293 242 CURVE SMOOTH",
"293 226 OFFCURVE",
"304 187 OFFCURVE",
"317 161 CURVE",
"325 142 OFFCURVE",
"362 87 OFFCURVE",
"349 79 CURVE",
"297 79 LINE",
"249 78 LINE SMOOTH",
"183 77 OFFCURVE",
"156 77 OFFCURVE",
"156 212 CURVE SMOOTH",
"156 312 OFFCURVE",
"159 478 OFFCURVE",
"159 531 CURVE",
"70 531 LINE",
"70 134 LINE SMOOTH",
"70 39 OFFCURVE",
"111 0 OFFCURVE",
"163 0 CURVE SMOOTH"
);
}
);
width = 925;
}
);
note = uni130B;
},
{
glyphname = "raa_gee-ethiopic.liga";
lastChange = "2019-03-09 00:04:35 +0000";
layers = (
{
layerId = "994FE389-9D54-4FAA-B055-C46A67020E78";
paths = (
{
closed = 1;
nodes = (
"869 -4 LINE SMOOTH",
"901 -4 OFFCURVE",
"922 9 OFFCURVE",
"941 29 CURVE SMOOTH",
"957 47 OFFCURVE",
"964 75 OFFCURVE",
"964 106 CURVE SMOOTH",
"964 129 OFFCURVE",
"960 151 OFFCURVE",
"951 170 CURVE",
"937 204 OFFCURVE",
"908 222 OFFCURVE",
"869 222 CURVE SMOOTH",
"840 222 LINE",
"840 393 LINE SMOOTH",
"840 476 OFFCURVE",
"799 526 OFFCURVE",
"747 526 CURVE SMOOTH",
"412 527 LINE",
"411 447 LINE",
"661 448 LINE SMOOTH",
"737 448 OFFCURVE",
"753 442 OFFCURVE",
"753 315 CURVE SMOOTH",
"753 215 OFFCURVE",
"751 48 OFFCURVE",
"751 -4 CURVE"
);
},
{
closed = 1;
nodes = (
"339 0 LINE SMOOTH",
"432 0 OFFCURVE",
"438 0 OFFCURVE",
"438 55 CURVE SMOOTH",
"438 86 OFFCURVE",
"362 186 OFFCURVE",
"362 214 CURVE SMOOTH",
"362 256 OFFCURVE",
"390 218 OFFCURVE",
"511 219 CURVE",
"511 291 LINE",
"481 291 LINE SMOOTH",
"372 291 OFFCURVE",
"292 296 OFFCURVE",
"292 242 CURVE SMOOTH",
"292 226 OFFCURVE",
"304 187 OFFCURVE",
"317 161 CURVE",
"325 142 OFFCURVE",
"361 87 OFFCURVE",
"349 79 CURVE",
"297 79 LINE",
"249 78 LINE SMOOTH",
"181 77 OFFCURVE",
"156 78 OFFCURVE",
"156 212 CURVE SMOOTH",
"156 312 OFFCURVE",
"159 478 OFFCURVE",
"159 531 CURVE",
"70 531 LINE",
"70 134 LINE SMOOTH",
"70 39 OFFCURVE",
"111 0 OFFCURVE",
"162 0 CURVE SMOOTH"
);
},
{
closed = 1;
nodes = (
"840 197 LINE",
"842 197 LINE SMOOTH",
"852 197 OFFCURVE",
"861 196 OFFCURVE",
"867 193 CURVE SMOOTH",
"880 187 OFFCURVE",
"891 183 OFFCURVE",
"897 169 CURVE SMOOTH",
"901 159 OFFCURVE",
"906 149 OFFCURVE",
"910 134 CURVE",
"911 126 OFFCURVE",
"912 117 OFFCURVE",
"912 110 CURVE SMOOTH",
"912 83 OFFCURVE",
"907 59 OFFCURVE",
"897 44 CURVE SMOOTH",
"887 28 OFFCURVE",
"866 22 OFFCURVE",
"841 22 CURVE SMOOTH",
"840 22 LINE"
);
}
);
width = 1034;
}
);
note = uni130C;
},
{
glyphname = "raa_ge-ethiopic.liga";
lastChange = "2019-03-09 00:04:35 +0000";
layers = (
{
layerId = "994FE389-9D54-4FAA-B055-C46A67020E78";
paths = (
{
closed = 1;
nodes = (
"339 0 LINE SMOOTH",
"433 0 OFFCURVE",
"438 0 OFFCURVE",
"438 55 CURVE SMOOTH",
"438 86 OFFCURVE",
"363 186 OFFCURVE",
"363 214 CURVE SMOOTH",
"363 256 OFFCURVE",
"390 218 OFFCURVE",
"511 219 CURVE",
"511 291 LINE",
"482 291 LINE SMOOTH",
"373 291 OFFCURVE",
"293 296 OFFCURVE",
"293 242 CURVE SMOOTH",
"293 226 OFFCURVE",
"305 187 OFFCURVE",
"317 161 CURVE SMOOTH",
"325 142 OFFCURVE",
"362 87 OFFCURVE",
"349 79 CURVE",
"297 79 LINE",
"249 78 LINE SMOOTH",
"183 77 OFFCURVE",
"156 77 OFFCURVE",
"156 212 CURVE SMOOTH",
"156 312 OFFCURVE",
"159 478 OFFCURVE",
"159 531 CURVE",
"70 531 LINE",
"70 134 LINE SMOOTH",
"70 39 OFFCURVE",
"111 0 OFFCURVE",
"163 0 CURVE SMOOTH"
);
},
{
closed = 1;
nodes = (
"872 0 LINE",
"872 397 LINE SMOOTH",
"872 481 OFFCURVE",
"831 531 OFFCURVE",
"779 531 CURVE SMOOTH",
"445 532 LINE",
"444 452 LINE",
"445 452 LINE",
"445 420 LINE SMOOTH",
"445 388 OFFCURVE",
"458 366 OFFCURVE",
"478 348 CURVE SMOOTH",
"496 332 OFFCURVE",
"524 325 OFFCURVE",
"555 325 CURVE SMOOTH",
"578 325 OFFCURVE",
"600 329 OFFCURVE",
"619 337 CURVE SMOOTH",
"653 352 OFFCURVE",
"671 381 OFFCURVE",
"671 420 CURVE SMOOTH",
"671 453 LINE",
"693 453 LINE SMOOTH",
"769 453 OFFCURVE",
"785 446 OFFCURVE",
"785 319 CURVE SMOOTH",
"785 219 OFFCURVE",
"783 53 OFFCURVE",
"783 0 CURVE"
);
},
{
closed = 1;
nodes = (
"532 376 OFFCURVE",
"508 382 OFFCURVE",
"493 392 CURVE SMOOTH",
"477 402 OFFCURVE",
"471 423 OFFCURVE",
"471 447 CURVE SMOOTH",
"471 452 LINE",
"646 453 LINE",
"646 446 LINE SMOOTH",
"646 436 OFFCURVE",
"645 428 OFFCURVE",
"642 422 CURVE SMOOTH",
"636 409 OFFCURVE",
"632 398 OFFCURVE",
"618 392 CURVE",
"608 387 OFFCURVE",
"598 383 OFFCURVE",
"583 379 CURVE SMOOTH",
"575 377 OFFCURVE",
"566 376 OFFCURVE",
"559 376 CURVE SMOOTH"
);
}
);
width = 942;
}
);
note = uni130D;
},
{
glyphname = "raa_go-ethiopic.liga";
lastChange = "2019-03-09 00:04:35 +0000";
layers = (
{
layerId = "994FE389-9D54-4FAA-B055-C46A67020E78";
paths = (
{
closed = 1;
nodes = (
"847 0 LINE",
"847 397 LINE SMOOTH",
"847 492 OFFCURVE",
"806 531 OFFCURVE",
"754 531 CURVE SMOOTH",
"627 531 LINE",
"627 727 LINE",
"558 727 LINE",
"558 532 LINE",
"420 532 LINE",
"419 452 LINE",
"668 453 LINE SMOOTH",
"744 453 OFFCURVE",
"760 446 OFFCURVE",
"760 319 CURVE SMOOTH",
"760 219 OFFCURVE",
"758 53 OFFCURVE",
"758 0 CURVE"
);
},
{
closed = 1;
nodes = (
"340 0 LINE SMOOTH",
"433 0 OFFCURVE",
"439 0 OFFCURVE",
"439 55 CURVE SMOOTH",
"439 86 OFFCURVE",
"363 186 OFFCURVE",
"363 214 CURVE SMOOTH",
"363 256 OFFCURVE",
"390 218 OFFCURVE",
"511 219 CURVE",
"511 291 LINE",
"482 291 LINE SMOOTH",
"373 291 OFFCURVE",
"293 296 OFFCURVE",
"293 242 CURVE SMOOTH",
"293 226 OFFCURVE",
"305 187 OFFCURVE",
"318 161 CURVE",
"326 142 OFFCURVE",
"362 87 OFFCURVE",
"350 79 CURVE",
"298 79 LINE",
"250 78 LINE SMOOTH",
"182 77 OFFCURVE",
"157 78 OFFCURVE",
"157 212 CURVE SMOOTH",
"157 312 OFFCURVE",
"160 478 OFFCURVE",
"160 531 CURVE",
"70 531 LINE",
"70 134 LINE SMOOTH",
"70 39 OFFCURVE",
"111 0 OFFCURVE",
"163 0 CURVE SMOOTH"
);
}
);
width = 917;
}
);
},
{
glyphname = "raa_goa-ethiopic.liga";
lastChange = "2019-03-09 00:04:35 +0000";
layers = (
{
layerId = "994FE389-9D54-4FAA-B055-C46A67020E78";
paths = (
{
closed = 1;
nodes = (
"797 30 LINE",
"797 0 LINE",
"886 0 LINE",
"886 397 LINE SMOOTH",
"886 492 OFFCURVE",
"845 531 OFFCURVE",
"793 531 CURVE SMOOTH",
"696 531 LINE",
"696 727 LINE",
"627 727 LINE",
"627 531 LINE",
"459 532 LINE",
"458 452 LINE",
"707 453 LINE SMOOTH",
"783 453 OFFCURVE",
"800 446 OFFCURVE",
"800 319 CURVE SMOOTH",
"800 235 OFFCURVE",
"798 103 OFFCURVE",
"797 32 CURVE",
"600 -15 LINE",
"607 -111 LINE"
);
},
{
closed = 1;
nodes = (
"339 0 LINE SMOOTH",
"433 0 OFFCURVE",
"438 0 OFFCURVE",
"438 55 CURVE SMOOTH",
"438 86 OFFCURVE",
"363 186 OFFCURVE",
"363 214 CURVE SMOOTH",
"363 256 OFFCURVE",
"390 218 OFFCURVE",
"511 219 CURVE",
"511 291 LINE",
"482 291 LINE SMOOTH",
"373 291 OFFCURVE",
"293 296 OFFCURVE",
"293 242 CURVE SMOOTH",
"293 226 OFFCURVE",
"304 187 OFFCURVE",
"317 161 CURVE",
"325 142 OFFCURVE",
"362 87 OFFCURVE",
"349 79 CURVE",
"297 79 LINE",
"249 78 LINE SMOOTH",
"183 77 OFFCURVE",
"156 77 OFFCURVE",
"156 212 CURVE SMOOTH",
"156 312 OFFCURVE",
"159 478 OFFCURVE",
"159 531 CURVE",
"70 531 LINE",
"70 134 LINE SMOOTH",
"70 39 OFFCURVE",
"111 0 OFFCURVE",
"163 0 CURVE SMOOTH"
);
}
);
width = 956;
}
);
},
{
glyphname = "raa_gwa-ethiopic.liga";
lastChange = "2019-03-09 00:04:35 +0000";
layers = (
{
layerId = "994FE389-9D54-4FAA-B055-C46A67020E78";
paths = (
{
closed = 1;
nodes = (
"767 0 LINE",
"767 137 LINE",
"801 137 LINE SMOOTH",
"833 137 OFFCURVE",
"855 151 OFFCURVE",
"873 171 CURVE SMOOTH",
"889 189 OFFCURVE",
"897 216 OFFCURVE",
"897 247 CURVE SMOOTH",
"897 271 OFFCURVE",
"892 293 OFFCURVE",
"884 312 CURVE SMOOTH",
"869 346 OFFCURVE",
"840 364 OFFCURVE",
"801 364 CURVE SMOOTH",
"767 364 LINE",
"767 397 LINE SMOOTH",
"767 481 OFFCURVE",
"727 531 OFFCURVE",
"675 531 CURVE SMOOTH",
"340 532 LINE",
"339 452 LINE",
"588 453 LINE SMOOTH",
"665 453 OFFCURVE",
"681 446 OFFCURVE",
"681 319 CURVE SMOOTH",
"681 219 OFFCURVE",
"678 53 OFFCURVE",
"678 0 CURVE"
);
},
{
closed = 1;
nodes = (
"339 0 LINE SMOOTH",
"433 0 OFFCURVE",
"438 0 OFFCURVE",
"438 55 CURVE SMOOTH",
"438 86 OFFCURVE",
"363 186 OFFCURVE",
"363 214 CURVE SMOOTH",
"363 256 OFFCURVE",
"390 218 OFFCURVE",
"511 219 CURVE",
"511 291 LINE",
"482 291 LINE SMOOTH",
"373 291 OFFCURVE",
"293 296 OFFCURVE",
"293 242 CURVE SMOOTH",
"293 226 OFFCURVE",
"305 187 OFFCURVE",
"317 161 CURVE SMOOTH",
"326 142 OFFCURVE",
"362 87 OFFCURVE",
"349 79 CURVE",
"297 79 LINE",
"249 78 LINE SMOOTH",
"181 77 OFFCURVE",
"157 79 OFFCURVE",
"157 212 CURVE SMOOTH",
"157 312 OFFCURVE",
"159 478 OFFCURVE",
"159 531 CURVE",
"70 531 LINE",
"70 134 LINE SMOOTH",
"70 39 OFFCURVE",
"111 0 OFFCURVE",
"163 0 CURVE SMOOTH"
);
},
{
closed = 1;
nodes = (
"767 339 LINE",
"775 339 LINE SMOOTH",
"785 339 OFFCURVE",
"793 337 OFFCURVE",
"799 335 CURVE",
"812 329 OFFCURVE",
"823 325 OFFCURVE",
"829 311 CURVE",
"834 301 OFFCURVE",
"838 291 OFFCURVE",
"842 276 CURVE",
"844 267 OFFCURVE",
"845 259 OFFCURVE",
"845 252 CURVE SMOOTH",
"845 225 OFFCURVE",
"839 201 OFFCURVE",
"829 186 CURVE SMOOTH",
"819 170 OFFCURVE",
"798 164 OFFCURVE",
"774 164 CURVE SMOOTH",
"767 164 LINE"
);
}
);
width = 967;
}
);
note = uni1310;
},
{
glyphname = "raa_gwi-ethiopic.liga";
lastChange = "2019-03-09 00:04:35 +0000";
layers = (
{
layerId = "994FE389-9D54-4FAA-B055-C46A67020E78";
paths = (
{
closed = 1;
nodes = (
"807 0 LINE",
"807 273 LINE",
"851 273 LINE",
"851 229 LINE",
"1012 229 LINE",
"1012 276 LINE",
"899 276 LINE",
"899 391 LINE",
"858 391 LINE",
"858 323 LINE",
"807 323 LINE",
"807 397 LINE SMOOTH",
"807 481 OFFCURVE",
"766 531 OFFCURVE",
"714 531 CURVE SMOOTH",
"379 532 LINE",
"379 452 LINE",
"628 453 LINE SMOOTH",
"704 453 OFFCURVE",
"720 446 OFFCURVE",
"720 319 CURVE SMOOTH",
"720 219 OFFCURVE",
"718 53 OFFCURVE",
"718 0 CURVE"
);
},
{
closed = 1;
nodes = (
"339 0 LINE SMOOTH",
"433 0 OFFCURVE",
"439 0 OFFCURVE",
"439 55 CURVE SMOOTH",
"439 86 OFFCURVE",
"363 186 OFFCURVE",
"363 214 CURVE SMOOTH",
"363 256 OFFCURVE",
"390 218 OFFCURVE",
"511 219 CURVE",
"511 291 LINE",
"482 291 LINE SMOOTH",
"373 291 OFFCURVE",
"293 296 OFFCURVE",
"293 242 CURVE SMOOTH",
"293 226 OFFCURVE",
"305 187 OFFCURVE",
"318 161 CURVE",
"326 142 OFFCURVE",
"362 87 OFFCURVE",
"349 79 CURVE",
"298 79 LINE",
"249 78 LINE SMOOTH",
"182 77 OFFCURVE",
"157 78 OFFCURVE",
"157 212 CURVE SMOOTH",
"157 312 OFFCURVE",
"159 478 OFFCURVE",
"159 531 CURVE",
"70 531 LINE",
"70 134 LINE SMOOTH",
"70 39 OFFCURVE",
"111 0 OFFCURVE",
"163 0 CURVE SMOOTH"
);
}
);
width = 1082;
}
);
},
{
glyphname = "raa_gwaa-ethiopic.liga";
lastChange = "2019-03-09 00:04:35 +0000";
layers = (
{
layerId = "994FE389-9D54-4FAA-B055-C46A67020E78";
paths = (
{
closed = 1;
nodes = (
"947 -182 LINE",
"947 146 LINE",
"876 146 LINE",
"876 397 LINE SMOOTH",
"876 481 OFFCURVE",
"835 531 OFFCURVE",
"784 531 CURVE SMOOTH",
"449 532 LINE",
"448 452 LINE",
"697 453 LINE SMOOTH",
"774 453 OFFCURVE",
"790 446 OFFCURVE",
"790 319 CURVE SMOOTH",
"790 235 OFFCURVE",
"788 180 OFFCURVE",
"787 134 CURVE",
"625 126 LINE",
"690 55 LINE",
"788 109 LINE",
"854 109 LINE",
"854 -182 LINE"
);
},
{
closed = 1;
nodes = (
"339 0 LINE SMOOTH",
"433 0 OFFCURVE",
"438 0 OFFCURVE",
"438 55 CURVE SMOOTH",
"438 86 OFFCURVE",
"363 186 OFFCURVE",
"363 214 CURVE SMOOTH",
"363 256 OFFCURVE",
"390 218 OFFCURVE",
"511 219 CURVE",
"511 291 LINE",
"482 291 LINE SMOOTH",
"373 291 OFFCURVE",
"293 296 OFFCURVE",
"293 242 CURVE SMOOTH",
"293 226 OFFCURVE",
"305 187 OFFCURVE",
"317 161 CURVE SMOOTH",
"325 142 OFFCURVE",
"362 87 OFFCURVE",
"349 79 CURVE",
"297 79 LINE",
"249 78 LINE SMOOTH",
"183 77 OFFCURVE",
"156 77 OFFCURVE",
"156 212 CURVE SMOOTH",
"156 312 OFFCURVE",
"159 478 OFFCURVE",
"159 531 CURVE",
"70 531 LINE",
"70 134 LINE SMOOTH",
"70 39 OFFCURVE",
"111 0 OFFCURVE",
"163 0 CURVE SMOOTH"
);
}
);
width = 1017;
}
);
note = uni1313;
},
{
glyphname = "raa_gwee-ethiopic.liga";
lastChange = "2019-03-09 00:04:35 +0000";
layers = (
{
layerId = "994FE389-9D54-4FAA-B055-C46A67020E78";
paths = (
{
closed = 1;
nodes = (
"797 26 LINE",
"797 0 LINE",
"828 0 LINE",
"828 -1 LINE",
"926 -1 LINE SMOOTH",
"971 -1 OFFCURVE",
"1003 14 OFFCURVE",
"1021 41 CURVE SMOOTH",
"1031 57 OFFCURVE",
"1037 76 OFFCURVE",
"1037 95 CURVE SMOOTH",
"1037 121 OFFCURVE",
"1028 143 OFFCURVE",
"1009 157 CURVE",
"987 175 OFFCURVE",
"963 186 OFFCURVE",
"927 186 CURVE SMOOTH",
"886 186 LINE",
"886 397 LINE SMOOTH",
"886 492 OFFCURVE",
"845 531 OFFCURVE",
"793 531 CURVE SMOOTH",
"666 531 LINE",
"666 727 LINE",
"597 727 LINE",
"597 532 LINE",
"458 532 LINE",
"457 452 LINE",
"707 453 LINE SMOOTH",
"783 453 OFFCURVE",
"799 446 OFFCURVE",
"799 319 CURVE SMOOTH",
"799 234 OFFCURVE",
"797 101 OFFCURVE",
"797 30 CURVE",
"606 -15 LINE",
"613 -111 LINE"
);
},
{
closed = 1;
nodes = (
"339 0 LINE SMOOTH",
"433 0 OFFCURVE",
"438 0 OFFCURVE",
"438 55 CURVE SMOOTH",
"438 86 OFFCURVE",
"363 186 OFFCURVE",
"363 214 CURVE SMOOTH",
"363 256 OFFCURVE",
"390 218 OFFCURVE",
"511 219 CURVE",
"511 291 LINE",
"482 291 LINE SMOOTH",
"373 291 OFFCURVE",
"293 296 OFFCURVE",
"293 242 CURVE SMOOTH",
"293 226 OFFCURVE",
"305 187 OFFCURVE",
"317 161 CURVE SMOOTH",
"326 142 OFFCURVE",
"362 87 OFFCURVE",
"349 79 CURVE",
"297 79 LINE",
"249 78 LINE SMOOTH",
"181 77 OFFCURVE",
"157 79 OFFCURVE",
"157 212 CURVE SMOOTH",
"157 312 OFFCURVE",
"159 478 OFFCURVE",
"159 531 CURVE",
"70 531 LINE",
"70 134 LINE SMOOTH",
"70 39 OFFCURVE",
"111 0 OFFCURVE",
"163 0 CURVE SMOOTH"
);
},
{
closed = 1;
nodes = (
"886 164 LINE",
"894 164 LINE SMOOTH",
"923 164 OFFCURVE",
"945 157 OFFCURVE",
"957 146 CURVE",
"970 133 OFFCURVE",
"976 114 OFFCURVE",
"976 91 CURVE SMOOTH",
"976 85 OFFCURVE",
"975 78 OFFCURVE",
"973 72 CURVE SMOOTH",
"969 59 OFFCURVE",
"965 50 OFFCURVE",
"958 42 CURVE",
"950 32 OFFCURVE",
"938 26 OFFCURVE",
"924 23 CURVE SMOOTH",
"916 21 OFFCURVE",
"907 19 OFFCURVE",
"895 19 CURVE SMOOTH",
"886 19 LINE"
);
}
);
width = 1107;
}
);
},
{
glyphname = "raa_gwe-ethiopic.liga";
lastChange = "2019-03-09 00:04:35 +0000";
layers = (
{
layerId = "994FE389-9D54-4FAA-B055-C46A67020E78";
paths = (
{
closed = 1;
nodes = (
"822 0 LINE",
"822 278 LINE",
"852 278 LINE",
"852 172 LINE",
"964 172 LINE",
"964 226 LINE",
"905 226 LINE",
"905 343 LINE",
"822 343 LINE",
"822 397 LINE SMOOTH",
"822 481 OFFCURVE",
"781 531 OFFCURVE",
"729 531 CURVE SMOOTH",
"394 532 LINE",
"394 452 LINE",
"643 453 LINE SMOOTH",
"719 453 OFFCURVE",
"735 446 OFFCURVE",
"735 319 CURVE SMOOTH",
"735 219 OFFCURVE",
"733 53 OFFCURVE",
"733 0 CURVE"
);
},
{
closed = 1;
nodes = (
"339 0 LINE SMOOTH",
"433 0 OFFCURVE",
"438 0 OFFCURVE",
"438 55 CURVE SMOOTH",
"438 86 OFFCURVE",
"363 186 OFFCURVE",
"363 214 CURVE SMOOTH",
"363 256 OFFCURVE",
"390 218 OFFCURVE",
"511 219 CURVE",
"511 291 LINE",
"482 291 LINE SMOOTH",
"373 291 OFFCURVE",
"293 296 OFFCURVE",
"293 242 CURVE SMOOTH",
"293 226 OFFCURVE",
"304 187 OFFCURVE",
"317 161 CURVE",
"325 142 OFFCURVE",
"362 87 OFFCURVE",
"349 79 CURVE",
"297 79 LINE",
"249 78 LINE SMOOTH",
"183 77 OFFCURVE",
"156 77 OFFCURVE",
"156 212 CURVE SMOOTH",
"156 312 OFFCURVE",
"159 478 OFFCURVE",
"159 531 CURVE",
"70 531 LINE",
"70 134 LINE SMOOTH",
"70 39 OFFCURVE",
"111 0 OFFCURVE",
"163 0 CURVE SMOOTH"
);
}
);
width = 1034;
}
);
},
{
glyphname = "raa_gga-ethiopic.liga";
lastChange = "2019-03-09 00:04:35 +0000";
layers = (
{
layerId = "994FE389-9D54-4FAA-B055-C46A67020E78";
paths = (
{
closed = 1;
nodes = (
"821 0 LINE",
"821 397 LINE SMOOTH",
"821 492 OFFCURVE",
"780 531 OFFCURVE",
"729 531 CURVE SMOOTH",
"582 531 LINE",
"582 682 LINE",
"680 682 LINE",
"680 727 LINE",
"442 727 LINE",
"442 682 LINE",
"539 682 LINE",
"539 532 LINE",
"394 532 LINE",
"393 452 LINE",
"642 453 LINE SMOOTH",
"719 453 OFFCURVE",
"735 446 OFFCURVE",
"735 319 CURVE SMOOTH",
"735 219 OFFCURVE",
"732 53 OFFCURVE",
"732 0 CURVE"
);
},
{
closed = 1;
nodes = (
"339 0 LINE SMOOTH",
"432 0 OFFCURVE",
"438 0 OFFCURVE",
"438 55 CURVE SMOOTH",
"438 86 OFFCURVE",
"362 186 OFFCURVE",
"362 214 CURVE SMOOTH",
"362 256 OFFCURVE",
"390 218 OFFCURVE",
"510 219 CURVE",
"510 291 LINE",
"481 291 LINE SMOOTH",
"372 291 OFFCURVE",
"292 296 OFFCURVE",
"292 242 CURVE SMOOTH",
"292 226 OFFCURVE",
"304 187 OFFCURVE",
"317 161 CURVE",
"325 142 OFFCURVE",
"361 87 OFFCURVE",
"349 79 CURVE",
"297 79 LINE",
"249 78 LINE SMOOTH",
"181 77 OFFCURVE",
"156 78 OFFCURVE",
"156 212 CURVE SMOOTH",
"156 312 OFFCURVE",
"159 478 OFFCURVE",
"159 531 CURVE",
"70 531 LINE",
"70 134 LINE SMOOTH",
"70 39 OFFCURVE",
"110 0 OFFCURVE",
"162 0 CURVE SMOOTH"
);
}
);
width = 891;
}
);
},
{
glyphname = "raa_ggu-ethiopic.liga";
lastChange = "2019-03-09 00:04:35 +0000";
layers = (
{
layerId = "994FE389-9D54-4FAA-B055-C46A67020E78";
paths = (
{
closed = 1;
nodes = (
"813 0 LINE",
"813 397 LINE SMOOTH",
"813 492 OFFCURVE",
"772 531 OFFCURVE",
"720 531 CURVE SMOOTH",
"574 531 LINE",
"574 688 LINE",
"696 688 LINE",
"696 727 LINE",
"438 727 LINE",
"438 688 LINE",
"535 688 LINE",
"535 532 LINE",
"386 532 LINE",
"385 452 LINE",
"634 453 LINE SMOOTH",
"710 453 OFFCURVE",
"726 446 OFFCURVE",
"726 319 CURVE SMOOTH",
"726 219 OFFCURVE",
"724 53 OFFCURVE",
"724 0 CURVE"
);
},
{
closed = 1;
nodes = (
"339 0 LINE SMOOTH",
"433 0 OFFCURVE",
"438 0 OFFCURVE",
"438 55 CURVE SMOOTH",
"438 86 OFFCURVE",
"363 186 OFFCURVE",
"363 214 CURVE SMOOTH",
"363 256 OFFCURVE",
"390 218 OFFCURVE",
"511 219 CURVE",
"511 291 LINE",
"482 291 LINE SMOOTH",
"373 291 OFFCURVE",
"293 296 OFFCURVE",
"293 242 CURVE SMOOTH",
"293 226 OFFCURVE",
"305 187 OFFCURVE",
"317 161 CURVE SMOOTH",
"326 142 OFFCURVE",
"362 87 OFFCURVE",
"349 79 CURVE",
"297 79 LINE",
"249 78 LINE SMOOTH",
"183 77 OFFCURVE",
"156 77 OFFCURVE",
"156 212 CURVE SMOOTH",
"156 312 OFFCURVE",
"159 478 OFFCURVE",
"159 531 CURVE",
"70 531 LINE",
"70 134 LINE SMOOTH",
"70 39 OFFCURVE",
"111 0 OFFCURVE",
"163 0 CURVE SMOOTH"
);
}
);
width = 883;
}
);
},
{
glyphname = "raa_ggi-ethiopic.liga";
lastChange = "2019-03-09 00:04:35 +0000";
layers = (
{
layerId = "994FE389-9D54-4FAA-B055-C46A67020E78";
paths = (
{
closed = 1;
nodes = (
"932 0 LINE",
"932 55 LINE",
"801 55 LINE",
"801 397 LINE SMOOTH",
"801 492 OFFCURVE",
"760 531 OFFCURVE",
"709 531 CURVE SMOOTH",
"575 531 LINE",
"575 682 LINE",
"674 682 LINE",
"674 727 LINE",
"432 727 LINE",
"432 682 LINE",
"530 682 LINE",
"530 532 LINE",
"374 532 LINE",
"373 452 LINE",
"622 453 LINE SMOOTH",
"699 453 OFFCURVE",
"715 447 OFFCURVE",
"715 319 CURVE SMOOTH",
"715 219 OFFCURVE",
"712 53 OFFCURVE",
"712 0 CURVE"
);
},
{
closed = 1;
nodes = (
"340 0 LINE SMOOTH",
"433 0 OFFCURVE",
"439 0 OFFCURVE",
"439 55 CURVE SMOOTH",
"439 86 OFFCURVE",
"363 186 OFFCURVE",
"363 214 CURVE SMOOTH",
"363 256 OFFCURVE",
"390 218 OFFCURVE",
"511 219 CURVE",
"511 291 LINE",
"482 291 LINE SMOOTH",
"373 291 OFFCURVE",
"293 296 OFFCURVE",
"293 242 CURVE SMOOTH",
"293 226 OFFCURVE",
"305 187 OFFCURVE",
"318 161 CURVE",
"326 142 OFFCURVE",
"362 87 OFFCURVE",
"350 79 CURVE",
"298 79 LINE",
"250 78 LINE SMOOTH",
"182 77 OFFCURVE",
"157 78 OFFCURVE",
"157 212 CURVE SMOOTH",
"157 312 OFFCURVE",
"160 478 OFFCURVE",
"160 531 CURVE",
"70 531 LINE",
"70 134 LINE SMOOTH",
"70 39 OFFCURVE",
"111 0 OFFCURVE",
"163 0 CURVE SMOOTH"
);
}
);
width = 1002;
}
);
},
{
glyphname = "raa_ggaa-ethiopic.liga";
lastChange = "2019-03-09 00:04:35 +0000";
layers = (
{
components = (
{
name = "ggaa-ethiopic";
transform = "{1, 0, 0, 1, 347, 0}";
}
);
layerId = "994FE389-9D54-4FAA-B055-C46A67020E78";
paths = (
{
closed = 1;
nodes = (
"339 0 LINE SMOOTH",
"432 0 OFFCURVE",
"438 0 OFFCURVE",
"438 55 CURVE SMOOTH",
"438 86 OFFCURVE",
"362 186 OFFCURVE",
"362 214 CURVE SMOOTH",
"362 256 OFFCURVE",
"390 218 OFFCURVE",
"511 219 CURVE",
"511 291 LINE",
"481 291 LINE SMOOTH",
"372 291 OFFCURVE",
"292 296 OFFCURVE",
"292 242 CURVE SMOOTH",
"292 226 OFFCURVE",
"304 187 OFFCURVE",
"317 161 CURVE",
"325 142 OFFCURVE",
"361 87 OFFCURVE",
"349 79 CURVE",
"297 79 LINE",
"249 78 LINE SMOOTH",
"181 77 OFFCURVE",
"156 78 OFFCURVE",
"156 212 CURVE SMOOTH",
"156 312 OFFCURVE",
"159 478 OFFCURVE",
"159 531 CURVE",
"70 531 LINE",
"70 134 LINE SMOOTH",
"70 39 OFFCURVE",
"111 0 OFFCURVE",
"162 0 CURVE SMOOTH"
);
}
);
width = 907;
}
);
},
{
glyphname = "raa_ggee-ethiopic.liga";
lastChange = "2019-03-09 00:04:35 +0000";
layers = (
{
layerId = "994FE389-9D54-4FAA-B055-C46A67020E78";
paths = (
{
closed = 1;
nodes = (
"824 -4 LINE SMOOTH",
"856 -4 OFFCURVE",
"878 9 OFFCURVE",
"896 29 CURVE SMOOTH",
"912 47 OFFCURVE",
"919 75 OFFCURVE",
"919 106 CURVE SMOOTH",
"919 129 OFFCURVE",
"915 151 OFFCURVE",
"907 170 CURVE SMOOTH",
"892 204 OFFCURVE",
"863 222 OFFCURVE",
"824 222 CURVE SMOOTH",
"795 222 LINE",
"795 393 LINE SMOOTH",
"795 487 OFFCURVE",
"754 526 OFFCURVE",
"702 526 CURVE SMOOTH",
"551 526 LINE",
"551 682 LINE",
"668 682 LINE",
"668 727 LINE",
"426 727 LINE",
"426 682 LINE",
"510 682 LINE",
"510 527 LINE",
"368 527 LINE",
"367 447 LINE",
"616 448 LINE SMOOTH",
"692 448 OFFCURVE",
"708 442 OFFCURVE",
"708 315 CURVE SMOOTH",
"708 215 OFFCURVE",
"706 48 OFFCURVE",
"706 -4 CURVE"
);
},
{
closed = 1;
nodes = (
"339 0 LINE SMOOTH",
"433 0 OFFCURVE",
"438 0 OFFCURVE",
"438 55 CURVE SMOOTH",
"438 86 OFFCURVE",
"363 186 OFFCURVE",
"363 214 CURVE SMOOTH",
"363 256 OFFCURVE",
"390 218 OFFCURVE",
"511 219 CURVE",
"511 291 LINE",
"482 291 LINE SMOOTH",
"373 291 OFFCURVE",
"293 296 OFFCURVE",
"293 242 CURVE SMOOTH",
"293 226 OFFCURVE",
"305 187 OFFCURVE",
"318 161 CURVE",
"326 142 OFFCURVE",
"362 87 OFFCURVE",
"349 79 CURVE",
"298 79 LINE",
"249 78 LINE SMOOTH",
"182 77 OFFCURVE",
"157 78 OFFCURVE",
"157 212 CURVE SMOOTH",
"157 312 OFFCURVE",
"159 478 OFFCURVE",
"159 531 CURVE",
"70 531 LINE",
"70 134 LINE SMOOTH",
"70 39 OFFCURVE",
"111 0 OFFCURVE",
"163 0 CURVE SMOOTH"
);
},
{
closed = 1;
nodes = (
"795 197 LINE",
"798 197 LINE SMOOTH",
"808 197 OFFCURVE",
"816 196 OFFCURVE",
"822 193 CURVE SMOOTH",
"835 187 OFFCURVE",
"846 183 OFFCURVE",
"852 169 CURVE",
"857 159 OFFCURVE",
"861 149 OFFCURVE",
"865 134 CURVE SMOOTH",
"867 126 OFFCURVE",
"868 117 OFFCURVE",
"868 110 CURVE SMOOTH",
"868 83 OFFCURVE",
"862 59 OFFCURVE",
"852 44 CURVE SMOOTH",
"842 28 OFFCURVE",
"821 22 OFFCURVE",
"797 22 CURVE SMOOTH",
"795 22 LINE"
);
}
);
width = 989;
}
);
},
{
glyphname = "raa_gge-ethiopic.liga";
lastChange = "2019-03-09 00:04:35 +0000";
layers = (
{
layerId = "994FE389-9D54-4FAA-B055-C46A67020E78";
paths = (
{
closed = 1;
nodes = (
"844 0 LINE",
"844 397 LINE SMOOTH",
"844 492 OFFCURVE",
"803 531 OFFCURVE",
"751 531 CURVE SMOOTH",
"672 531 LINE",
"672 682 LINE",
"787 682 LINE",
"787 727 LINE",
"470 727 LINE",
"470 682 LINE",
"622 682 LINE",
"622 531 LINE",
"417 532 LINE",
"416 452 LINE",
"417 452 LINE",
"417 420 LINE SMOOTH",
"417 388 OFFCURVE",
"430 366 OFFCURVE",
"450 348 CURVE SMOOTH",
"469 332 OFFCURVE",
"496 325 OFFCURVE",
"527 325 CURVE SMOOTH",
"550 325 OFFCURVE",
"572 329 OFFCURVE",
"591 337 CURVE SMOOTH",
"625 352 OFFCURVE",
"643 381 OFFCURVE",
"643 420 CURVE SMOOTH",
"643 453 LINE",
"665 453 LINE SMOOTH",
"741 453 OFFCURVE",
"758 446 OFFCURVE",
"758 319 CURVE SMOOTH",
"758 219 OFFCURVE",
"755 53 OFFCURVE",
"755 0 CURVE"
);
},
{
closed = 1;
nodes = (
"339 0 LINE SMOOTH",
"432 0 OFFCURVE",
"438 0 OFFCURVE",
"438 55 CURVE SMOOTH",
"438 86 OFFCURVE",
"362 186 OFFCURVE",
"362 214 CURVE SMOOTH",
"362 256 OFFCURVE",
"390 218 OFFCURVE",
"510 219 CURVE",
"510 291 LINE",
"481 291 LINE SMOOTH",
"372 291 OFFCURVE",
"292 296 OFFCURVE",
"292 242 CURVE SMOOTH",
"292 226 OFFCURVE",
"304 187 OFFCURVE",
"317 161 CURVE",
"325 142 OFFCURVE",
"361 87 OFFCURVE",
"349 79 CURVE",
"297 79 LINE",
"249 78 LINE SMOOTH",
"181 77 OFFCURVE",
"156 78 OFFCURVE",
"156 212 CURVE SMOOTH",
"156 312 OFFCURVE",
"159 478 OFFCURVE",
"159 531 CURVE",
"70 531 LINE",
"70 134 LINE SMOOTH",
"70 39 OFFCURVE",
"110 0 OFFCURVE",
"162 0 CURVE SMOOTH"
);
},
{
closed = 1;
nodes = (
"504 376 OFFCURVE",
"480 382 OFFCURVE",
"465 392 CURVE SMOOTH",
"450 402 OFFCURVE",
"443 423 OFFCURVE",
"443 447 CURVE SMOOTH",
"443 452 LINE",
"619 453 LINE",
"619 446 LINE SMOOTH",
"619 436 OFFCURVE",
"617 428 OFFCURVE",
"614 422 CURVE",
"609 409 OFFCURVE",
"604 398 OFFCURVE",
"590 392 CURVE",
"580 387 OFFCURVE",
"570 383 OFFCURVE",
"555 379 CURVE SMOOTH",
"547 377 OFFCURVE",
"539 376 OFFCURVE",
"531 376 CURVE SMOOTH"
);
}
);
width = 914;
}
);
},
{
glyphname = "raa_ggo-ethiopic.liga";
lastChange = "2019-03-09 00:04:35 +0000";
layers = (
{
layerId = "994FE389-9D54-4FAA-B055-C46A67020E78";
paths = (
{
closed = 1;
nodes = (
"790 0 LINE",
"790 397 LINE SMOOTH",
"790 492 OFFCURVE",
"749 531 OFFCURVE",
"697 531 CURVE SMOOTH",
"652 531 LINE",
"652 606 LINE SMOOTH",
"652 637 OFFCURVE",
"642 664 OFFCURVE",
"625 679 CURVE",
"753 679 LINE",
"753 727 LINE",
"419 727 LINE",
"419 679 LINE",
"501 679 LINE",
"499 677 LINE",
"483 659 OFFCURVE",
"472 637 OFFCURVE",
"472 606 CURVE SMOOTH",
"472 532 LINE",
"362 532 LINE",
"362 452 LINE",
"611 453 LINE SMOOTH",
"687 453 OFFCURVE",
"703 446 OFFCURVE",
"703 319 CURVE SMOOTH",
"703 219 OFFCURVE",
"701 53 OFFCURVE",
"701 0 CURVE"
);
},
{
closed = 1;
nodes = (
"339 0 LINE SMOOTH",
"432 0 OFFCURVE",
"438 0 OFFCURVE",
"438 55 CURVE SMOOTH",
"438 86 OFFCURVE",
"362 186 OFFCURVE",
"362 214 CURVE SMOOTH",
"362 256 OFFCURVE",
"390 218 OFFCURVE",
"511 219 CURVE",
"511 291 LINE",
"482 291 LINE SMOOTH",
"372 291 OFFCURVE",
"292 296 OFFCURVE",
"292 242 CURVE SMOOTH",
"292 226 OFFCURVE",
"304 187 OFFCURVE",
"317 161 CURVE",
"325 142 OFFCURVE",
"362 87 OFFCURVE",
"349 79 CURVE",
"297 79 LINE",
"249 78 LINE SMOOTH",
"181 77 OFFCURVE",
"156 78 OFFCURVE",
"156 212 CURVE SMOOTH",
"156 312 OFFCURVE",
"159 478 OFFCURVE",
"159 531 CURVE",
"70 531 LINE",
"70 134 LINE SMOOTH",
"70 39 OFFCURVE",
"111 0 OFFCURVE",
"162 0 CURVE SMOOTH"
);
},
{
closed = 1;
nodes = (
"493 532 LINE",
"493 578 LINE SMOOTH",
"493 603 OFFCURVE",
"498 624 OFFCURVE",
"511 634 CURVE",
"522 644 OFFCURVE",
"542 649 OFFCURVE",
"563 649 CURVE SMOOTH",
"569 649 OFFCURVE",
"576 648 OFFCURVE",
"582 646 CURVE",
"594 643 OFFCURVE",
"602 638 OFFCURVE",
"611 634 CURVE",
"622 627 OFFCURVE",
"626 616 OFFCURVE",
"630 604 CURVE",
"632 597 OFFCURVE",
"632 589 OFFCURVE",
"632 579 CURVE SMOOTH",
"632 531 LINE"
);
}
);
width = 860;
}
);
},
{
glyphname = "raa_ggwaa-ethiopic.liga";
lastChange = "2019-03-09 00:04:35 +0000";
layers = (
{
layerId = "994FE389-9D54-4FAA-B055-C46A67020E78";
paths = (
{
closed = 1;
nodes = (
"910 -182 LINE",
"910 -7 LINE",
"909 -7 LINE",
"909 6 LINE",
"840 6 LINE",
"840 397 LINE SMOOTH",
"840 492 OFFCURVE",
"799 531 OFFCURVE",
"748 531 CURVE SMOOTH",
"601 531 LINE",
"601 682 LINE",
"699 682 LINE",
"699 727 LINE",
"461 727 LINE",
"461 682 LINE",
"558 682 LINE",
"558 532 LINE",
"413 532 LINE",
"412 452 LINE",
"661 453 LINE SMOOTH",
"738 453 OFFCURVE",
"754 447 OFFCURVE",
"754 319 CURVE SMOOTH",
"754 223 OFFCURVE",
"751 66 OFFCURVE",
"751 6 CURVE",
"579 6 LINE",
"579 -18 LINE",
"829 -18 LINE",
"829 -182 LINE"
);
},
{
closed = 1;
nodes = (
"339 0 LINE SMOOTH",
"433 0 OFFCURVE",
"439 0 OFFCURVE",
"439 55 CURVE SMOOTH",
"439 86 OFFCURVE",
"363 186 OFFCURVE",
"363 214 CURVE SMOOTH",
"363 256 OFFCURVE",
"390 218 OFFCURVE",
"511 219 CURVE",
"511 291 LINE",
"482 291 LINE SMOOTH",
"373 291 OFFCURVE",
"293 296 OFFCURVE",
"293 242 CURVE SMOOTH",
"293 226 OFFCURVE",
"305 187 OFFCURVE",
"318 161 CURVE",
"326 142 OFFCURVE",
"362 87 OFFCURVE",
"349 79 CURVE",
"298 79 LINE",
"249 78 LINE SMOOTH",
"182 77 OFFCURVE",
"157 78 OFFCURVE",
"157 212 CURVE SMOOTH",
"157 312 OFFCURVE",
"159 478 OFFCURVE",
"159 531 CURVE",
"70 531 LINE",
"70 134 LINE SMOOTH",
"70 39 OFFCURVE",
"111 0 OFFCURVE",
"163 0 CURVE SMOOTH"
);
}
);
width = 980;
}
);
},
